<?xml version="1.0" encoding="UTF-8" standalone="no"?>
<!DOCTYPE svg PUBLIC "-//W3C//DTD SVG 1.1//EN"
 "http://www.w3.org/Graphics/SVG/1.1/DTD/svg11.dtd">
<!-- Generated by graphviz version 8.1.0 (20230707.0739)
 -->
<!-- Title: main Pages: 1 -->
<svg width="373pt" height="158pt"
 viewBox="0.00 0.00 372.75 158.25" xmlns="http://www.w3.org/2000/svg" xmlns:xlink="http://www.w3.org/1999/xlink">

<svg id="main" version="1.1" xmlns="http://www.w3.org/2000/svg" xmlns:xlink="http://www.w3.org/1999/xlink" xml:space="preserve" onload="init(evt)">
<style type="text/css"><![CDATA[
.node, .edge {opacity: 0.7;}
.node.selected, .edge.selected {opacity: 1;}
.edge:hover path { stroke: red; }
.edge:hover polygon { stroke: red; fill: red; }
]]></style>
<script type="application/ecmascript" xlink:href="../../svg.min.js"/>
<svg id="graph" class="graph">
<g id="graph0" class="graph" transform="scale(1 1) rotate(0) translate(4 154.25)">
<title>main</title>
<!-- Node1 -->
<g id="Node000001" class="node">
<title>Node1</title>
<g id="a_Node000001"><a xlink:title="Main function.">
<polygon fill="#999999" stroke="#666666" points="37,-84.25 0,-84.25 0,-65 37,-65 37,-84.25"/>
<text text-anchor="middle" x="18.5" y="-70.75" font-family="Helvetica,sans-Serif" font-size="10.00">main</text>
</a>
</g>
</g>
<!-- Node2 -->
<g id="Node000002" class="node">
<title>Node2</title>
<g id="a_Node000002"><a target="_blank" xlink:href="http://en.cppreference.com/w/cpp/io/manip/endl.html#" xlink:title=" ">
<polygon fill="white" stroke="#666666" points="156.88,-150.25 103.38,-150.25 103.38,-131 156.88,-131 156.88,-150.25"/>
<text text-anchor="middle" x="130.12" y="-136.75" font-family="Helvetica,sans-Serif" font-size="10.00">std::endl</text>
</a>
</g>
</g>
<!-- Node1&#45;&gt;Node2 -->
<g id="edge1_Node000001_Node000002" class="edge">
<title>Node1&#45;&gt;Node2</title>
<g id="a_edge1_Node000001_Node000002"><a xlink:title=" ">
<path fill="none" stroke="#63b8ff" d="M30.36,-84.55C40.75,-93.69 57.15,-107.24 73,-116.62 79.31,-120.36 86.31,-123.83 93.16,-126.91"/>
<polygon fill="#63b8ff" stroke="#63b8ff" points="91.44,-130.4 102.01,-131.12 94.19,-123.97 91.44,-130.4"/>
</a>
</g>
</g>
<!-- Node3 -->
<g id="Node000003" class="node">
<title>Node3</title>
<g id="a_Node000003"><a xlink:href="../../d8/dee/avltree_8cpp.html#ae4a66d8b0c2b0d626aea45977e358c83" target="_top" xlink:title=" ">
<polygon fill="white" stroke="#666666" points="270,-103.25 227.75,-103.25 227.75,-84 270,-84 270,-103.25"/>
<text text-anchor="middle" x="248.88" y="-89.75" font-family="Helvetica,sans-Serif" font-size="10.00">height</text>
</a>
</g>
</g>
<!-- Node1&#45;&gt;Node3 -->
<g id="edge2_Node000001_Node000003" class="edge">
<title>Node1&#45;&gt;Node3</title>
<g id="a_edge2_Node000001_Node000003"><a xlink:title=" ">
<path fill="none" stroke="#63b8ff" d="M37.26,-78.12C47.64,-80.03 61.02,-82.28 73,-83.62 122.96,-89.24 181.32,-91.77 216.39,-92.86"/>
<polygon fill="#63b8ff" stroke="#63b8ff" points="216.26,-96.39 226.35,-93.18 216.46,-89.39 216.26,-96.39"/>
</a>
</g>
</g>
<!-- Node5 -->
<g id="Node000005" class="node">
<title>Node5</title>
<g id="a_Node000005"><a xlink:href="../../db/dc0/namespacebacktracking.html#a78540bcb5ef3473b2348cbc34748ec50" target="_top" xlink:title="Check which is the maximum/minimum number in the array.">
<polygon fill="white" stroke="#666666" points="187.25,-56.25 73,-56.25 73,-37 187.25,-37 187.25,-56.25"/>
<text text-anchor="middle" x="130.12" y="-42.75" font-family="Helvetica,sans-Serif" font-size="10.00">backtracking::minimax</text>
</a>
</g>
</g>
<!-- Node1&#45;&gt;Node5 -->
<g id="edge5_Node000001_Node000005" class="edge">
<title>Node1&#45;&gt;Node5</title>
<g id="a_edge5_Node000001_Node000005"><a xlink:title=" ">
<path fill="none" stroke="#63b8ff" d="M37.11,-70.13C48.62,-67.19 64.27,-63.19 79.4,-59.33"/>
<polygon fill="#63b8ff" stroke="#63b8ff" points="79.91,-62.55 88.73,-56.69 78.17,-55.77 79.91,-62.55"/>
</a>
</g>
</g>
<!-- Node7 -->
<g id="Node000007" class="node">
<title>Node7</title>
<g id="a_Node000007"><a target="_blank" xlink:href="http://en.cppreference.com/w/cpp/container/array/size.html#" xlink:title=" ">
<polygon fill="white" stroke="#666666" points="170.75,-19.25 89.5,-19.25 89.5,0 170.75,0 170.75,-19.25"/>
<text text-anchor="middle" x="130.12" y="-5.75" font-family="Helvetica,sans-Serif" font-size="10.00">std::array::size</text>
</a>
</g>
</g>
<!-- Node1&#45;&gt;Node7 -->
<g id="edge10_Node000001_Node000007" class="edge">
<title>Node1&#45;&gt;Node7</title>
<g id="a_edge10_Node000001_Node000007"><a xlink:title=" ">
<path fill="none" stroke="#63b8ff" d="M28.43,-64.65C38.36,-54.1 55.36,-37.62 73,-27.62 75.38,-26.28 77.87,-25.02 80.42,-23.84"/>
<polygon fill="#63b8ff" stroke="#63b8ff" points="81.58,-26.73 89.49,-19.69 78.91,-20.26 81.58,-26.73"/>
</a>
</g>
</g>
<!-- Node3&#45;&gt;Node3 -->
<g id="edge3_Node000003_Node000003" class="edge">
<title>Node3&#45;&gt;Node3</title>
<g id="a_edge3_Node000003_Node000003"><a xlink:title=" ">
<path fill="none" stroke="#63b8ff" d="M234.98,-103.54C228.64,-112.15 233.27,-121.25 248.88,-121.25 257.65,-121.25 262.95,-118.37 264.79,-114.32"/>
<polygon fill="#63b8ff" stroke="#63b8ff" points="268.05,-113.72 262.77,-104.54 261.17,-115.01 268.05,-113.72"/>
</a>
</g>
</g>
<!-- Node4 -->
<g id="Node000004" class="node">
<title>Node4</title>
<g id="a_Node000004"><a target="_blank" xlink:href="http://en.cppreference.com/w/cpp/algorithm/max.html#" xlink:title=" ">
<polygon fill="white" stroke="#666666" points="364.75,-84.25 310.5,-84.25 310.5,-65 364.75,-65 364.75,-84.25"/>
<text text-anchor="middle" x="337.62" y="-70.75" font-family="Helvetica,sans-Serif" font-size="10.00">std::max</text>
</a>
</g>
</g>
<!-- Node3&#45;&gt;Node4 -->
<g id="edge4_Node000003_Node000004" class="edge">
<title>Node3&#45;&gt;Node4</title>
<g id="a_edge4_Node000003_Node000004"><a xlink:title=" ">
<path fill="none" stroke="#63b8ff" d="M270.43,-89.12C279.19,-87.2 289.68,-84.91 299.7,-82.71"/>
<polygon fill="#63b8ff" stroke="#63b8ff" points="300.27,-85.95 309.29,-80.39 298.77,-79.11 300.27,-85.95"/>
</a>
</g>
</g>
<!-- Node5&#45;&gt;Node3 -->
<g id="edge6_Node000005_Node000003" class="edge">
<title>Node5&#45;&gt;Node3</title>
<g id="a_edge6_Node000005_Node000003"><a xlink:title=" ">
<path fill="none" stroke="#63b8ff" d="M156.17,-56.71C174.15,-63.94 198.47,-73.74 217.55,-81.42"/>
<polygon fill="#63b8ff" stroke="#63b8ff" points="215.95,-84.95 226.53,-85.44 218.56,-78.45 215.95,-84.95"/>
</a>
</g>
</g>
<!-- Node5&#45;&gt;Node4 -->
<g id="edge7_Node000005_Node000004" class="edge">
<title>Node5&#45;&gt;Node4</title>
<g id="a_edge7_Node000005_Node000004"><a xlink:title=" ">
<path fill="none" stroke="#63b8ff" d="M187.55,-54.31C223.11,-59.16 268.03,-65.28 299.22,-69.53"/>
<polygon fill="#63b8ff" stroke="#63b8ff" points="298.66,-73.12 309.04,-71 299.61,-66.18 298.66,-73.12"/>
</a>
</g>
</g>
<!-- Node5&#45;&gt;Node5 -->
<g id="edge9_Node000005_Node000005" class="edge">
<title>Node5&#45;&gt;Node5</title>
<g id="a_edge9_Node000005_Node000005"><a xlink:title=" ">
<path fill="none" stroke="#63b8ff" d="M112.65,-56.54C104.68,-65.15 110.5,-74.25 130.12,-74.25 141.47,-74.25 148.2,-71.21 150.32,-66.98"/>
<polygon fill="#63b8ff" stroke="#63b8ff" points="153.51,-66.33 147.6,-57.54 146.74,-68.1 153.51,-66.33"/>
</a>
</g>
</g>
<!-- Node6 -->
<g id="Node000006" class="node">
<title>Node6</title>
<g id="a_Node000006"><a target="_blank" xlink:href="http://en.cppreference.com/w/cpp/algorithm/min.html#" xlink:title=" ">
<polygon fill="white" stroke="#666666" points="274.5,-27.25 223.25,-27.25 223.25,-8 274.5,-8 274.5,-27.25"/>
<text text-anchor="middle" x="248.88" y="-13.75" font-family="Helvetica,sans-Serif" font-size="10.00">std::min</text>
</a>
</g>
</g>
<!-- Node5&#45;&gt;Node6 -->
<g id="edge8_Node000005_Node000006" class="edge">
<title>Node5&#45;&gt;Node6</title>
<g id="a_edge8_Node000005_Node000006"><a xlink:title=" ">
<path fill="none" stroke="#63b8ff" d="M171.63,-36.56C185.01,-33.24 199.77,-29.57 212.72,-26.36"/>
<polygon fill="#63b8ff" stroke="#63b8ff" points="213.23,-29.59 222.09,-23.78 211.54,-22.8 213.23,-29.59"/>
</a>
</g>
</g>
</g>
</svg>
</svg>

<style type='text/css'>
<![CDATA[
[data-mouse-over-selected='false'] { opacity: 0.7; }
[data-mouse-over-selected='true']  { opacity: 1.0; }
]]>
</style>
<script type="application/ecmascript"><![CDATA[
document.addEventListener('DOMContentLoaded', (event) => {
  highlightEdges();
  highlightAdjacentNodes();
});
]]></script>
</svg>
