<?xml version="1.0" encoding="UTF-8" standalone="no"?>
<!DOCTYPE svg PUBLIC "-//W3C//DTD SVG 1.1//EN"
 "http://www.w3.org/Graphics/SVG/1.1/DTD/svg11.dtd">
<!-- Generated by graphviz version 8.1.0 (20230707.0739)
 -->
<!-- Title: graph::depth_first_search::dfs Pages: 1 -->
<svg width="395pt" height="156pt"
 viewBox="0.00 0.00 395.00 156.25" xmlns="http://www.w3.org/2000/svg" xmlns:xlink="http://www.w3.org/1999/xlink">
<g id="graph0" class="graph" transform="scale(1 1) rotate(0) translate(4 152.25)">
<title>graph::depth_first_search::dfs</title>
<!-- Node1 -->
<g id="Node000001" class="node">
<title>Node1</title>
<g id="a_Node000001"><a xlink:title="Explores the given vertex, exploring a vertex means traversing over all the vertices which are connec...">
<polygon fill="#999999" stroke="#666666" points="91.75,-79.88 0,-79.88 0,-49.38 91.75,-49.38 91.75,-79.88"/>
<text text-anchor="start" x="8" y="-66.38" font-family="Helvetica,sans-Serif" font-size="10.00">graph::depth_first</text>
<text text-anchor="middle" x="45.88" y="-55.12" font-family="Helvetica,sans-Serif" font-size="10.00">_search::dfs</text>
</a>
</g>
</g>
<!-- Node1&#45;&gt;Node1 -->
<g id="edge1_Node000001_Node000001" class="edge">
<title>Node1&#45;&gt;Node1</title>
<g id="a_edge1_Node000001_Node000001"><a xlink:title=" ">
<path fill="none" stroke="#63b8ff" d="M21.11,-80.36C16.06,-89.43 24.31,-97.88 45.88,-97.88 58,-97.88 65.92,-95.2 69.63,-91.25"/>
<polygon fill="#63b8ff" stroke="#63b8ff" points="73.2,-91.64 70.64,-81.36 66.23,-91 73.2,-91.64"/>
</a>
</g>
</g>
<!-- Node2 -->
<g id="Node000002" class="node">
<title>Node2</title>
<g id="a_Node000002"><a xlink:href="../../d1/dc2/classstack.html#a6cd4b95d5de00d41b2491392338384dc" target="_top" xlink:title=" ">
<polygon fill="white" stroke="#666666" points="216.5,-130.25 154.75,-130.25 154.75,-111 216.5,-111 216.5,-130.25"/>
<text text-anchor="middle" x="185.62" y="-116.75" font-family="Helvetica,sans-Serif" font-size="10.00">stack::pop</text>
</a>
</g>
</g>
<!-- Node1&#45;&gt;Node2 -->
<g id="edge2_Node000001_Node000002" class="edge">
<title>Node1&#45;&gt;Node2</title>
<g id="a_edge2_Node000001_Node000002"><a xlink:title=" ">
<path fill="none" stroke="#63b8ff" d="M77.56,-80.22C92.5,-87.51 110.85,-96.01 127.75,-102.62 132.92,-104.65 138.42,-106.61 143.89,-108.46"/>
<polygon fill="#63b8ff" stroke="#63b8ff" points="142.67,-112.06 153.26,-111.83 144.83,-105.41 142.67,-112.06"/>
</a>
</g>
</g>
<!-- Node5 -->
<g id="Node000005" class="node">
<title>Node5</title>
<g id="a_Node000005"><a xlink:href="../../d1/dc2/classstack.html#a5705c3926dcf5fd3f9c964467a50b81d" target="_top" xlink:title=" ">
<polygon fill="white" stroke="#666666" points="219.12,-93.25 152.12,-93.25 152.12,-74 219.12,-74 219.12,-93.25"/>
<text text-anchor="middle" x="185.62" y="-79.75" font-family="Helvetica,sans-Serif" font-size="10.00">stack::push</text>
</a>
</g>
</g>
<!-- Node1&#45;&gt;Node5 -->
<g id="edge5_Node000001_Node000005" class="edge">
<title>Node1&#45;&gt;Node5</title>
<g id="a_edge5_Node000001_Node000005"><a xlink:title=" ">
<path fill="none" stroke="#63b8ff" d="M91.98,-70.85C107.79,-73.03 125.51,-75.47 141.18,-77.63"/>
<polygon fill="#63b8ff" stroke="#63b8ff" points="140.27,-81.18 150.65,-79.08 141.22,-74.24 140.27,-81.18"/>
</a>
</g>
</g>
<!-- Node6 -->
<g id="Node000006" class="node">
<title>Node6</title>
<g id="a_Node000006"><a target="_blank" xlink:href="http://en.cppreference.com/w/cpp/container/vector/push_back.html#" xlink:title=" ">
<polygon fill="white" stroke="#666666" points="243.5,-56.25 127.75,-56.25 127.75,-37 243.5,-37 243.5,-56.25"/>
<text text-anchor="middle" x="185.62" y="-42.75" font-family="Helvetica,sans-Serif" font-size="10.00">std::vector::push_back</text>
</a>
</g>
</g>
<!-- Node1&#45;&gt;Node6 -->
<g id="edge6_Node000001_Node000006" class="edge">
<title>Node1&#45;&gt;Node6</title>
<g id="a_edge6_Node000001_Node000006"><a xlink:title=" ">
<path fill="none" stroke="#63b8ff" d="M91.98,-58.73C99.84,-57.7 108.16,-56.62 116.47,-55.53"/>
<polygon fill="#63b8ff" stroke="#63b8ff" points="116.89,-58.88 126.35,-54.11 115.98,-51.93 116.89,-58.88"/>
</a>
</g>
</g>
<!-- Node7 -->
<g id="Node000007" class="node">
<title>Node7</title>
<g id="a_Node000007"><a xlink:href="../../d1/dc2/classstack.html#a21c0bb6ce7dcfe445cc12031977ea344" target="_top" xlink:title=" ">
<polygon fill="white" stroke="#666666" points="215.38,-19.25 155.88,-19.25 155.88,0 215.38,0 215.38,-19.25"/>
<text text-anchor="middle" x="185.62" y="-5.75" font-family="Helvetica,sans-Serif" font-size="10.00">stack::top</text>
</a>
</g>
</g>
<!-- Node1&#45;&gt;Node7 -->
<g id="edge7_Node000001_Node000007" class="edge">
<title>Node1&#45;&gt;Node7</title>
<g id="a_edge7_Node000001_Node000007"><a xlink:title=" ">
<path fill="none" stroke="#63b8ff" d="M78.76,-48.94C93.49,-41.98 111.33,-33.95 127.75,-27.62 133.31,-25.48 139.24,-23.4 145.09,-21.45"/>
<polygon fill="#63b8ff" stroke="#63b8ff" points="146.01,-24.51 154.45,-18.1 143.86,-17.84 146.01,-24.51"/>
</a>
</g>
</g>
<!-- Node3 -->
<g id="Node000003" class="node">
<title>Node3</title>
<g id="a_Node000003"><a target="_blank" xlink:href="http://en.cppreference.com/w/cpp/io/manip/endl.html#" xlink:title=" ">
<polygon fill="white" stroke="#666666" points="360,-148.25 306.5,-148.25 306.5,-129 360,-129 360,-148.25"/>
<text text-anchor="middle" x="333.25" y="-134.75" font-family="Helvetica,sans-Serif" font-size="10.00">std::endl</text>
</a>
</g>
</g>
<!-- Node2&#45;&gt;Node3 -->
<g id="edge3_Node000002_Node000003" class="edge">
<title>Node2&#45;&gt;Node3</title>
<g id="a_edge3_Node000002_Node000003"><a xlink:title=" ">
<path fill="none" stroke="#63b8ff" d="M216.8,-124.35C239.63,-127.18 271.09,-131.07 295.41,-134.07"/>
<polygon fill="#63b8ff" stroke="#63b8ff" points="294.67,-137.63 305.02,-135.38 295.53,-130.68 294.67,-137.63"/>
</a>
</g>
</g>
<!-- Node4 -->
<g id="Node000004" class="node">
<title>Node4</title>
<g id="a_Node000004"><a xlink:href="../../d1/dc2/classstack.html#a066e4505155b009913c47b2648b1067a" target="_top" xlink:title=" ">
<polygon fill="white" stroke="#666666" points="387,-111.25 279.5,-111.25 279.5,-92 387,-92 387,-111.25"/>
<text text-anchor="middle" x="333.25" y="-97.75" font-family="Helvetica,sans-Serif" font-size="10.00">stack::isEmptyStack</text>
</a>
</g>
</g>
<!-- Node2&#45;&gt;Node4 -->
<g id="edge4_Node000002_Node000004" class="edge">
<title>Node2&#45;&gt;Node4</title>
<g id="a_edge4_Node000002_Node000004"><a xlink:title=" ">
<path fill="none" stroke="#63b8ff" d="M216.8,-116.69C231.77,-114.73 250.46,-112.3 268.41,-109.95"/>
<polygon fill="#63b8ff" stroke="#63b8ff" points="268.69,-113.32 278.15,-108.55 267.78,-106.38 268.69,-113.32"/>
</a>
</g>
</g>
</g>
</svg>
