<?xml version="1.0" encoding="UTF-8" standalone="no"?>
<!DOCTYPE svg PUBLIC "-//W3C//DTD SVG 1.1//EN"
 "http://www.w3.org/Graphics/SVG/1.1/DTD/svg11.dtd">
<!-- Generated by graphviz version 8.1.0 (20230707.0739)
 -->
<!-- Title: main Pages: 1 -->
<svg width="286pt" height="249pt"
 viewBox="0.00 0.00 286.25 249.25" xmlns="http://www.w3.org/2000/svg" xmlns:xlink="http://www.w3.org/1999/xlink">
<g id="graph0" class="graph" transform="scale(1 1) rotate(0) translate(4 245.25)">
<title>main</title>
<!-- Node1 -->
<g id="Node000001" class="node">
<title>Node1</title>
<g id="a_Node000001"><a xlink:title="Main function.">
<polygon fill="#999999" stroke="#666666" points="37,-130.25 0,-130.25 0,-111 37,-111 37,-130.25"/>
<text text-anchor="middle" x="18.5" y="-116.75" font-family="Helvetica,sans-Serif" font-size="10.00">main</text>
</a>
</g>
</g>
<!-- Node2 -->
<g id="Node000002" class="node">
<title>Node2</title>
<g id="a_Node000002"><a target="_blank" xlink:href="http://en.cppreference.com/w/cpp/container/vector/clear.html#" xlink:title=" ">
<polygon fill="white" stroke="#666666" points="175.62,-241.25 86.12,-241.25 86.12,-222 175.62,-222 175.62,-241.25"/>
<text text-anchor="middle" x="130.88" y="-227.75" font-family="Helvetica,sans-Serif" font-size="10.00">std::vector::clear</text>
</a>
</g>
</g>
<!-- Node1&#45;&gt;Node2 -->
<g id="edge1_Node000001_Node000002" class="edge">
<title>Node1&#45;&gt;Node2</title>
<g id="a_edge1_Node000001_Node000002"><a xlink:title=" ">
<path fill="none" stroke="#63b8ff" d="M22.54,-130.65C28.81,-149.67 44.99,-191.09 73,-213.62 74.24,-214.62 75.53,-215.56 76.86,-216.45"/>
<polygon fill="#63b8ff" stroke="#63b8ff" points="74.76,-219.84 85.21,-221.59 78.14,-213.7 74.76,-219.84"/>
</a>
</g>
</g>
<!-- Node3 -->
<g id="Node000003" class="node">
<title>Node3</title>
<g id="a_Node000003"><a target="_blank" xlink:href="http://en.cppreference.com/w/cpp/container/vector/push_back.html#" xlink:title=" ">
<polygon fill="white" stroke="#666666" points="188.75,-204.25 73,-204.25 73,-185 188.75,-185 188.75,-204.25"/>
<text text-anchor="middle" x="130.88" y="-190.75" font-family="Helvetica,sans-Serif" font-size="10.00">std::vector::push_back</text>
</a>
</g>
</g>
<!-- Node1&#45;&gt;Node3 -->
<g id="edge2_Node000001_Node000003" class="edge">
<title>Node1&#45;&gt;Node3</title>
<g id="a_edge2_Node000001_Node000003"><a xlink:title=" ">
<path fill="none" stroke="#63b8ff" d="M26.34,-130.37C35.56,-142.83 53.15,-164.25 73,-176.62 75.04,-177.89 77.17,-179.08 79.36,-180.19"/>
<polygon fill="#63b8ff" stroke="#63b8ff" points="77.72,-183.73 88.29,-184.57 80.55,-177.33 77.72,-183.73"/>
</a>
</g>
</g>
<!-- Node4 -->
<g id="Node000004" class="node">
<title>Node4</title>
<g id="a_Node000004"><a target="_blank" xlink:href="http://en.cppreference.com/w/cpp/numeric/random/rand.html#" xlink:title=" ">
<polygon fill="white" stroke="#666666" points="158,-167.25 103.75,-167.25 103.75,-148 158,-148 158,-167.25"/>
<text text-anchor="middle" x="130.88" y="-153.75" font-family="Helvetica,sans-Serif" font-size="10.00">std::rand</text>
</a>
</g>
</g>
<!-- Node1&#45;&gt;Node4 -->
<g id="edge3_Node000001_Node000004" class="edge">
<title>Node1&#45;&gt;Node4</title>
<g id="a_edge3_Node000001_Node000004"><a xlink:title=" ">
<path fill="none" stroke="#63b8ff" d="M37.28,-127.11C47.66,-130.86 61.04,-135.61 73,-139.62 79.51,-141.81 86.46,-144.07 93.19,-146.22"/>
<polygon fill="#63b8ff" stroke="#63b8ff" points="91.89,-149.8 102.48,-149.48 94,-143.12 91.89,-149.8"/>
</a>
</g>
</g>
<!-- Node5 -->
<g id="Node000005" class="node">
<title>Node5</title>
<g id="a_Node000005"><a target="_blank" xlink:href="http://en.cppreference.com/w/cpp/container/vector/reserve.html#" xlink:title=" ">
<polygon fill="white" stroke="#666666" points="181.25,-130.25 80.5,-130.25 80.5,-111 181.25,-111 181.25,-130.25"/>
<text text-anchor="middle" x="130.88" y="-116.75" font-family="Helvetica,sans-Serif" font-size="10.00">std::vector::reserve</text>
</a>
</g>
</g>
<!-- Node1&#45;&gt;Node5 -->
<g id="edge4_Node000001_Node000005" class="edge">
<title>Node1&#45;&gt;Node5</title>
<g id="a_edge4_Node000001_Node000005"><a xlink:title=" ">
<path fill="none" stroke="#63b8ff" d="M37.23,-120.62C46.19,-120.62 57.64,-120.62 69.42,-120.62"/>
<polygon fill="#63b8ff" stroke="#63b8ff" points="69.26,-124.13 79.26,-120.62 69.26,-117.13 69.26,-124.13"/>
</a>
</g>
</g>
<!-- Node6 -->
<g id="Node000006" class="node">
<title>Node6</title>
<g id="a_Node000006"><a target="_blank" xlink:href="http://en.cppreference.com/w/cpp/numeric/random/srand.html#" xlink:title=" ">
<polygon fill="white" stroke="#666666" points="160.62,-93.25 101.12,-93.25 101.12,-74 160.62,-74 160.62,-93.25"/>
<text text-anchor="middle" x="130.88" y="-79.75" font-family="Helvetica,sans-Serif" font-size="10.00">std::srand</text>
</a>
</g>
</g>
<!-- Node1&#45;&gt;Node6 -->
<g id="edge5_Node000001_Node000006" class="edge">
<title>Node1&#45;&gt;Node6</title>
<g id="a_edge5_Node000001_Node000006"><a xlink:title=" ">
<path fill="none" stroke="#63b8ff" d="M37.28,-114.14C47.66,-110.39 61.04,-105.64 73,-101.62 78.65,-99.73 84.62,-97.78 90.5,-95.89"/>
<polygon fill="#63b8ff" stroke="#63b8ff" points="91.41,-98.96 99.88,-92.59 89.29,-92.29 91.41,-98.96"/>
</a>
</g>
</g>
<!-- Node7 -->
<g id="Node000007" class="node">
<title>Node7</title>
<g id="a_Node000007"><a xlink:href="../../d6/d2c/caesar__cipher_8cpp.html#ae1a3968e7947464bee7714f6d43b7002" target="_top" xlink:title=" ">
<polygon fill="white" stroke="#666666" points="147.12,-56.25 114.62,-56.25 114.62,-37 147.12,-37 147.12,-56.25"/>
<text text-anchor="middle" x="130.88" y="-42.75" font-family="Helvetica,sans-Serif" font-size="10.00">test</text>
</a>
</g>
</g>
<!-- Node1&#45;&gt;Node7 -->
<g id="edge6_Node000001_Node000007" class="edge">
<title>Node1&#45;&gt;Node7</title>
<g id="a_edge6_Node000001_Node000007"><a xlink:title=" ">
<path fill="none" stroke="#63b8ff" d="M26.34,-110.88C35.56,-98.42 53.15,-77 73,-64.62 82.42,-58.75 93.93,-54.64 104.12,-51.85"/>
<polygon fill="#63b8ff" stroke="#63b8ff" points="104.62,-55.08 113.5,-49.31 102.96,-48.28 104.62,-55.08"/>
</a>
</g>
</g>
<!-- Node9 -->
<g id="Node000009" class="node">
<title>Node9</title>
<g id="a_Node000009"><a target="_blank" xlink:href="http://en.cppreference.com/w/cpp/chrono/c/time.html#" xlink:title=" ">
<polygon fill="white" stroke="#666666" points="158,-19.25 103.75,-19.25 103.75,0 158,0 158,-19.25"/>
<text text-anchor="middle" x="130.88" y="-5.75" font-family="Helvetica,sans-Serif" font-size="10.00">std::time</text>
</a>
</g>
</g>
<!-- Node1&#45;&gt;Node9 -->
<g id="edge8_Node000001_Node000009" class="edge">
<title>Node1&#45;&gt;Node9</title>
<g id="a_edge8_Node000001_Node000009"><a xlink:title=" ">
<path fill="none" stroke="#63b8ff" d="M22.54,-110.6C28.81,-91.58 44.99,-50.16 73,-27.62 78.8,-22.96 85.83,-19.49 92.94,-16.92"/>
<polygon fill="#63b8ff" stroke="#63b8ff" points="93.74,-20.03 102.28,-13.76 91.69,-13.34 93.74,-20.03"/>
</a>
</g>
</g>
<!-- Node8 -->
<g id="Node000008" class="node">
<title>Node8</title>
<g id="a_Node000008"><a target="_blank" xlink:href="http://en.cppreference.com/w/cpp/io/manip/endl.html#" xlink:title=" ">
<polygon fill="white" stroke="#666666" points="278.25,-56.25 224.75,-56.25 224.75,-37 278.25,-37 278.25,-56.25"/>
<text text-anchor="middle" x="251.5" y="-42.75" font-family="Helvetica,sans-Serif" font-size="10.00">std::endl</text>
</a>
</g>
</g>
<!-- Node7&#45;&gt;Node8 -->
<g id="edge7_Node000007_Node000008" class="edge">
<title>Node7&#45;&gt;Node8</title>
<g id="a_edge7_Node000007_Node000008"><a xlink:title=" ">
<path fill="none" stroke="#63b8ff" d="M147.38,-46.62C164.15,-46.62 191.45,-46.62 213.76,-46.62"/>
<polygon fill="#63b8ff" stroke="#63b8ff" points="213.56,-50.13 223.56,-46.62 213.56,-43.13 213.56,-50.13"/>
</a>
</g>
</g>
</g>
</svg>
