<?xml version="1.0" encoding="UTF-8" standalone="no"?>
<!DOCTYPE svg PUBLIC "-//W3C//DTD SVG 1.1//EN"
 "http://www.w3.org/Graphics/SVG/1.1/DTD/svg11.dtd">
<!-- Generated by graphviz version 8.1.0 (20230707.0739)
 -->
<!-- Title: main Pages: 1 -->
<svg width="158pt" height="64pt"
 viewBox="0.00 0.00 157.75 64.25" xmlns="http://www.w3.org/2000/svg" xmlns:xlink="http://www.w3.org/1999/xlink">
<g id="graph0" class="graph" transform="scale(1 1) rotate(0) translate(4 60.25)">
<title>main</title>
<!-- Node1 -->
<g id="Node000001" class="node">
<title>Node1</title>
<g id="a_Node000001"><a xlink:title=" ">
<polygon fill="#999999" stroke="#666666" points="37,-37.25 0,-37.25 0,-18 37,-18 37,-37.25"/>
<text text-anchor="middle" x="18.5" y="-23.75" font-family="Helvetica,sans-Serif" font-size="10.00">main</text>
</a>
</g>
</g>
<!-- Node2 -->
<g id="Node000002" class="node">
<title>Node2</title>
<g id="a_Node000002"><a xlink:href="../../df/dd5/binary__search_8cpp.html#a78df202b718cfe3c2c9216979b08298d" target="_top" xlink:title=" ">
<polygon fill="white" stroke="#666666" points="149.75,-56.25 73,-56.25 73,-37 149.75,-37 149.75,-56.25"/>
<text text-anchor="middle" x="111.38" y="-42.75" font-family="Helvetica,sans-Serif" font-size="10.00">binary_search</text>
</a>
</g>
</g>
<!-- Node1&#45;&gt;Node2 -->
<g id="edge1_Node000001_Node000002" class="edge">
<title>Node1&#45;&gt;Node2</title>
<g id="a_edge1_Node000001_Node000002"><a xlink:title=" ">
<path fill="none" stroke="#63b8ff" d="M37.45,-31.38C44.59,-32.87 53.17,-34.66 61.9,-36.49"/>
<polygon fill="#63b8ff" stroke="#63b8ff" points="61.04,-40.09 71.54,-38.71 62.47,-33.24 61.04,-40.09"/>
</a>
</g>
</g>
<!-- Node3 -->
<g id="Node000003" class="node">
<title>Node3</title>
<g id="a_Node000003"><a target="_blank" xlink:href="http://en.cppreference.com/w/cpp/io/manip/endl.html#" xlink:title=" ">
<polygon fill="white" stroke="#666666" points="138.12,-19.25 84.62,-19.25 84.62,0 138.12,0 138.12,-19.25"/>
<text text-anchor="middle" x="111.38" y="-5.75" font-family="Helvetica,sans-Serif" font-size="10.00">std::endl</text>
</a>
</g>
</g>
<!-- Node1&#45;&gt;Node3 -->
<g id="edge2_Node000001_Node000003" class="edge">
<title>Node1&#45;&gt;Node3</title>
<g id="a_edge2_Node000001_Node000003"><a xlink:title=" ">
<path fill="none" stroke="#63b8ff" d="M37.45,-24.07C47.78,-22.02 61.13,-19.38 73.58,-16.91"/>
<polygon fill="#63b8ff" stroke="#63b8ff" points="74.07,-20.19 83.19,-14.81 72.71,-13.32 74.07,-20.19"/>
</a>
</g>
</g>
</g>
</svg>
