<?xml version="1.0" encoding="UTF-8" standalone="no"?>
<!DOCTYPE svg PUBLIC "-//W3C//DTD SVG 1.1//EN"
 "http://www.w3.org/Graphics/SVG/1.1/DTD/svg11.dtd">
<!-- Generated by graphviz version 8.1.0 (20230707.0739)
 -->
<!-- Title: linear_algebra::gram_schmidt::gram_schmidt Pages: 1 -->
<svg width="420pt" height="57pt"
 viewBox="0.00 0.00 419.75 56.50" xmlns="http://www.w3.org/2000/svg" xmlns:xlink="http://www.w3.org/1999/xlink">
<g id="graph0" class="graph" transform="scale(1 1) rotate(0) translate(4 52.5)">
<title>linear_algebra::gram_schmidt::gram_schmidt</title>
<!-- Node1 -->
<g id="Node000001" class="node">
<title>Node1</title>
<g id="a_Node000001"><a xlink:title=" ">
<polygon fill="#999999" stroke="#666666" points="123.25,-30.5 0,-30.5 0,0 123.25,0 123.25,-30.5"/>
<text text-anchor="start" x="8" y="-17" font-family="Helvetica,sans-Serif" font-size="10.00">linear_algebra::gram</text>
<text text-anchor="middle" x="61.62" y="-5.75" font-family="Helvetica,sans-Serif" font-size="10.00">_schmidt::gram_schmidt</text>
</a>
</g>
</g>
<!-- Node2 -->
<g id="Node000002" class="node">
<title>Node2</title>
<g id="a_Node000002"><a xlink:href="../../d5/d33/gram__schmidt_8cpp.html#a46e459aff5eafffb5ad9ceb129b4d274" target="_top" xlink:title=" ">
<polygon fill="white" stroke="#666666" points="263,-30.5 159.25,-30.5 159.25,0 263,0 263,-30.5"/>
<text text-anchor="start" x="167.25" y="-17" font-family="Helvetica,sans-Serif" font-size="10.00">linear_algebra::gram</text>
<text text-anchor="middle" x="211.12" y="-5.75" font-family="Helvetica,sans-Serif" font-size="10.00">_schmidt::projection</text>
</a>
</g>
</g>
<!-- Node1&#45;&gt;Node2 -->
<g id="edge1_Node000001_Node000002" class="edge">
<title>Node1&#45;&gt;Node2</title>
<g id="a_edge1_Node000001_Node000002"><a xlink:title=" ">
<path fill="none" stroke="#63b8ff" d="M123.47,-15.25C131.55,-15.25 139.83,-15.25 147.93,-15.25"/>
<polygon fill="#63b8ff" stroke="#63b8ff" points="147.81,-18.75 157.81,-15.25 147.81,-11.75 147.81,-18.75"/>
</a>
</g>
</g>
<!-- Node2&#45;&gt;Node2 -->
<g id="edge4_Node000002_Node000002" class="edge">
<title>Node2&#45;&gt;Node2</title>
<g id="a_edge4_Node000002_Node000002"><a xlink:title=" ">
<path fill="none" stroke="#63b8ff" d="M185.56,-30.99C180.35,-40.06 188.87,-48.5 211.12,-48.5 223.64,-48.5 231.82,-45.83 235.64,-41.88"/>
<polygon fill="#63b8ff" stroke="#63b8ff" points="239.22,-42.27 236.69,-31.99 232.25,-41.61 239.22,-42.27"/>
</a>
</g>
</g>
<!-- Node3 -->
<g id="Node000003" class="node">
<title>Node3</title>
<g id="a_Node000003"><a xlink:href="../../d5/d33/gram__schmidt_8cpp.html#aed4d308f46ca1d91e348ca260ec1d2fb" target="_top" xlink:title=" ">
<polygon fill="white" stroke="#666666" points="411.75,-30.5 299,-30.5 299,0 411.75,0 411.75,-30.5"/>
<text text-anchor="start" x="307" y="-17" font-family="Helvetica,sans-Serif" font-size="10.00">linear_algebra::gram</text>
<text text-anchor="middle" x="355.38" y="-5.75" font-family="Helvetica,sans-Serif" font-size="10.00">_schmidt::dot_product</text>
</a>
</g>
</g>
<!-- Node2&#45;&gt;Node3 -->
<g id="edge2_Node000002_Node000003" class="edge">
<title>Node2&#45;&gt;Node3</title>
<g id="a_edge2_Node000002_Node000003"><a xlink:title=" ">
<path fill="none" stroke="#63b8ff" d="M263.48,-15.25C271.45,-15.25 279.78,-15.25 288.02,-15.25"/>
<polygon fill="#63b8ff" stroke="#63b8ff" points="287.77,-18.75 297.77,-15.25 287.77,-11.75 287.77,-18.75"/>
</a>
</g>
</g>
<!-- Node3&#45;&gt;Node3 -->
<g id="edge3_Node000003_Node000003" class="edge">
<title>Node3&#45;&gt;Node3</title>
<g id="a_edge3_Node000003_Node000003"><a xlink:title=" ">
<path fill="none" stroke="#63b8ff" d="M329.81,-30.99C324.6,-40.06 333.12,-48.5 355.38,-48.5 367.89,-48.5 376.07,-45.83 379.89,-41.88"/>
<polygon fill="#63b8ff" stroke="#63b8ff" points="383.47,-42.27 380.94,-31.99 376.5,-41.61 383.47,-42.27"/>
</a>
</g>
</g>
</g>
</svg>
