<?xml version="1.0" encoding="UTF-8" standalone="no"?>
<!DOCTYPE svg PUBLIC "-//W3C//DTD SVG 1.1//EN"
 "http://www.w3.org/Graphics/SVG/1.1/DTD/svg11.dtd">
<!-- Generated by graphviz version 8.1.0 (20230707.0739)
 -->
<!-- Title: linear_algebra::gram_schmidt::projection Pages: 1 -->
<svg width="261pt" height="57pt"
 viewBox="0.00 0.00 260.50 56.50" xmlns="http://www.w3.org/2000/svg" xmlns:xlink="http://www.w3.org/1999/xlink">
<g id="graph0" class="graph" transform="scale(1 1) rotate(0) translate(4 52.5)">
<title>linear_algebra::gram_schmidt::projection</title>
<!-- Node1 -->
<g id="Node000001" class="node">
<title>Node1</title>
<g id="a_Node000001"><a xlink:title=" ">
<polygon fill="#999999" stroke="#666666" points="103.75,-30.5 0,-30.5 0,0 103.75,0 103.75,-30.5"/>
<text text-anchor="start" x="8" y="-17" font-family="Helvetica,sans-Serif" font-size="10.00">linear_algebra::gram</text>
<text text-anchor="middle" x="51.88" y="-5.75" font-family="Helvetica,sans-Serif" font-size="10.00">_schmidt::projection</text>
</a>
</g>
</g>
<!-- Node1&#45;&gt;Node1 -->
<g id="edge3_Node000001_Node000001" class="edge">
<title>Node1&#45;&gt;Node1</title>
<g id="a_edge3_Node000001_Node000001"><a xlink:title=" ">
<path fill="none" stroke="#63b8ff" d="M26.31,-30.99C21.1,-40.06 29.62,-48.5 51.88,-48.5 64.39,-48.5 72.57,-45.83 76.39,-41.88"/>
<polygon fill="#63b8ff" stroke="#63b8ff" points="79.97,-42.27 77.44,-31.99 73,-41.61 79.97,-42.27"/>
</a>
</g>
</g>
<!-- Node2 -->
<g id="Node000002" class="node">
<title>Node2</title>
<g id="a_Node000002"><a xlink:href="../../d5/d33/gram__schmidt_8cpp.html#aed4d308f46ca1d91e348ca260ec1d2fb" target="_top" xlink:title=" ">
<polygon fill="white" stroke="#666666" points="252.5,-30.5 139.75,-30.5 139.75,0 252.5,0 252.5,-30.5"/>
<text text-anchor="start" x="147.75" y="-17" font-family="Helvetica,sans-Serif" font-size="10.00">linear_algebra::gram</text>
<text text-anchor="middle" x="196.12" y="-5.75" font-family="Helvetica,sans-Serif" font-size="10.00">_schmidt::dot_product</text>
</a>
</g>
</g>
<!-- Node1&#45;&gt;Node2 -->
<g id="edge1_Node000001_Node000002" class="edge">
<title>Node1&#45;&gt;Node2</title>
<g id="a_edge1_Node000001_Node000002"><a xlink:title=" ">
<path fill="none" stroke="#63b8ff" d="M104.23,-15.25C112.2,-15.25 120.53,-15.25 128.77,-15.25"/>
<polygon fill="#63b8ff" stroke="#63b8ff" points="128.52,-18.75 138.52,-15.25 128.52,-11.75 128.52,-18.75"/>
</a>
</g>
</g>
<!-- Node2&#45;&gt;Node2 -->
<g id="edge2_Node000002_Node000002" class="edge">
<title>Node2&#45;&gt;Node2</title>
<g id="a_edge2_Node000002_Node000002"><a xlink:title=" ">
<path fill="none" stroke="#63b8ff" d="M170.56,-30.99C165.35,-40.06 173.87,-48.5 196.12,-48.5 208.64,-48.5 216.82,-45.83 220.64,-41.88"/>
<polygon fill="#63b8ff" stroke="#63b8ff" points="224.22,-42.27 221.69,-31.99 217.25,-41.61 224.22,-42.27"/>
</a>
</g>
</g>
</g>
</svg>
