<?xml version="1.0" encoding="UTF-8" standalone="no"?>
<!DOCTYPE svg PUBLIC "-//W3C//DTD SVG 1.1//EN"
 "http://www.w3.org/Graphics/SVG/1.1/DTD/svg11.dtd">
<!-- Generated by graphviz version 8.1.0 (20230707.0739)
 -->
<!-- Title: hash_chain Pages: 1 -->
<svg width="221pt" height="257pt"
 viewBox="0.00 0.00 220.62 257.25" xmlns="http://www.w3.org/2000/svg" xmlns:xlink="http://www.w3.org/1999/xlink">

<svg id="main" version="1.1" xmlns="http://www.w3.org/2000/svg" xmlns:xlink="http://www.w3.org/1999/xlink" xml:space="preserve" onload="init(evt)">
<style type="text/css"><![CDATA[
.node, .edge {opacity: 0.7;}
.node.selected, .edge.selected {opacity: 1;}
.edge:hover path { stroke: red; }
.edge:hover polygon { stroke: red; fill: red; }
]]></style>
<script type="application/ecmascript" xlink:href="../../svg.min.js"/>
<svg id="graph" class="graph">
<g id="graph0" class="graph" transform="scale(1 1) rotate(0) translate(4 253.25)">
<title>hash_chain</title>
<!-- Node1 -->
<g id="Node000001" class="node">
<title>Node1</title>
<g id="a_Node000001"><a xlink:title="Chain class with a given modulus.">
<polygon fill="#999999" stroke="#666666" points="101.25,-19.25 35.75,-19.25 35.75,0 101.25,0 101.25,-19.25"/>
<text text-anchor="middle" x="68.5" y="-5.75" font-family="Helvetica,sans-Serif" font-size="10.00">hash_chain</text>
</a>
</g>
</g>
<!-- Node2 -->
<g id="Node000002" class="node">
<title>Node2</title>
<g id="a_Node000002"><a target="_blank" xlink:href="http://en.cppreference.com/w/cpp/memory/shared_ptr.html" xlink:title=" ">
<polygon fill="white" stroke="#666666" points="115,-145.5 0,-145.5 0,-115 115,-115 115,-145.5"/>
<text text-anchor="start" x="8" y="-132" font-family="Helvetica,sans-Serif" font-size="10.00">std::shared_ptr&lt; struct</text>
<text text-anchor="middle" x="57.5" y="-120.75" font-family="Helvetica,sans-Serif" font-size="10.00"> Node &gt;</text>
</a>
</g>
</g>
<!-- Node2&#45;&gt;Node1 -->
<g id="edge1_Node000001_Node000002" class="edge">
<title>Node2&#45;&gt;Node1</title>
<g id="a_edge1_Node000001_Node000002"><a xlink:title=" ">
<path fill="none" stroke="#9a32cd" stroke-dasharray="5,2" d="M58.93,-103.6C59.65,-92.23 60.6,-78.68 61.75,-66.5 63.31,-49.96 65.77,-30.75 67.25,-19.71"/>
<polygon fill="#9a32cd" stroke="#9a32cd" points="55.38,-103.33 58.28,-113.52 62.37,-103.75 55.38,-103.33"/>
</a>
</g>
<text text-anchor="middle" x="73.38" y="-77.88" font-family="Helvetica,sans-Serif" font-size="10.00" fill="grey"> next</text>
</g>
<!-- Node3 -->
<g id="Node000003" class="node">
<title>Node3</title>
<g id="a_Node000003"><a xlink:href="../../db/d8b/struct_node.html" target="_top" xlink:title=" ">
<polygon fill="white" stroke="#bfbfbf" points="98.12,-249.25 58.88,-249.25 58.88,-230 98.12,-230 98.12,-249.25"/>
<text text-anchor="middle" x="78.5" y="-235.75" font-family="Helvetica,sans-Serif" font-size="10.00">Node</text>
</a>
</g>
</g>
<!-- Node3&#45;&gt;Node2 -->
<g id="edge2_Node000002_Node000003" class="edge">
<title>Node3&#45;&gt;Node2</title>
<g id="a_edge2_Node000002_Node000003"><a xlink:title=" ">
<path fill="none" stroke="#9a32cd" stroke-dasharray="5,2" d="M74.72,-219.29C70.59,-198.19 64.08,-164.91 60.36,-145.88"/>
<polygon fill="#9a32cd" stroke="#9a32cd" points="71.43,-219.7 76.78,-228.84 78.3,-218.35 71.43,-219.7"/>
</a>
</g>
<text text-anchor="middle" x="80.62" y="-202.5" font-family="Helvetica,sans-Serif" font-size="10.00" fill="grey"> ptr</text>
</g>
<!-- Node3&#45;&gt;Node3 -->
<g id="edge3_Node000003_Node000003" class="edge">
<title>Node3&#45;&gt;Node3</title>
<g id="a_edge3_Node000003_Node000003"><a xlink:title=" ">
<path fill="none" stroke="#9a32cd" stroke-dasharray="5,2" d="M109.12,-245.17C113.32,-244.25 116.12,-242.4 116.12,-239.62 116.12,-234.82 107.74,-232.79 98.24,-233.54"/>
<polygon fill="#9a32cd" stroke="#9a32cd" points="109.06,-241.72 99.24,-245.71 109.4,-248.71 109.06,-241.72"/>
</a>
</g>
<text text-anchor="middle" x="127" y="-235.75" font-family="Helvetica,sans-Serif" font-size="10.00" fill="grey"> next</text>
</g>
<!-- Node5 -->
<g id="Node000005" class="node">
<title>Node5</title>
<g id="a_Node000005"><a target="_blank" xlink:href="http://en.cppreference.com/w/cpp/memory/shared_ptr.html" xlink:title=" ">
<polygon fill="white" stroke="#666666" points="211.75,-182.75 89.25,-182.75 89.25,-163.5 211.75,-163.5 211.75,-182.75"/>
<text text-anchor="middle" x="150.5" y="-169.25" font-family="Helvetica,sans-Serif" font-size="10.00">std::shared_ptr&lt; Node &gt;</text>
</a>
</g>
</g>
<!-- Node3&#45;&gt;Node5 -->
<g id="edge6_Node000005_Node000003" class="edge">
<title>Node3&#45;&gt;Node5</title>
<g id="a_edge6_Node000005_Node000003"><a xlink:title=" ">
<path fill="none" stroke="#9a32cd" stroke-dasharray="5,2" d="M96.45,-222.54C110.4,-210.05 129.22,-193.19 140.57,-183.02"/>
<polygon fill="#9a32cd" stroke="#9a32cd" points="94.62,-219.38 89.51,-228.66 99.3,-224.59 94.62,-219.38"/>
</a>
</g>
<text text-anchor="middle" x="125.62" y="-202.5" font-family="Helvetica,sans-Serif" font-size="10.00" fill="grey"> ptr</text>
</g>
<!-- Node4 -->
<g id="Node000004" class="node">
<title>Node4</title>
<g id="a_Node000004"><a target="_blank" xlink:href="http://en.cppreference.com/w/cpp/container/vector.html" xlink:title=" ">
<polygon fill="white" stroke="#666666" points="212.62,-97 92.38,-97 92.38,-66.5 212.62,-66.5 212.62,-97"/>
<text text-anchor="start" x="100.38" y="-83.5" font-family="Helvetica,sans-Serif" font-size="10.00">std::vector&lt; std::shared</text>
<text text-anchor="middle" x="152.5" y="-72.25" font-family="Helvetica,sans-Serif" font-size="10.00">_ptr&lt; Node &gt; &gt;</text>
</a>
</g>
</g>
<!-- Node4&#45;&gt;Node1 -->
<g id="edge4_Node000001_Node000004" class="edge">
<title>Node4&#45;&gt;Node1</title>
<g id="a_edge4_Node000001_Node000004"><a xlink:title=" ">
<path fill="none" stroke="#9a32cd" stroke-dasharray="5,2" d="M127.08,-59.53C110.96,-46.07 90.96,-29.38 78.99,-19.38"/>
<polygon fill="#9a32cd" stroke="#9a32cd" points="124.18,-62.5 134.1,-66.22 128.66,-57.12 124.18,-62.5"/>
</a>
</g>
<text text-anchor="middle" x="124.5" y="-39" font-family="Helvetica,sans-Serif" font-size="10.00" fill="grey"> head</text>
</g>
<!-- Node5&#45;&gt;Node4 -->
<g id="edge5_Node000004_Node000005" class="edge">
<title>Node5&#45;&gt;Node4</title>
<g id="a_edge5_Node000004_Node000005"><a xlink:title=" ">
<path fill="none" stroke="#9a32cd" stroke-dasharray="5,2" d="M150.94,-152.51C151.31,-135.81 151.84,-112.2 152.18,-97.18"/>
<polygon fill="#9a32cd" stroke="#9a32cd" points="147.42,-152.15 150.7,-162.23 154.42,-152.31 147.42,-152.15"/>
</a>
</g>
<text text-anchor="middle" x="172.88" y="-126.38" font-family="Helvetica,sans-Serif" font-size="10.00" fill="grey"> elements</text>
</g>
</g>
</svg>
</svg>

<style type='text/css'>
<![CDATA[
[data-mouse-over-selected='false'] { opacity: 0.7; }
[data-mouse-over-selected='true']  { opacity: 1.0; }
]]>
</style>
<script type="application/ecmascript"><![CDATA[
document.addEventListener('DOMContentLoaded', (event) => {
  highlightEdges();
  highlightAdjacentNodes();
});
]]></script>
</svg>
