<?xml version="1.0" encoding="UTF-8" standalone="no"?>
<!DOCTYPE svg PUBLIC "-//W3C//DTD SVG 1.1//EN"
 "http://www.w3.org/Graphics/SVG/1.1/DTD/svg11.dtd">
<!-- Generated by graphviz version 8.1.0 (20230707.0739)
 -->
<!-- Title: RBtree Pages: 1 -->
<svg width="128pt" height="153pt"
 viewBox="0.00 0.00 127.50 153.25" xmlns="http://www.w3.org/2000/svg" xmlns:xlink="http://www.w3.org/1999/xlink">
<g id="graph0" class="graph" transform="scale(1 1) rotate(0) translate(4 149.25)">
<title>RBtree</title>
<!-- Node1 -->
<g id="Node000001" class="node">
<title>Node1</title>
<g id="a_Node000001"><a xlink:title=" ">
<polygon fill="#999999" stroke="#666666" points="60.62,-19.25 13.88,-19.25 13.88,0 60.62,0 60.62,-19.25"/>
<text text-anchor="middle" x="37.25" y="-5.75" font-family="Helvetica,sans-Serif" font-size="10.00">RBtree</text>
</a>
</g>
</g>
<!-- Node2 -->
<g id="Node000002" class="node">
<title>Node2</title>
<g id="a_Node000002"><a xlink:href="../../d5/da1/structnode.html" target="_top" xlink:title=" ">
<polygon fill="white" stroke="#666666" points="74.5,-121.12 0,-121.12 0,-101.88 74.5,-101.88 74.5,-121.12"/>
<text text-anchor="middle" x="37.25" y="-107.62" font-family="Helvetica,sans-Serif" font-size="10.00">node&lt; Kind &gt;</text>
</a>
</g>
</g>
<!-- Node2&#45;&gt;Node1 -->
<g id="edge1_Node000001_Node000002" class="edge">
<title>Node2&#45;&gt;Node1</title>
<g id="a_edge1_Node000001_Node000002"><a xlink:title=" ">
<path fill="none" stroke="#9a32cd" stroke-dasharray="5,2" d="M37.25,-90.82C37.25,-69.25 37.25,-35.58 37.25,-19.61"/>
<polygon fill="#9a32cd" stroke="#9a32cd" points="33.75,-90.64 37.25,-100.64 40.75,-90.64 33.75,-90.64"/>
</a>
</g>
<text text-anchor="middle" x="45.5" y="-50.25" font-family="Helvetica,sans-Serif" font-size="10.00" fill="grey"> q</text>
<text text-anchor="middle" x="45.5" y="-39" font-family="Helvetica,sans-Serif" font-size="10.00" fill="grey">root</text>
</g>
<!-- Node2&#45;&gt;Node2 -->
<g id="edge2_Node000002_Node000002" class="edge">
<title>Node2&#45;&gt;Node2</title>
<g id="a_edge2_Node000002_Node000002"><a xlink:title=" ">
<path fill="none" stroke="#9a32cd" stroke-dasharray="5,2" d="M68.58,-123.21C81.54,-124 92.5,-120.09 92.5,-111.5 92.5,-100.61 74.89,-97.25 57.94,-101.42"/>
<polygon fill="#9a32cd" stroke="#9a32cd" points="69.35,-119.64 58.94,-121.58 68.29,-126.56 69.35,-119.64"/>
</a>
</g>
<text text-anchor="middle" x="106" y="-135.75" font-family="Helvetica,sans-Serif" font-size="10.00" fill="grey"> left</text>
<text text-anchor="middle" x="106" y="-124.5" font-family="Helvetica,sans-Serif" font-size="10.00" fill="grey">link</text>
<text text-anchor="middle" x="106" y="-113.25" font-family="Helvetica,sans-Serif" font-size="10.00" fill="grey">next</text>
<text text-anchor="middle" x="106" y="-102" font-family="Helvetica,sans-Serif" font-size="10.00" fill="grey">parent</text>
<text text-anchor="middle" x="106" y="-90.75" font-family="Helvetica,sans-Serif" font-size="10.00" fill="grey">prev</text>
<text text-anchor="middle" x="106" y="-79.5" font-family="Helvetica,sans-Serif" font-size="10.00" fill="grey">right</text>
</g>
</g>
</svg>
