<?xml version="1.0" encoding="UTF-8" standalone="no"?>
<!DOCTYPE svg PUBLIC "-//W3C//DTD SVG 1.1//EN"
 "http://www.w3.org/Graphics/SVG/1.1/DTD/svg11.dtd">
<!-- Generated by graphviz version 8.1.0 (20230707.0739)
 -->
<!-- Title: main Pages: 1 -->
<svg width="438pt" height="230pt"
 viewBox="0.00 0.00 438.25 230.25" xmlns="http://www.w3.org/2000/svg" xmlns:xlink="http://www.w3.org/1999/xlink">
<g id="graph0" class="graph" transform="scale(1 1) rotate(0) translate(4 226.25)">
<title>main</title>
<!-- Node1 -->
<g id="Node000001" class="node">
<title>Node1</title>
<g id="a_Node000001"><a xlink:title=" ">
<polygon fill="#999999" stroke="#666666" points="37,-167.25 0,-167.25 0,-148 37,-148 37,-167.25"/>
<text text-anchor="middle" x="18.5" y="-153.75" font-family="Helvetica,sans-Serif" font-size="10.00">main</text>
</a>
</g>
</g>
<!-- Node2 -->
<g id="Node000002" class="node">
<title>Node2</title>
<g id="a_Node000002"><a xlink:href="../../d8/dee/avltree_8cpp.html#a9977e004a42fade067836b295a0aa7c1" target="_top" xlink:title=" ">
<polygon fill="white" stroke="#666666" points="138.5,-167.25 73,-167.25 73,-148 138.5,-148 138.5,-167.25"/>
<text text-anchor="middle" x="105.75" y="-153.75" font-family="Helvetica,sans-Serif" font-size="10.00">deleteNode</text>
</a>
</g>
</g>
<!-- Node1&#45;&gt;Node2 -->
<g id="edge1_Node000001_Node000002" class="edge">
<title>Node1&#45;&gt;Node2</title>
<g id="a_edge1_Node000001_Node000002"><a xlink:title=" ">
<path fill="none" stroke="#63b8ff" d="M37.16,-157.62C44.37,-157.62 53.03,-157.62 61.72,-157.62"/>
<polygon fill="#63b8ff" stroke="#63b8ff" points="61.64,-161.13 71.64,-157.62 61.64,-154.13 61.64,-161.13"/>
</a>
</g>
</g>
<!-- Node5 -->
<g id="Node000005" class="node">
<title>Node5</title>
<g id="a_Node000005"><a xlink:href="../../d8/dee/avltree_8cpp.html#a2473fe7416332495b2678ebe89652e4b" target="_top" xlink:title=" ">
<polygon fill="white" stroke="#666666" points="125.75,-93.25 85.75,-93.25 85.75,-74 125.75,-74 125.75,-93.25"/>
<text text-anchor="middle" x="105.75" y="-79.75" font-family="Helvetica,sans-Serif" font-size="10.00">insert</text>
</a>
</g>
</g>
<!-- Node1&#45;&gt;Node5 -->
<g id="edge6_Node000001_Node000005" class="edge">
<title>Node1&#45;&gt;Node5</title>
<g id="a_edge6_Node000001_Node000005"><a xlink:title=" ">
<path fill="none" stroke="#63b8ff" d="M31,-147.65C44.85,-135.62 68.36,-115.22 85.11,-100.68"/>
<polygon fill="#63b8ff" stroke="#63b8ff" points="86.91,-102.88 92.16,-93.68 82.32,-97.6 86.91,-102.88"/>
</a>
</g>
</g>
<!-- Node12 -->
<g id="Node000012" class="node">
<title>Node12</title>
<g id="a_Node000012"><a xlink:href="../../d8/dee/avltree_8cpp.html#ae197eb50188fb761346952b9b5f6be59" target="_top" xlink:title=" ">
<polygon fill="white" stroke="#666666" points="135.88,-222.25 75.62,-222.25 75.62,-203 135.88,-203 135.88,-222.25"/>
<text text-anchor="middle" x="105.75" y="-208.75" font-family="Helvetica,sans-Serif" font-size="10.00">levelOrder</text>
</a>
</g>
</g>
<!-- Node1&#45;&gt;Node12 -->
<g id="edge15_Node000001_Node000012" class="edge">
<title>Node1&#45;&gt;Node12</title>
<g id="a_edge15_Node000001_Node000012"><a xlink:title=" ">
<path fill="none" stroke="#63b8ff" d="M33.35,-167.71C44.02,-175.35 59.23,-185.98 73,-194.62 74.34,-195.47 75.72,-196.32 77.13,-197.16"/>
<polygon fill="#63b8ff" stroke="#63b8ff" points="75.05,-200.59 85.45,-202.62 78.59,-194.55 75.05,-200.59"/>
</a>
</g>
</g>
<!-- Node2&#45;&gt;Node2 -->
<g id="edge3_Node000002_Node000002" class="edge">
<title>Node2&#45;&gt;Node2</title>
<g id="a_edge3_Node000002_Node000002"><a xlink:title=" ">
<path fill="none" stroke="#63b8ff" d="M92.09,-167.54C85.86,-176.15 90.41,-185.25 105.75,-185.25 114.38,-185.25 119.59,-182.37 121.39,-178.32"/>
<polygon fill="#63b8ff" stroke="#63b8ff" points="124.66,-177.74 119.41,-168.54 117.78,-179.01 124.66,-177.74"/>
</a>
</g>
</g>
<!-- Node3 -->
<g id="Node000003" class="node">
<title>Node3</title>
<g id="a_Node000003"><a target="_blank" xlink:href="http://en.cppreference.com/w/cpp/container/vector/data.html#" xlink:title=" ">
<polygon fill="white" stroke="#666666" points="261.75,-222.25 174.5,-222.25 174.5,-203 261.75,-203 261.75,-222.25"/>
<text text-anchor="middle" x="218.12" y="-208.75" font-family="Helvetica,sans-Serif" font-size="10.00">std::vector::data</text>
</a>
</g>
</g>
<!-- Node2&#45;&gt;Node3 -->
<g id="edge2_Node000002_Node000003" class="edge">
<title>Node2&#45;&gt;Node3</title>
<g id="a_edge2_Node000002_Node000003"><a xlink:title=" ">
<path fill="none" stroke="#63b8ff" d="M124.05,-167.7C137.59,-175.43 157,-186.18 174.5,-194.62 176.97,-195.82 179.54,-197.01 182.13,-198.18"/>
<polygon fill="#63b8ff" stroke="#63b8ff" points="180.58,-201.76 191.14,-202.57 183.39,-195.35 180.58,-201.76"/>
</a>
</g>
</g>
<!-- Node4 -->
<g id="Node000004" class="node">
<title>Node4</title>
<g id="a_Node000004"><a xlink:href="../../d8/dee/avltree_8cpp.html#a5fa160a678a34dd51c0aea1c0c00ed5e" target="_top" xlink:title=" ">
<polygon fill="white" stroke="#666666" points="246,-167.25 190.25,-167.25 190.25,-148 246,-148 246,-167.25"/>
<text text-anchor="middle" x="218.12" y="-153.75" font-family="Helvetica,sans-Serif" font-size="10.00">minValue</text>
</a>
</g>
</g>
<!-- Node2&#45;&gt;Node4 -->
<g id="edge4_Node000002_Node000004" class="edge">
<title>Node2&#45;&gt;Node4</title>
<g id="a_edge4_Node000002_Node000004"><a xlink:title=" ">
<path fill="none" stroke="#63b8ff" d="M138.97,-157.62C151.47,-157.62 165.89,-157.62 178.9,-157.62"/>
<polygon fill="#63b8ff" stroke="#63b8ff" points="178.9,-161.13 188.9,-157.62 178.9,-154.13 178.9,-161.13"/>
</a>
</g>
</g>
<!-- Node4&#45;&gt;Node4 -->
<g id="edge5_Node000004_Node000004" class="edge">
<title>Node4&#45;&gt;Node4</title>
<g id="a_edge5_Node000004_Node000004"><a xlink:title=" ">
<path fill="none" stroke="#63b8ff" d="M202.35,-167.54C195.16,-176.15 200.42,-185.25 218.12,-185.25 228.36,-185.25 234.44,-182.21 236.35,-177.98"/>
<polygon fill="#63b8ff" stroke="#63b8ff" points="239.6,-177.47 233.9,-168.54 232.78,-179.07 239.6,-177.47"/>
</a>
</g>
</g>
<!-- Node5&#45;&gt;Node5 -->
<g id="edge12_Node000005_Node000005" class="edge">
<title>Node5&#45;&gt;Node5</title>
<g id="a_edge12_Node000005_Node000005"><a xlink:title=" ">
<path fill="none" stroke="#63b8ff" d="M92.09,-93.54C85.86,-102.15 90.41,-111.25 105.75,-111.25 114.38,-111.25 119.59,-108.37 121.39,-104.32"/>
<polygon fill="#63b8ff" stroke="#63b8ff" points="124.66,-103.74 119.41,-94.54 117.78,-105.01 124.66,-103.74"/>
</a>
</g>
</g>
<!-- Node6 -->
<g id="Node000006" class="node">
<title>Node6</title>
<g id="a_Node000006"><a xlink:href="../../d8/dee/avltree_8cpp.html#a48d897353aeb6a721dbc6b6c57e035e6" target="_top" xlink:title=" ">
<polygon fill="white" stroke="#666666" points="251.25,-130.25 185,-130.25 185,-111 251.25,-111 251.25,-130.25"/>
<text text-anchor="middle" x="218.12" y="-116.75" font-family="Helvetica,sans-Serif" font-size="10.00">createNode</text>
</a>
</g>
</g>
<!-- Node5&#45;&gt;Node6 -->
<g id="edge7_Node000005_Node000006" class="edge">
<title>Node5&#45;&gt;Node6</title>
<g id="a_edge7_Node000005_Node000006"><a xlink:title=" ">
<path fill="none" stroke="#63b8ff" d="M126.23,-90.15C140.17,-94.83 159.44,-101.29 176.65,-107.06"/>
<polygon fill="#63b8ff" stroke="#63b8ff" points="175.43,-110.68 186.03,-110.54 177.66,-104.04 175.43,-110.68"/>
</a>
</g>
</g>
<!-- Node7 -->
<g id="Node000007" class="node">
<title>Node7</title>
<g id="a_Node000007"><a xlink:href="../../d8/dee/avltree_8cpp.html#aaa457ffec24c9643f2768e7a65e96546" target="_top" xlink:title=" ">
<polygon fill="white" stroke="#666666" points="250.5,-93.25 185.75,-93.25 185.75,-74 250.5,-74 250.5,-93.25"/>
<text text-anchor="middle" x="218.12" y="-79.75" font-family="Helvetica,sans-Serif" font-size="10.00">getBalance</text>
</a>
</g>
</g>
<!-- Node5&#45;&gt;Node7 -->
<g id="edge8_Node000005_Node000007" class="edge">
<title>Node5&#45;&gt;Node7</title>
<g id="a_edge8_Node000005_Node000007"><a xlink:title=" ">
<path fill="none" stroke="#63b8ff" d="M126.23,-83.62C139.63,-83.62 157.96,-83.62 174.65,-83.62"/>
<polygon fill="#63b8ff" stroke="#63b8ff" points="174.31,-87.13 184.31,-83.62 174.31,-80.13 174.31,-87.13"/>
</a>
</g>
</g>
<!-- Node10 -->
<g id="Node000010" class="node">
<title>Node10</title>
<g id="a_Node000010"><a xlink:href="../../d8/dee/avltree_8cpp.html#a473eee1803e4e44a54d685e4b0eef5a6" target="_top" xlink:title=" ">
<polygon fill="white" stroke="#666666" points="247.5,-56.25 188.75,-56.25 188.75,-37 247.5,-37 247.5,-56.25"/>
<text text-anchor="middle" x="218.12" y="-42.75" font-family="Helvetica,sans-Serif" font-size="10.00">leftRotate</text>
</a>
</g>
</g>
<!-- Node5&#45;&gt;Node10 -->
<g id="edge13_Node000005_Node000010" class="edge">
<title>Node5&#45;&gt;Node10</title>
<g id="a_edge13_Node000005_Node000010"><a xlink:title=" ">
<path fill="none" stroke="#63b8ff" d="M126.23,-77.1C140.61,-72.27 160.66,-65.55 178.28,-59.65"/>
<polygon fill="#63b8ff" stroke="#63b8ff" points="178.93,-62.78 187.3,-56.29 176.71,-56.15 178.93,-62.78"/>
</a>
</g>
</g>
<!-- Node11 -->
<g id="Node000011" class="node">
<title>Node11</title>
<g id="a_Node000011"><a xlink:href="../../d8/dee/avltree_8cpp.html#adfc1d482a564c041756719667b955b8c" target="_top" xlink:title=" ">
<polygon fill="white" stroke="#666666" points="250.12,-19.25 186.12,-19.25 186.12,0 250.12,0 250.12,-19.25"/>
<text text-anchor="middle" x="218.12" y="-5.75" font-family="Helvetica,sans-Serif" font-size="10.00">rightRotate</text>
</a>
</g>
</g>
<!-- Node5&#45;&gt;Node11 -->
<g id="edge14_Node000005_Node000011" class="edge">
<title>Node5&#45;&gt;Node11</title>
<g id="a_edge14_Node000005_Node000011"><a xlink:title=" ">
<path fill="none" stroke="#63b8ff" d="M116.6,-73.89C129.19,-61.84 152.06,-41.24 174.5,-27.62 176.3,-26.53 178.18,-25.47 180.11,-24.45"/>
<polygon fill="#63b8ff" stroke="#63b8ff" points="181.45,-27.21 188.93,-19.71 178.41,-20.91 181.45,-27.21"/>
</a>
</g>
</g>
<!-- Node8 -->
<g id="Node000008" class="node">
<title>Node8</title>
<g id="a_Node000008"><a xlink:href="../../d8/dee/avltree_8cpp.html#ae4a66d8b0c2b0d626aea45977e358c83" target="_top" xlink:title=" ">
<polygon fill="white" stroke="#666666" points="340,-93.25 297.75,-93.25 297.75,-74 340,-74 340,-93.25"/>
<text text-anchor="middle" x="318.88" y="-79.75" font-family="Helvetica,sans-Serif" font-size="10.00">height</text>
</a>
</g>
</g>
<!-- Node7&#45;&gt;Node8 -->
<g id="edge9_Node000007_Node000008" class="edge">
<title>Node7&#45;&gt;Node8</title>
<g id="a_edge9_Node000007_Node000008"><a xlink:title=" ">
<path fill="none" stroke="#63b8ff" d="M250.91,-83.62C262.33,-83.62 275.19,-83.62 286.57,-83.62"/>
<polygon fill="#63b8ff" stroke="#63b8ff" points="286.34,-87.13 296.34,-83.62 286.34,-80.13 286.34,-87.13"/>
</a>
</g>
</g>
<!-- Node8&#45;&gt;Node8 -->
<g id="edge10_Node000008_Node000008" class="edge">
<title>Node8&#45;&gt;Node8</title>
<g id="a_edge10_Node000008_Node000008"><a xlink:title=" ">
<path fill="none" stroke="#63b8ff" d="M305.69,-93.54C299.67,-102.15 304.07,-111.25 318.88,-111.25 327.21,-111.25 332.24,-108.37 333.98,-104.32"/>
<polygon fill="#63b8ff" stroke="#63b8ff" points="337.26,-103.77 332.06,-94.54 330.37,-105 337.26,-103.77"/>
</a>
</g>
</g>
<!-- Node9 -->
<g id="Node000009" class="node">
<title>Node9</title>
<g id="a_Node000009"><a target="_blank" xlink:href="http://en.cppreference.com/w/cpp/algorithm/max.html#" xlink:title=" ">
<polygon fill="white" stroke="#666666" points="430.25,-93.25 376,-93.25 376,-74 430.25,-74 430.25,-93.25"/>
<text text-anchor="middle" x="403.12" y="-79.75" font-family="Helvetica,sans-Serif" font-size="10.00">std::max</text>
</a>
</g>
</g>
<!-- Node8&#45;&gt;Node9 -->
<g id="edge11_Node000008_Node000009" class="edge">
<title>Node8&#45;&gt;Node9</title>
<g id="a_edge11_Node000008_Node000009"><a xlink:title=" ">
<path fill="none" stroke="#63b8ff" d="M340.21,-83.62C347.62,-83.62 356.25,-83.62 364.67,-83.62"/>
<polygon fill="#63b8ff" stroke="#63b8ff" points="364.51,-87.13 374.51,-83.62 364.51,-80.13 364.51,-87.13"/>
</a>
</g>
</g>
<!-- Node12&#45;&gt;Node3 -->
<g id="edge16_Node000012_Node000003" class="edge">
<title>Node12&#45;&gt;Node3</title>
<g id="a_edge16_Node000012_Node000003"><a xlink:title=" ">
<path fill="none" stroke="#63b8ff" d="M136.33,-212.62C144.68,-212.62 154.04,-212.62 163.35,-212.62"/>
<polygon fill="#63b8ff" stroke="#63b8ff" points="163.18,-216.13 173.18,-212.62 163.18,-209.13 163.18,-216.13"/>
</a>
</g>
</g>
</g>
</svg>
