<?xml version="1.0" encoding="UTF-8" standalone="no"?>
<!DOCTYPE svg PUBLIC "-//W3C//DTD SVG 1.1//EN"
 "http://www.w3.org/Graphics/SVG/1.1/DTD/svg11.dtd">
<!-- Generated by graphviz version 8.1.0 (20230707.0739)
 -->
<!-- Title: test5 Pages: 1 -->
<svg width="446pt" height="138pt"
 viewBox="0.00 0.00 445.50 138.25" xmlns="http://www.w3.org/2000/svg" xmlns:xlink="http://www.w3.org/1999/xlink">
<g id="graph0" class="graph" transform="scale(1 1) rotate(0) translate(4 134.25)">
<title>test5</title>
<!-- Node1 -->
<g id="Node000001" class="node">
<title>Node1</title>
<g id="a_Node000001"><a xlink:title="Test the computed postorder with the actual postorder on negative value.">
<polygon fill="#999999" stroke="#666666" points="37.75,-93.25 0,-93.25 0,-74 37.75,-74 37.75,-93.25"/>
<text text-anchor="middle" x="18.88" y="-79.75" font-family="Helvetica,sans-Serif" font-size="10.00">test5</text>
</a>
</g>
</g>
<!-- Node2 -->
<g id="Node000002" class="node">
<title>Node2</title>
<g id="a_Node000002"><a target="_blank" xlink:href="http://en.cppreference.com/w/cpp/io/manip/endl.html#" xlink:title=" ">
<polygon fill="white" stroke="#666666" points="410.5,-130.25 357,-130.25 357,-111 410.5,-111 410.5,-130.25"/>
<text text-anchor="middle" x="383.75" y="-116.75" font-family="Helvetica,sans-Serif" font-size="10.00">std::endl</text>
</a>
</g>
</g>
<!-- Node1&#45;&gt;Node2 -->
<g id="edge1_Node000001_Node000002" class="edge">
<title>Node1&#45;&gt;Node2</title>
<g id="a_edge1_Node000001_Node000002"><a xlink:title=" ">
<path fill="none" stroke="#63b8ff" d="M37.83,-85.67C48.3,-86.86 61.77,-88.36 73.75,-89.62 172.02,-100.03 287.96,-111.42 345.9,-117.06"/>
<polygon fill="#63b8ff" stroke="#63b8ff" points="345.4,-120.62 355.7,-118.11 346.08,-113.66 345.4,-120.62"/>
</a>
</g>
</g>
<!-- Node3 -->
<g id="Node000003" class="node">
<title>Node3</title>
<g id="a_Node000003"><a xlink:href="../../d9/d12/classothers_1_1iterative__tree__traversals_1_1_binary_tree.html#a636a07c90b7f312bb86d2ec104efca25" target="_top" xlink:title="postOrderIterative() function that will perform the postorder traversal iteratively,...">
<polygon fill="white" stroke="#666666" points="191,-80.5 73.75,-80.5 73.75,-38.75 191,-38.75 191,-80.5"/>
<text text-anchor="start" x="81.75" y="-67" font-family="Helvetica,sans-Serif" font-size="10.00">others::iterative_tree</text>
<text text-anchor="start" x="81.75" y="-55.75" font-family="Helvetica,sans-Serif" font-size="10.00">_traversals::BinaryTree</text>
<text text-anchor="middle" x="132.38" y="-44.5" font-family="Helvetica,sans-Serif" font-size="10.00">::postOrderIterative</text>
</a>
</g>
</g>
<!-- Node1&#45;&gt;Node3 -->
<g id="edge2_Node000001_Node000003" class="edge">
<title>Node1&#45;&gt;Node3</title>
<g id="a_edge2_Node000001_Node000003"><a xlink:title=" ">
<path fill="none" stroke="#63b8ff" d="M37.79,-79.77C44.95,-78.23 53.68,-76.35 62.9,-74.36"/>
<polygon fill="#63b8ff" stroke="#63b8ff" points="63.42,-77.62 72.46,-72.09 61.95,-70.77 63.42,-77.62"/>
</a>
</g>
</g>
<!-- Node4 -->
<g id="Node000004" class="node">
<title>Node4</title>
<g id="a_Node000004"><a xlink:href="../../d1/dc2/classstack.html#a6cd4b95d5de00d41b2491392338384dc" target="_top" xlink:title=" ">
<polygon fill="white" stroke="#666666" points="291.38,-93.25 229.62,-93.25 229.62,-74 291.38,-74 291.38,-93.25"/>
<text text-anchor="middle" x="260.5" y="-79.75" font-family="Helvetica,sans-Serif" font-size="10.00">stack::pop</text>
</a>
</g>
</g>
<!-- Node3&#45;&gt;Node4 -->
<g id="edge3_Node000003_Node000004" class="edge">
<title>Node3&#45;&gt;Node4</title>
<g id="a_edge3_Node000003_Node000004"><a xlink:title=" ">
<path fill="none" stroke="#63b8ff" d="M191.27,-70.64C200.47,-72.39 209.81,-74.17 218.52,-75.83"/>
<polygon fill="#63b8ff" stroke="#63b8ff" points="217.66,-79.42 228.14,-77.85 218.97,-72.54 217.66,-79.42"/>
</a>
</g>
</g>
<!-- Node6 -->
<g id="Node000006" class="node">
<title>Node6</title>
<g id="a_Node000006"><a xlink:href="../../d1/dc2/classstack.html#a5705c3926dcf5fd3f9c964467a50b81d" target="_top" xlink:title=" ">
<polygon fill="white" stroke="#666666" points="294,-56.25 227,-56.25 227,-37 294,-37 294,-56.25"/>
<text text-anchor="middle" x="260.5" y="-42.75" font-family="Helvetica,sans-Serif" font-size="10.00">stack::push</text>
</a>
</g>
</g>
<!-- Node3&#45;&gt;Node6 -->
<g id="edge6_Node000003_Node000006" class="edge">
<title>Node3&#45;&gt;Node6</title>
<g id="a_edge6_Node000003_Node000006"><a xlink:title=" ">
<path fill="none" stroke="#63b8ff" d="M191.27,-53.66C199.54,-52.8 207.94,-51.94 215.88,-51.12"/>
<polygon fill="#63b8ff" stroke="#63b8ff" points="216.15,-54.51 225.74,-50 215.43,-47.55 216.15,-54.51"/>
</a>
</g>
</g>
<!-- Node7 -->
<g id="Node000007" class="node">
<title>Node7</title>
<g id="a_Node000007"><a xlink:href="../../d1/dc2/classstack.html#a21c0bb6ce7dcfe445cc12031977ea344" target="_top" xlink:title=" ">
<polygon fill="white" stroke="#666666" points="290.25,-19.25 230.75,-19.25 230.75,0 290.25,0 290.25,-19.25"/>
<text text-anchor="middle" x="260.5" y="-5.75" font-family="Helvetica,sans-Serif" font-size="10.00">stack::top</text>
</a>
</g>
</g>
<!-- Node3&#45;&gt;Node7 -->
<g id="edge7_Node000003_Node000007" class="edge">
<title>Node3&#45;&gt;Node7</title>
<g id="a_edge7_Node000003_Node000007"><a xlink:title=" ">
<path fill="none" stroke="#63b8ff" d="M187.23,-38.28C199.74,-33.32 212.74,-28.16 224.21,-23.62"/>
<polygon fill="#63b8ff" stroke="#63b8ff" points="225.25,-26.57 233.25,-19.63 222.67,-20.07 225.25,-26.57"/>
</a>
</g>
</g>
<!-- Node4&#45;&gt;Node2 -->
<g id="edge4_Node000004_Node000002" class="edge">
<title>Node4&#45;&gt;Node2</title>
<g id="a_edge4_Node000004_Node000002"><a xlink:title=" ">
<path fill="none" stroke="#63b8ff" d="M291.78,-92.87C308.28,-97.9 328.82,-104.17 346.2,-109.47"/>
<polygon fill="#63b8ff" stroke="#63b8ff" points="344.96,-113.06 355.55,-112.63 347.01,-106.36 344.96,-113.06"/>
</a>
</g>
</g>
<!-- Node5 -->
<g id="Node000005" class="node">
<title>Node5</title>
<g id="a_Node000005"><a xlink:href="../../d1/dc2/classstack.html#a066e4505155b009913c47b2648b1067a" target="_top" xlink:title=" ">
<polygon fill="white" stroke="#666666" points="437.5,-93.25 330,-93.25 330,-74 437.5,-74 437.5,-93.25"/>
<text text-anchor="middle" x="383.75" y="-79.75" font-family="Helvetica,sans-Serif" font-size="10.00">stack::isEmptyStack</text>
</a>
</g>
</g>
<!-- Node4&#45;&gt;Node5 -->
<g id="edge5_Node000004_Node000005" class="edge">
<title>Node4&#45;&gt;Node5</title>
<g id="a_edge5_Node000004_Node000005"><a xlink:title=" ">
<path fill="none" stroke="#63b8ff" d="M291.78,-83.62C300.14,-83.62 309.54,-83.62 319.03,-83.62"/>
<polygon fill="#63b8ff" stroke="#63b8ff" points="318.75,-87.13 328.75,-83.62 318.75,-80.13 318.75,-87.13"/>
</a>
</g>
</g>
</g>
</svg>
