<?xml version="1.0" encoding="UTF-8" standalone="no"?>
<!DOCTYPE svg PUBLIC "-//W3C//DTD SVG 1.1//EN"
 "http://www.w3.org/Graphics/SVG/1.1/DTD/svg11.dtd">
<!-- Generated by graphviz version 8.1.0 (20230707.0739)
 -->
<!-- Title: main Pages: 1 -->
<svg width="647pt" height="793pt"
 viewBox="0.00 0.00 646.75 792.50" xmlns="http://www.w3.org/2000/svg" xmlns:xlink="http://www.w3.org/1999/xlink">
<g id="graph0" class="graph" transform="scale(1 1) rotate(0) translate(4 788.5)">
<title>main</title>
<!-- Node1 -->
<g id="Node000001" class="node">
<title>Node1</title>
<g id="a_Node000001"><a xlink:title="Main function.">
<polygon fill="#999999" stroke="#666666" points="37,-512.25 0,-512.25 0,-493 37,-493 37,-512.25"/>
<text text-anchor="middle" x="18.5" y="-498.75" font-family="Helvetica,sans-Serif" font-size="10.00">main</text>
</a>
</g>
</g>
<!-- Node2 -->
<g id="Node000002" class="node">
<title>Node2</title>
<g id="a_Node000002"><a xlink:href="../../d9/d12/classothers_1_1iterative__tree__traversals_1_1_binary_tree.html#a3078a5ccf45d6a7031dcf46e43de65b6" target="_top" xlink:title="function that will create new node for insertion.">
<polygon fill="white" stroke="#666666" points="190.25,-784.5 73,-784.5 73,-742.75 190.25,-742.75 190.25,-784.5"/>
<text text-anchor="start" x="81" y="-771" font-family="Helvetica,sans-Serif" font-size="10.00">others::iterative_tree</text>
<text text-anchor="start" x="81" y="-759.75" font-family="Helvetica,sans-Serif" font-size="10.00">_traversals::BinaryTree</text>
<text text-anchor="middle" x="131.62" y="-748.5" font-family="Helvetica,sans-Serif" font-size="10.00">::createNewNode</text>
</a>
</g>
</g>
<!-- Node1&#45;&gt;Node2 -->
<g id="edge1_Node000001_Node000002" class="edge">
<title>Node1&#45;&gt;Node2</title>
<g id="a_edge1_Node000001_Node000002"><a xlink:title=" ">
<path fill="none" stroke="#63b8ff" d="M19.02,-512.63C17.89,-547.21 18.54,-663.34 73,-733.62 73.31,-734.03 73.63,-734.42 73.95,-734.81"/>
<polygon fill="#63b8ff" stroke="#63b8ff" points="71.03,-736.83 80.61,-741.35 75.94,-731.84 71.03,-736.83"/>
</a>
</g>
</g>
<!-- Node3 -->
<g id="Node000003" class="node">
<title>Node3</title>
<g id="a_Node000003"><a target="_blank" xlink:href="http://en.cppreference.com/w/cpp/container/vector/data.html#" xlink:title=" ">
<polygon fill="white" stroke="#666666" points="175.25,-724.25 88,-724.25 88,-705 175.25,-705 175.25,-724.25"/>
<text text-anchor="middle" x="131.62" y="-710.75" font-family="Helvetica,sans-Serif" font-size="10.00">std::vector::data</text>
</a>
</g>
</g>
<!-- Node1&#45;&gt;Node3 -->
<g id="edge2_Node000001_Node000003" class="edge">
<title>Node1&#45;&gt;Node3</title>
<g id="a_edge2_Node000001_Node000003"><a xlink:title=" ">
<path fill="none" stroke="#63b8ff" d="M19.46,-512.61C19.88,-543.21 25.2,-636.86 73,-690.62 76,-694 79.54,-696.91 83.38,-699.41"/>
<polygon fill="#63b8ff" stroke="#63b8ff" points="81.29,-702.81 91.74,-704.57 84.67,-696.68 81.29,-702.81"/>
</a>
</g>
</g>
<!-- Node4 -->
<g id="Node000004" class="node">
<title>Node4</title>
<g id="a_Node000004"><a target="_blank" xlink:href="http://en.cppreference.com/w/cpp/io/manip/endl.html#" xlink:title=" ">
<polygon fill="white" stroke="#666666" points="611.75,-610.25 558.25,-610.25 558.25,-591 611.75,-591 611.75,-610.25"/>
<text text-anchor="middle" x="585" y="-596.75" font-family="Helvetica,sans-Serif" font-size="10.00">std::endl</text>
</a>
</g>
</g>
<!-- Node1&#45;&gt;Node4 -->
<g id="edge3_Node000001_Node000004" class="edge">
<title>Node1&#45;&gt;Node4</title>
<g id="a_edge3_Node000001_Node000004"><a xlink:title=" ">
<path fill="none" stroke="#63b8ff" d="M25.18,-512.69C33.82,-527.22 51.56,-554.15 73,-570.62 131.79,-615.82 153.77,-620.94 226.25,-636.62 343.11,-661.91 378.24,-664.2 495.25,-639.62 517.28,-635 540.52,-624.56 557.68,-615.65"/>
<polygon fill="#63b8ff" stroke="#63b8ff" points="558.88,-618.44 566.04,-610.63 555.57,-612.27 558.88,-618.44"/>
</a>
</g>
</g>
<!-- Node5 -->
<g id="Node000005" class="node">
<title>Node5</title>
<g id="a_Node000005"><a xlink:href="../../d3/dae/dsu__path__compression_8cpp.html#ae7880ce913f3058a35ff106d5be9e243" target="_top" xlink:title="Self&#45;test implementations, 1st test.">
<polygon fill="white" stroke="#666666" points="150.5,-299.25 112.75,-299.25 112.75,-280 150.5,-280 150.5,-299.25"/>
<text text-anchor="middle" x="131.62" y="-285.75" font-family="Helvetica,sans-Serif" font-size="10.00">test1</text>
</a>
</g>
</g>
<!-- Node1&#45;&gt;Node5 -->
<g id="edge4_Node000001_Node000005" class="edge">
<title>Node1&#45;&gt;Node5</title>
<g id="a_edge4_Node000001_Node000005"><a xlink:title=" ">
<path fill="none" stroke="#63b8ff" d="M19.12,-492.52C18.51,-460.69 21.06,-361.42 73,-307.62 80.54,-299.82 91.41,-295.38 101.68,-292.87"/>
<polygon fill="#63b8ff" stroke="#63b8ff" points="102.23,-296.13 111.4,-290.82 100.92,-289.26 102.23,-296.13"/>
</a>
</g>
</g>
<!-- Node17 -->
<g id="Node000017" class="node">
<title>Node17</title>
<g id="a_Node000017"><a xlink:href="../../d3/dae/dsu__path__compression_8cpp.html#a45d94ead4cf4e1ff9f87c38bc99f59ae" target="_top" xlink:title="Self&#45;implementations, 2nd test.">
<polygon fill="white" stroke="#666666" points="150.5,-336.25 112.75,-336.25 112.75,-317 150.5,-317 150.5,-336.25"/>
<text text-anchor="middle" x="131.62" y="-322.75" font-family="Helvetica,sans-Serif" font-size="10.00">test2</text>
</a>
</g>
</g>
<!-- Node1&#45;&gt;Node17 -->
<g id="edge21_Node000001_Node000017" class="edge">
<title>Node1&#45;&gt;Node17</title>
<g id="a_edge21_Node000001_Node000017"><a xlink:title=" ">
<path fill="none" stroke="#63b8ff" d="M25.26,-492.53C34.88,-475.77 54.95,-441.21 73,-412.62 87.76,-389.25 105.59,-362.92 117.47,-345.62"/>
<polygon fill="#63b8ff" stroke="#63b8ff" points="120.91,-347.79 123.7,-337.57 115.15,-343.82 120.91,-347.79"/>
</a>
</g>
</g>
<!-- Node18 -->
<g id="Node000018" class="node">
<title>Node18</title>
<g id="a_Node000018"><a xlink:href="../../dd/d0c/hamiltons__cycle_8cpp.html#a0cc94918b6831f308d4fe4fa27f08299" target="_top" xlink:title=" ">
<polygon fill="white" stroke="#666666" points="150.5,-168.25 112.75,-168.25 112.75,-149 150.5,-149 150.5,-168.25"/>
<text text-anchor="middle" x="131.62" y="-154.75" font-family="Helvetica,sans-Serif" font-size="10.00">test3</text>
</a>
</g>
</g>
<!-- Node1&#45;&gt;Node18 -->
<g id="edge25_Node000001_Node000018" class="edge">
<title>Node1&#45;&gt;Node18</title>
<g id="a_edge25_Node000001_Node000018"><a xlink:title=" ">
<path fill="none" stroke="#63b8ff" d="M20.89,-492.65C25.64,-460 42.59,-353.69 73,-270.62 85.46,-236.59 105.94,-199.68 118.83,-177.88"/>
<polygon fill="#63b8ff" stroke="#63b8ff" points="122.18,-180.11 124.33,-169.73 116.18,-176.5 122.18,-180.11"/>
</a>
</g>
</g>
<!-- Node22 -->
<g id="Node000022" class="node">
<title>Node22</title>
<g id="a_Node000022"><a xlink:href="../../d8/d90/iterative__tree__traversals_8cpp.html#a038b236fe900f7bb7e57164f5bed66c2" target="_top" xlink:title="Test the computed preorder with the actual preorder on negative value.">
<polygon fill="white" stroke="#666666" points="150.5,-441.25 112.75,-441.25 112.75,-422 150.5,-422 150.5,-441.25"/>
<text text-anchor="middle" x="131.62" y="-427.75" font-family="Helvetica,sans-Serif" font-size="10.00">test4</text>
</a>
</g>
</g>
<!-- Node1&#45;&gt;Node22 -->
<g id="edge31_Node000001_Node000022" class="edge">
<title>Node1&#45;&gt;Node22</title>
<g id="a_edge31_Node000001_Node000022"><a xlink:title=" ">
<path fill="none" stroke="#63b8ff" d="M34.95,-492.75C53.26,-481.06 84.01,-461.41 105.7,-447.55"/>
<polygon fill="#63b8ff" stroke="#63b8ff" points="107.4,-449.98 113.95,-441.64 103.64,-444.08 107.4,-449.98"/>
</a>
</g>
</g>
<!-- Node28 -->
<g id="Node000028" class="node">
<title>Node28</title>
<g id="a_Node000028"><a xlink:href="../../d8/d90/iterative__tree__traversals_8cpp.html#aa9ef334cd7eb607f4eb8732566ea00b8" target="_top" xlink:title="Test the computed postorder with the actual postorder on negative value.">
<polygon fill="white" stroke="#666666" points="150.5,-561.25 112.75,-561.25 112.75,-542 150.5,-542 150.5,-561.25"/>
<text text-anchor="middle" x="131.62" y="-547.75" font-family="Helvetica,sans-Serif" font-size="10.00">test5</text>
</a>
</g>
</g>
<!-- Node1&#45;&gt;Node28 -->
<g id="edge39_Node000001_Node000028" class="edge">
<title>Node1&#45;&gt;Node28</title>
<g id="a_edge39_Node000001_Node000028"><a xlink:title=" ">
<path fill="none" stroke="#63b8ff" d="M37.35,-510.5C54.91,-518.24 81.97,-530.17 102.43,-539.19"/>
<polygon fill="#63b8ff" stroke="#63b8ff" points="100.88,-542.78 111.45,-543.61 103.71,-536.37 100.88,-542.78"/>
</a>
</g>
</g>
<!-- Node30 -->
<g id="Node000030" class="node">
<title>Node30</title>
<g id="a_Node000030"><a xlink:href="../../d8/d90/iterative__tree__traversals_8cpp.html#af727f920064f2b8f484b589b60d49b89" target="_top" xlink:title="Test the computed inorder with the actual inorder on negative value.">
<polygon fill="white" stroke="#666666" points="150.5,-512.25 112.75,-512.25 112.75,-493 150.5,-493 150.5,-512.25"/>
<text text-anchor="middle" x="131.62" y="-498.75" font-family="Helvetica,sans-Serif" font-size="10.00">test6</text>
</a>
</g>
</g>
<!-- Node1&#45;&gt;Node30 -->
<g id="edge45_Node000001_Node000030" class="edge">
<title>Node1&#45;&gt;Node30</title>
<g id="a_edge45_Node000001_Node000030"><a xlink:title=" ">
<path fill="none" stroke="#63b8ff" d="M37.35,-502.62C54.67,-502.62 81.23,-502.62 101.58,-502.62"/>
<polygon fill="#63b8ff" stroke="#63b8ff" points="101.45,-506.13 111.45,-502.62 101.45,-499.13 101.45,-506.13"/>
</a>
</g>
</g>
<!-- Node6 -->
<g id="Node000006" class="node">
<title>Node6</title>
<g id="a_Node000006"><a target="_blank" xlink:href="http://en.cppreference.com/w/cpp/container/vector/at.html#" xlink:title=" ">
<polygon fill="white" stroke="#666666" points="323.25,-299.25 246.5,-299.25 246.5,-280 323.25,-280 323.25,-299.25"/>
<text text-anchor="middle" x="284.88" y="-285.75" font-family="Helvetica,sans-Serif" font-size="10.00">std::vector::at</text>
</a>
</g>
</g>
<!-- Node5&#45;&gt;Node6 -->
<g id="edge5_Node000005_Node000006" class="edge">
<title>Node5&#45;&gt;Node6</title>
<g id="a_edge5_Node000005_Node000006"><a xlink:title=" ">
<path fill="none" stroke="#63b8ff" d="M150.87,-289.62C171.7,-289.62 206.62,-289.62 235.46,-289.62"/>
<polygon fill="#63b8ff" stroke="#63b8ff" points="235.17,-293.13 245.17,-289.62 235.17,-286.13 235.17,-293.13"/>
</a>
</g>
</g>
<!-- Node7 -->
<g id="Node000007" class="node">
<title>Node7</title>
<g id="a_Node000007"><a xlink:href="../../dd/d1f/classdsu.html#a0ce2672c570f4235eafddb0c9a58115a" target="_top" xlink:title="prints the minimum, maximum and size of the set to which i belongs to">
<polygon fill="white" stroke="#666666" points="310.5,-336.25 259.25,-336.25 259.25,-317 310.5,-317 310.5,-336.25"/>
<text text-anchor="middle" x="284.88" y="-322.75" font-family="Helvetica,sans-Serif" font-size="10.00">dsu::get</text>
</a>
</g>
</g>
<!-- Node5&#45;&gt;Node7 -->
<g id="edge6_Node000005_Node000007" class="edge">
<title>Node5&#45;&gt;Node7</title>
<g id="a_edge6_Node000005_Node000007"><a xlink:title=" ">
<path fill="none" stroke="#63b8ff" d="M150.87,-294.09C174.87,-299.96 217.58,-310.41 248.13,-317.88"/>
<polygon fill="#63b8ff" stroke="#63b8ff" points="247.23,-321.51 257.78,-320.49 248.89,-314.71 247.23,-321.51"/>
</a>
</g>
</g>
<!-- Node12 -->
<g id="Node000012" class="node">
<title>Node12</title>
<g id="a_Node000012"><a xlink:href="../../dd/d1f/classdsu.html#a6ac30c07abca2aaa3b291504c25c3559" target="_top" xlink:title="Method that combines two disjoint sets to which i and j belongs to and make a single set having a com...">
<polygon fill="white" stroke="#666666" points="324,-225.25 245.75,-225.25 245.75,-206 324,-206 324,-225.25"/>
<text text-anchor="middle" x="284.88" y="-211.75" font-family="Helvetica,sans-Serif" font-size="10.00">dsu::UnionSet</text>
</a>
</g>
</g>
<!-- Node5&#45;&gt;Node12 -->
<g id="edge14_Node000005_Node000012" class="edge">
<title>Node5&#45;&gt;Node12</title>
<g id="a_edge14_Node000005_Node000012"><a xlink:title=" ">
<path fill="none" stroke="#63b8ff" d="M150.87,-280.7C176.42,-268.2 223.18,-245.32 253.89,-230.29"/>
<polygon fill="#63b8ff" stroke="#63b8ff" points="255.2,-233.06 262.64,-225.53 252.12,-226.78 255.2,-233.06"/>
</a>
</g>
</g>
<!-- Node8 -->
<g id="Node000008" class="node">
<title>Node8</title>
<g id="a_Node000008"><a xlink:href="../../dd/d1f/classdsu.html#a696141b8b092466767f4bfe1c5e46cde" target="_top" xlink:title="A utility function that returns the max element of the set to which i belongs to.">
<polygon fill="white" stroke="#666666" points="475,-336.25 399.75,-336.25 399.75,-317 475,-317 475,-336.25"/>
<text text-anchor="middle" x="437.38" y="-322.75" font-family="Helvetica,sans-Serif" font-size="10.00">dsu::get_max</text>
</a>
</g>
</g>
<!-- Node7&#45;&gt;Node8 -->
<g id="edge7_Node000007_Node000008" class="edge">
<title>Node7&#45;&gt;Node8</title>
<g id="a_edge7_Node000007_Node000008"><a xlink:title=" ">
<path fill="none" stroke="#63b8ff" d="M310.73,-326.62C331.84,-326.62 362.75,-326.62 388.62,-326.62"/>
<polygon fill="#63b8ff" stroke="#63b8ff" points="388.36,-330.13 398.36,-326.62 388.36,-323.13 388.36,-330.13"/>
</a>
</g>
</g>
<!-- Node10 -->
<g id="Node000010" class="node">
<title>Node10</title>
<g id="a_Node000010"><a xlink:href="../../dd/d1f/classdsu.html#ac713a5b496d0405c82e2808a85e58415" target="_top" xlink:title="A utility function that returns the min element of the set to which i belongs to.">
<polygon fill="white" stroke="#666666" points="473.5,-299.25 401.25,-299.25 401.25,-280 473.5,-280 473.5,-299.25"/>
<text text-anchor="middle" x="437.38" y="-285.75" font-family="Helvetica,sans-Serif" font-size="10.00">dsu::get_min</text>
</a>
</g>
</g>
<!-- Node7&#45;&gt;Node10 -->
<g id="edge10_Node000007_Node000010" class="edge">
<title>Node7&#45;&gt;Node10</title>
<g id="a_edge10_Node000007_Node000010"><a xlink:title=" ">
<path fill="none" stroke="#63b8ff" d="M310.73,-320.52C332.3,-315.21 364.1,-307.39 390.31,-300.95"/>
<polygon fill="#63b8ff" stroke="#63b8ff" points="390.91,-304.16 399.79,-298.37 389.24,-297.36 390.91,-304.16"/>
</a>
</g>
</g>
<!-- Node11 -->
<g id="Node000011" class="node">
<title>Node11</title>
<g id="a_Node000011"><a xlink:href="../../dd/d1f/classdsu.html#a1c24228b0f2f49220133fb8c3566a55c" target="_top" xlink:title="A utility function that returns the size of the set to which i belongs to.">
<polygon fill="white" stroke="#666666" points="465.25,-373.25 409.5,-373.25 409.5,-354 465.25,-354 465.25,-373.25"/>
<text text-anchor="middle" x="437.38" y="-359.75" font-family="Helvetica,sans-Serif" font-size="10.00">dsu::size</text>
</a>
</g>
</g>
<!-- Node7&#45;&gt;Node11 -->
<g id="edge12_Node000007_Node000011" class="edge">
<title>Node7&#45;&gt;Node11</title>
<g id="a_edge12_Node000007_Node000011"><a xlink:title=" ">
<path fill="none" stroke="#63b8ff" d="M310.73,-332.73C334.68,-338.62 371.25,-347.61 398.76,-354.38"/>
<polygon fill="#63b8ff" stroke="#63b8ff" points="397.65,-357.95 408.19,-356.94 399.32,-351.16 397.65,-357.95"/>
</a>
</g>
</g>
<!-- Node9 -->
<g id="Node000009" class="node">
<title>Node9</title>
<g id="a_Node000009"><a xlink:href="../../dd/d1f/classdsu.html#a16851f78fe390fc1430905c83d6a2f1c" target="_top" xlink:title="Method to find the representative of the set to which i belongs to, T(n) = O(1)">
<polygon fill="white" stroke="#666666" points="619.25,-299.25 550.75,-299.25 550.75,-280 619.25,-280 619.25,-299.25"/>
<text text-anchor="middle" x="585" y="-285.75" font-family="Helvetica,sans-Serif" font-size="10.00">dsu::findSet</text>
</a>
</g>
</g>
<!-- Node8&#45;&gt;Node9 -->
<g id="edge8_Node000008_Node000009" class="edge">
<title>Node8&#45;&gt;Node9</title>
<g id="a_edge8_Node000008_Node000009"><a xlink:title=" ">
<path fill="none" stroke="#63b8ff" d="M475.5,-317.19C495.16,-312.2 519.44,-306.03 540.04,-300.8"/>
<polygon fill="#63b8ff" stroke="#63b8ff" points="540.6,-304.01 549.43,-298.15 538.88,-297.22 540.6,-304.01"/>
</a>
</g>
</g>
<!-- Node9&#45;&gt;Node9 -->
<g id="edge9_Node000009_Node000009" class="edge">
<title>Node9&#45;&gt;Node9</title>
<g id="a_edge9_Node000009_Node000009"><a xlink:title=" ">
<path fill="none" stroke="#63b8ff" d="M561.89,-299.54C551.35,-308.15 559.05,-317.25 585,-317.25 600.41,-317.25 609.38,-314.04 611.93,-309.63"/>
<polygon fill="#63b8ff" stroke="#63b8ff" points="614.92,-308.65 608.11,-300.54 608.37,-311.13 614.92,-308.65"/>
</a>
</g>
</g>
<!-- Node10&#45;&gt;Node9 -->
<g id="edge11_Node000010_Node000009" class="edge">
<title>Node10&#45;&gt;Node9</title>
<g id="a_edge11_Node000010_Node000009"><a xlink:title=" ">
<path fill="none" stroke="#63b8ff" d="M474,-289.62C493.84,-289.62 518.72,-289.62 539.8,-289.62"/>
<polygon fill="#63b8ff" stroke="#63b8ff" points="539.74,-293.13 549.74,-289.62 539.74,-286.13 539.74,-293.13"/>
</a>
</g>
</g>
<!-- Node11&#45;&gt;Node9 -->
<g id="edge13_Node000011_Node000009" class="edge">
<title>Node11&#45;&gt;Node9</title>
<g id="a_edge13_Node000011_Node000009"><a xlink:title=" ">
<path fill="none" stroke="#63b8ff" d="M465.53,-356.58C475.12,-353.69 485.86,-349.99 495.25,-345.62 519.09,-334.55 544.25,-318.17 561.67,-305.99"/>
<polygon fill="#63b8ff" stroke="#63b8ff" points="563.37,-308.36 569.49,-299.71 559.31,-302.65 563.37,-308.36"/>
</a>
</g>
</g>
<!-- Node12&#45;&gt;Node9 -->
<g id="edge15_Node000012_Node000009" class="edge">
<title>Node12&#45;&gt;Node9</title>
<g id="a_edge15_Node000012_Node000009"><a xlink:title=" ">
<path fill="none" stroke="#63b8ff" d="M297.6,-205.7C314.43,-192.17 347,-168.6 379.5,-159.62 429.09,-145.93 449.76,-135.6 495.25,-159.62 539.39,-182.94 565.72,-239.17 577.19,-269.47"/>
<polygon fill="#63b8ff" stroke="#63b8ff" points="574.19,-270.47 580.86,-278.69 580.78,-268.1 574.19,-270.47"/>
</a>
</g>
</g>
<!-- Node13 -->
<g id="Node000013" class="node">
<title>Node13</title>
<g id="a_Node000013"><a xlink:href="../../dd/d1f/classdsu.html#a64d25c5986742f7c234ed449b2ff7303" target="_top" xlink:title="A utility function which check whether i and j belongs to same set or not.">
<polygon fill="white" stroke="#666666" points="472.75,-262.25 402,-262.25 402,-243 472.75,-243 472.75,-262.25"/>
<text text-anchor="middle" x="437.38" y="-248.75" font-family="Helvetica,sans-Serif" font-size="10.00">dsu::isSame</text>
</a>
</g>
</g>
<!-- Node12&#45;&gt;Node13 -->
<g id="edge16_Node000012_Node000013" class="edge">
<title>Node12&#45;&gt;Node13</title>
<g id="a_edge16_Node000012_Node000013"><a xlink:title=" ">
<path fill="none" stroke="#63b8ff" d="M324.24,-225.06C344.66,-230.08 369.88,-236.28 391.23,-241.53"/>
<polygon fill="#63b8ff" stroke="#63b8ff" points="390.13,-245.11 400.68,-244.1 391.81,-238.31 390.13,-245.11"/>
</a>
</g>
</g>
<!-- Node14 -->
<g id="Node000014" class="node">
<title>Node14</title>
<g id="a_Node000014"><a target="_blank" xlink:href="http://en.cppreference.com/w/cpp/algorithm/max.html#" xlink:title=" ">
<polygon fill="white" stroke="#666666" points="612.12,-66.25 557.88,-66.25 557.88,-47 612.12,-47 612.12,-66.25"/>
<text text-anchor="middle" x="585" y="-52.75" font-family="Helvetica,sans-Serif" font-size="10.00">std::max</text>
</a>
</g>
</g>
<!-- Node12&#45;&gt;Node14 -->
<g id="edge18_Node000012_Node000014" class="edge">
<title>Node12&#45;&gt;Node14</title>
<g id="a_edge18_Node000012_Node000014"><a xlink:title=" ">
<path fill="none" stroke="#63b8ff" d="M296.36,-205.53C312.93,-189.99 346.67,-159.98 379.5,-140.62 434.86,-108 505.28,-82.12 547.38,-68.12"/>
<polygon fill="#63b8ff" stroke="#63b8ff" points="548.29,-71.17 556.7,-64.73 546.11,-64.52 548.29,-71.17"/>
</a>
</g>
</g>
<!-- Node15 -->
<g id="Node000015" class="node">
<title>Node15</title>
<g id="a_Node000015"><a target="_blank" xlink:href="http://en.cppreference.com/w/cpp/algorithm/min.html#" xlink:title=" ">
<polygon fill="white" stroke="#666666" points="463,-225.25 411.75,-225.25 411.75,-206 463,-206 463,-225.25"/>
<text text-anchor="middle" x="437.38" y="-211.75" font-family="Helvetica,sans-Serif" font-size="10.00">std::min</text>
</a>
</g>
</g>
<!-- Node12&#45;&gt;Node15 -->
<g id="edge19_Node000012_Node000015" class="edge">
<title>Node12&#45;&gt;Node15</title>
<g id="a_edge19_Node000012_Node000015"><a xlink:title=" ">
<path fill="none" stroke="#63b8ff" d="M324.24,-215.62C347.64,-215.62 377.35,-215.62 400.31,-215.62"/>
<polygon fill="#63b8ff" stroke="#63b8ff" points="400.31,-219.13 410.31,-215.62 400.31,-212.13 400.31,-219.13"/>
</a>
</g>
</g>
<!-- Node16 -->
<g id="Node000016" class="node">
<title>Node16</title>
<g id="a_Node000016"><a target="_blank" xlink:href="http://en.cppreference.com/w/cpp/algorithm/swap.html#" xlink:title=" ">
<polygon fill="white" stroke="#666666" points="466.75,-188.25 408,-188.25 408,-169 466.75,-169 466.75,-188.25"/>
<text text-anchor="middle" x="437.38" y="-174.75" font-family="Helvetica,sans-Serif" font-size="10.00">std::swap</text>
</a>
</g>
</g>
<!-- Node12&#45;&gt;Node16 -->
<g id="edge20_Node000012_Node000016" class="edge">
<title>Node12&#45;&gt;Node16</title>
<g id="a_edge20_Node000012_Node000016"><a xlink:title=" ">
<path fill="none" stroke="#63b8ff" d="M324.24,-206.19C346.54,-200.71 374.59,-193.81 397.05,-188.29"/>
<polygon fill="#63b8ff" stroke="#63b8ff" points="397.71,-191.49 406.58,-185.7 396.04,-184.69 397.71,-191.49"/>
</a>
</g>
</g>
<!-- Node13&#45;&gt;Node9 -->
<g id="edge17_Node000013_Node000009" class="edge">
<title>Node13&#45;&gt;Node9</title>
<g id="a_edge17_Node000013_Node000009"><a xlink:title=" ">
<path fill="none" stroke="#63b8ff" d="M472.89,-261.39C492.96,-266.49 518.47,-272.97 539.97,-278.44"/>
<polygon fill="#63b8ff" stroke="#63b8ff" points="538.94,-282.04 549.49,-281.11 540.66,-275.26 538.94,-282.04"/>
</a>
</g>
</g>
<!-- Node17&#45;&gt;Node6 -->
<g id="edge22_Node000017_Node000006" class="edge">
<title>Node17&#45;&gt;Node6</title>
<g id="a_edge22_Node000017_Node000006"><a xlink:title=" ">
<path fill="none" stroke="#63b8ff" d="M150.87,-322.16C171.79,-317.04 206.93,-308.45 235.84,-301.38"/>
<polygon fill="#63b8ff" stroke="#63b8ff" points="236.29,-304.63 245.17,-298.85 234.62,-297.83 236.29,-304.63"/>
</a>
</g>
</g>
<!-- Node17&#45;&gt;Node7 -->
<g id="edge23_Node000017_Node000007" class="edge">
<title>Node17&#45;&gt;Node7</title>
<g id="a_edge23_Node000017_Node000007"><a xlink:title=" ">
<path fill="none" stroke="#63b8ff" d="M150.87,-326.62C174.87,-326.62 217.58,-326.62 248.13,-326.62"/>
<polygon fill="#63b8ff" stroke="#63b8ff" points="247.78,-330.13 257.78,-326.62 247.78,-323.13 247.78,-330.13"/>
</a>
</g>
</g>
<!-- Node17&#45;&gt;Node12 -->
<g id="edge24_Node000017_Node000012" class="edge">
<title>Node17&#45;&gt;Node12</title>
<g id="a_edge24_Node000017_Node000012"><a xlink:title=" ">
<path fill="none" stroke="#63b8ff" d="M150.77,-323.44C162.65,-320.78 178.15,-316.17 190.25,-308.62 209.99,-296.31 209.83,-287.11 226.25,-270.62 239.01,-257.82 253.76,-243.76 265.14,-233.06"/>
<polygon fill="#63b8ff" stroke="#63b8ff" points="267.19,-235.99 272.1,-226.6 262.41,-230.88 267.19,-235.99"/>
</a>
</g>
</g>
<!-- Node19 -->
<g id="Node000019" class="node">
<title>Node19</title>
<g id="a_Node000019"><a xlink:href="../../dd/d0c/hamiltons__cycle_8cpp.html#abcf824e347eecfeeb69ea0280f34f3e4" target="_top" xlink:title=" ">
<polygon fill="white" stroke="#666666" points="325.5,-74.25 244.25,-74.25 244.25,-55 325.5,-55 325.5,-74.25"/>
<text text-anchor="middle" x="284.88" y="-60.75" font-family="Helvetica,sans-Serif" font-size="10.00">hamilton_cycle</text>
</a>
</g>
</g>
<!-- Node18&#45;&gt;Node19 -->
<g id="edge26_Node000018_Node000019" class="edge">
<title>Node18&#45;&gt;Node19</title>
<g id="a_edge26_Node000018_Node000019"><a xlink:title=" ">
<path fill="none" stroke="#63b8ff" d="M148.81,-148.57C175.19,-132.17 227.65,-99.57 258.85,-80.17"/>
<polygon fill="#63b8ff" stroke="#63b8ff" points="260.16,-82.86 266.8,-74.61 256.46,-76.92 260.16,-82.86"/>
</a>
</g>
</g>
<!-- Node20 -->
<g id="Node000020" class="node">
<title>Node20</title>
<g id="a_Node000020"><a xlink:href="../../d8/dee/avltree_8cpp.html#ae4a66d8b0c2b0d626aea45977e358c83" target="_top" xlink:title=" ">
<polygon fill="white" stroke="#666666" points="458.5,-19.25 416.25,-19.25 416.25,0 458.5,0 458.5,-19.25"/>
<text text-anchor="middle" x="437.38" y="-5.75" font-family="Helvetica,sans-Serif" font-size="10.00">height</text>
</a>
</g>
</g>
<!-- Node19&#45;&gt;Node20 -->
<g id="edge27_Node000019_Node000020" class="edge">
<title>Node19&#45;&gt;Node20</title>
<g id="a_edge27_Node000019_Node000020"><a xlink:title=" ">
<path fill="none" stroke="#63b8ff" d="M313.48,-54.54C339.7,-44.95 379.03,-30.58 406.1,-20.69"/>
<polygon fill="#63b8ff" stroke="#63b8ff" points="406.98,-23.73 415.17,-17.01 404.58,-17.15 406.98,-23.73"/>
</a>
</g>
</g>
<!-- Node21 -->
<g id="Node000021" class="node">
<title>Node21</title>
<g id="a_Node000021"><a target="_blank" xlink:href="http://en.cppreference.com/w/cpp/container/vector/push_back.html#" xlink:title=" ">
<polygon fill="white" stroke="#666666" points="495.25,-74.25 379.5,-74.25 379.5,-55 495.25,-55 495.25,-74.25"/>
<text text-anchor="middle" x="437.38" y="-60.75" font-family="Helvetica,sans-Serif" font-size="10.00">std::vector::push_back</text>
</a>
</g>
</g>
<!-- Node19&#45;&gt;Node21 -->
<g id="edge30_Node000019_Node000021" class="edge">
<title>Node19&#45;&gt;Node21</title>
<g id="a_edge30_Node000019_Node000021"><a xlink:title=" ">
<path fill="none" stroke="#63b8ff" d="M325.81,-64.62C338.86,-64.62 353.73,-64.62 368.25,-64.62"/>
<polygon fill="#63b8ff" stroke="#63b8ff" points="368.25,-68.13 378.25,-64.62 368.25,-61.13 368.25,-68.13"/>
</a>
</g>
</g>
<!-- Node20&#45;&gt;Node14 -->
<g id="edge29_Node000020_Node000014" class="edge">
<title>Node20&#45;&gt;Node14</title>
<g id="a_edge29_Node000020_Node000014"><a xlink:title=" ">
<path fill="none" stroke="#63b8ff" d="M458.93,-16.26C481.87,-23.66 519.44,-35.79 547.43,-44.82"/>
<polygon fill="#63b8ff" stroke="#63b8ff" points="546.04,-48.37 556.63,-48.11 548.19,-41.71 546.04,-48.37"/>
</a>
</g>
</g>
<!-- Node20&#45;&gt;Node20 -->
<g id="edge28_Node000020_Node000020" class="edge">
<title>Node20&#45;&gt;Node20</title>
<g id="a_edge28_Node000020_Node000020"><a xlink:title=" ">
<path fill="none" stroke="#63b8ff" d="M415.78,-18.39C403.07,-27.32 410.27,-37.25 437.38,-37.25 455.16,-37.25 464.38,-32.97 465.02,-27.51"/>
<polygon fill="#63b8ff" stroke="#63b8ff" points="467.42,-25.79 458.97,-19.39 461.58,-29.66 467.42,-25.79"/>
</a>
</g>
</g>
<!-- Node22&#45;&gt;Node4 -->
<g id="edge32_Node000022_Node000004" class="edge">
<title>Node22&#45;&gt;Node4</title>
<g id="a_edge32_Node000022_Node000004"><a xlink:title=" ">
<path fill="none" stroke="#63b8ff" d="M150.87,-423.91C169.44,-416.51 199.27,-405.84 226.25,-401.62 346.09,-382.89 403.17,-368.67 495.25,-447.62 523.32,-471.69 512.84,-490.56 531.25,-522.62 543.38,-543.76 559.27,-566.73 570.43,-582.23"/>
<polygon fill="#63b8ff" stroke="#63b8ff" points="567.97,-583.8 576.69,-589.83 573.63,-579.69 567.97,-583.8"/>
</a>
</g>
</g>
<!-- Node23 -->
<g id="Node000023" class="node">
<title>Node23</title>
<g id="a_Node000023"><a xlink:href="../../d9/d12/classothers_1_1iterative__tree__traversals_1_1_binary_tree.html#ad4c6a8e67fb8267a65439b035666b5ae" target="_top" xlink:title="preOrderIterative() function that will perform the preorder traversal iteratively,...">
<polygon fill="white" stroke="#666666" points="343.5,-452.5 226.25,-452.5 226.25,-410.75 343.5,-410.75 343.5,-452.5"/>
<text text-anchor="start" x="234.25" y="-439" font-family="Helvetica,sans-Serif" font-size="10.00">others::iterative_tree</text>
<text text-anchor="start" x="234.25" y="-427.75" font-family="Helvetica,sans-Serif" font-size="10.00">_traversals::BinaryTree</text>
<text text-anchor="middle" x="284.88" y="-416.5" font-family="Helvetica,sans-Serif" font-size="10.00">::preOrderIterative</text>
</a>
</g>
</g>
<!-- Node22&#45;&gt;Node23 -->
<g id="edge33_Node000022_Node000023" class="edge">
<title>Node22&#45;&gt;Node23</title>
<g id="a_edge33_Node000022_Node000023"><a xlink:title=" ">
<path fill="none" stroke="#63b8ff" d="M150.87,-431.62C166.95,-431.62 191.43,-431.62 215.02,-431.62"/>
<polygon fill="#63b8ff" stroke="#63b8ff" points="214.76,-435.13 224.76,-431.62 214.76,-428.13 214.76,-435.13"/>
</a>
</g>
</g>
<!-- Node24 -->
<g id="Node000024" class="node">
<title>Node24</title>
<g id="a_Node000024"><a xlink:href="../../d1/dc2/classstack.html#a6cd4b95d5de00d41b2491392338384dc" target="_top" xlink:title=" ">
<polygon fill="white" stroke="#666666" points="468.25,-513.25 406.5,-513.25 406.5,-494 468.25,-494 468.25,-513.25"/>
<text text-anchor="middle" x="437.38" y="-499.75" font-family="Helvetica,sans-Serif" font-size="10.00">stack::pop</text>
</a>
</g>
</g>
<!-- Node23&#45;&gt;Node24 -->
<g id="edge34_Node000023_Node000024" class="edge">
<title>Node23&#45;&gt;Node24</title>
<g id="a_edge34_Node000023_Node000024"><a xlink:title=" ">
<path fill="none" stroke="#63b8ff" d="M328.02,-452.9C333.28,-455.75 338.55,-458.7 343.5,-461.62 360.05,-471.41 362.16,-477.31 379.5,-485.62 384.75,-488.14 390.44,-490.43 396.12,-492.45"/>
<polygon fill="#63b8ff" stroke="#63b8ff" points="394.65,-495.98 405.25,-495.82 396.86,-489.34 394.65,-495.98"/>
</a>
</g>
</g>
<!-- Node26 -->
<g id="Node000026" class="node">
<title>Node26</title>
<g id="a_Node000026"><a xlink:href="../../d1/dc2/classstack.html#a5705c3926dcf5fd3f9c964467a50b81d" target="_top" xlink:title=" ">
<polygon fill="white" stroke="#666666" points="470.88,-550.25 403.88,-550.25 403.88,-531 470.88,-531 470.88,-550.25"/>
<text text-anchor="middle" x="437.38" y="-536.75" font-family="Helvetica,sans-Serif" font-size="10.00">stack::push</text>
</a>
</g>
</g>
<!-- Node23&#45;&gt;Node26 -->
<g id="edge37_Node000023_Node000026" class="edge">
<title>Node23&#45;&gt;Node26</title>
<g id="a_edge37_Node000023_Node000026"><a xlink:title=" ">
<path fill="none" stroke="#63b8ff" d="M332.44,-452.83C336.39,-455.51 340.14,-458.44 343.5,-461.62 366.34,-483.29 354.87,-503.02 379.5,-522.62 383.75,-526 388.64,-528.75 393.73,-530.99"/>
<polygon fill="#63b8ff" stroke="#63b8ff" points="392.07,-534.48 402.66,-534.69 394.52,-527.92 392.07,-534.48"/>
</a>
</g>
</g>
<!-- Node27 -->
<g id="Node000027" class="node">
<title>Node27</title>
<g id="a_Node000027"><a xlink:href="../../d1/dc2/classstack.html#a21c0bb6ce7dcfe445cc12031977ea344" target="_top" xlink:title=" ">
<polygon fill="white" stroke="#666666" points="467.12,-476.25 407.62,-476.25 407.62,-457 467.12,-457 467.12,-476.25"/>
<text text-anchor="middle" x="437.38" y="-462.75" font-family="Helvetica,sans-Serif" font-size="10.00">stack::top</text>
</a>
</g>
</g>
<!-- Node23&#45;&gt;Node27 -->
<g id="edge38_Node000023_Node000027" class="edge">
<title>Node23&#45;&gt;Node27</title>
<g id="a_edge38_Node000023_Node000027"><a xlink:title=" ">
<path fill="none" stroke="#63b8ff" d="M343.63,-445.06C361.28,-449.16 380.28,-453.58 396.47,-457.34"/>
<polygon fill="#63b8ff" stroke="#63b8ff" points="395.63,-460.98 406.17,-459.83 397.22,-454.16 395.63,-460.98"/>
</a>
</g>
</g>
<!-- Node24&#45;&gt;Node4 -->
<g id="edge35_Node000024_Node000004" class="edge">
<title>Node24&#45;&gt;Node4</title>
<g id="a_edge35_Node000024_Node000004"><a xlink:title=" ">
<path fill="none" stroke="#63b8ff" d="M468.59,-510.61C477.5,-513.35 487.06,-516.97 495.25,-521.62 524.07,-538.01 551.68,-564.95 568.24,-582.74"/>
<polygon fill="#63b8ff" stroke="#63b8ff" points="565.12,-584.62 574.44,-589.66 570.3,-579.9 565.12,-584.62"/>
</a>
</g>
</g>
<!-- Node25 -->
<g id="Node000025" class="node">
<title>Node25</title>
<g id="a_Node000025"><a xlink:href="../../d1/dc2/classstack.html#a066e4505155b009913c47b2648b1067a" target="_top" xlink:title=" ">
<polygon fill="white" stroke="#666666" points="638.75,-513.25 531.25,-513.25 531.25,-494 638.75,-494 638.75,-513.25"/>
<text text-anchor="middle" x="585" y="-499.75" font-family="Helvetica,sans-Serif" font-size="10.00">stack::isEmptyStack</text>
</a>
</g>
</g>
<!-- Node24&#45;&gt;Node25 -->
<g id="edge36_Node000024_Node000025" class="edge">
<title>Node24&#45;&gt;Node25</title>
<g id="a_edge36_Node000024_Node000025"><a xlink:title=" ">
<path fill="none" stroke="#63b8ff" d="M468.55,-503.62C483.45,-503.62 502.03,-503.62 519.9,-503.62"/>
<polygon fill="#63b8ff" stroke="#63b8ff" points="519.9,-507.13 529.9,-503.62 519.9,-500.13 519.9,-507.13"/>
</a>
</g>
</g>
<!-- Node28&#45;&gt;Node4 -->
<g id="edge40_Node000028_Node000004" class="edge">
<title>Node28&#45;&gt;Node4</title>
<g id="a_edge40_Node000028_Node000004"><a xlink:title=" ">
<path fill="none" stroke="#63b8ff" d="M142.76,-561.52C158.85,-576.46 191.96,-604.16 226.25,-614.62 339.21,-649.09 481.57,-624.68 547.46,-609.81"/>
<polygon fill="#63b8ff" stroke="#63b8ff" points="548.15,-613.01 557.1,-607.33 546.57,-606.19 548.15,-613.01"/>
</a>
</g>
</g>
<!-- Node29 -->
<g id="Node000029" class="node">
<title>Node29</title>
<g id="a_Node000029"><a xlink:href="../../d9/d12/classothers_1_1iterative__tree__traversals_1_1_binary_tree.html#a636a07c90b7f312bb86d2ec104efca25" target="_top" xlink:title="postOrderIterative() function that will perform the postorder traversal iteratively,...">
<polygon fill="white" stroke="#666666" points="343.5,-572.5 226.25,-572.5 226.25,-530.75 343.5,-530.75 343.5,-572.5"/>
<text text-anchor="start" x="234.25" y="-559" font-family="Helvetica,sans-Serif" font-size="10.00">others::iterative_tree</text>
<text text-anchor="start" x="234.25" y="-547.75" font-family="Helvetica,sans-Serif" font-size="10.00">_traversals::BinaryTree</text>
<text text-anchor="middle" x="284.88" y="-536.5" font-family="Helvetica,sans-Serif" font-size="10.00">::postOrderIterative</text>
</a>
</g>
</g>
<!-- Node28&#45;&gt;Node29 -->
<g id="edge41_Node000028_Node000029" class="edge">
<title>Node28&#45;&gt;Node29</title>
<g id="a_edge41_Node000028_Node000029"><a xlink:title=" ">
<path fill="none" stroke="#63b8ff" d="M150.87,-551.62C166.95,-551.62 191.43,-551.62 215.02,-551.62"/>
<polygon fill="#63b8ff" stroke="#63b8ff" points="214.76,-555.13 224.76,-551.62 214.76,-548.13 214.76,-555.13"/>
</a>
</g>
</g>
<!-- Node29&#45;&gt;Node24 -->
<g id="edge42_Node000029_Node000024" class="edge">
<title>Node29&#45;&gt;Node24</title>
<g id="a_edge42_Node000029_Node000024"><a xlink:title=" ">
<path fill="none" stroke="#63b8ff" d="M343.8,-533.03C355.61,-529.25 367.95,-525.3 379.5,-521.62 384.79,-519.94 390.36,-518.17 395.86,-516.43"/>
<polygon fill="#63b8ff" stroke="#63b8ff" points="396.78,-519.49 405.26,-513.13 394.67,-512.82 396.78,-519.49"/>
</a>
</g>
</g>
<!-- Node29&#45;&gt;Node26 -->
<g id="edge43_Node000029_Node000026" class="edge">
<title>Node29&#45;&gt;Node26</title>
<g id="a_edge43_Node000029_Node000026"><a xlink:title=" ">
<path fill="none" stroke="#63b8ff" d="M343.63,-547.4C360.04,-546.2 377.62,-544.92 393.02,-543.79"/>
<polygon fill="#63b8ff" stroke="#63b8ff" points="393.08,-547.23 402.8,-543.01 392.57,-540.24 393.08,-547.23"/>
</a>
</g>
</g>
<!-- Node29&#45;&gt;Node27 -->
<g id="edge44_Node000029_Node000027" class="edge">
<title>Node29&#45;&gt;Node27</title>
<g id="a_edge44_Node000029_Node000027"><a xlink:title=" ">
<path fill="none" stroke="#63b8ff" d="M330.48,-530.25C335.01,-527.55 339.43,-524.65 343.5,-521.62 361.91,-507.93 359.97,-496.67 379.5,-484.62 384.92,-481.28 391.02,-478.5 397.16,-476.22"/>
<polygon fill="#63b8ff" stroke="#63b8ff" points="398.02,-479.28 406.41,-472.81 395.82,-472.64 398.02,-479.28"/>
</a>
</g>
</g>
<!-- Node30&#45;&gt;Node4 -->
<g id="edge46_Node000030_Node000004" class="edge">
<title>Node30&#45;&gt;Node4</title>
<g id="a_edge46_Node000030_Node000004"><a xlink:title=" ">
<path fill="none" stroke="#63b8ff" d="M150.8,-509.53C162.84,-514.68 178.52,-522.57 190.25,-532.62 210.77,-550.21 202.47,-568.79 226.25,-581.62 280.81,-611.08 467.37,-606.18 547.24,-602.57"/>
<polygon fill="#63b8ff" stroke="#63b8ff" points="546.95,-606.04 556.78,-602.07 546.62,-599.05 546.95,-606.04"/>
</a>
</g>
</g>
<!-- Node31 -->
<g id="Node000031" class="node">
<title>Node31</title>
<g id="a_Node000031"><a xlink:href="../../d9/d12/classothers_1_1iterative__tree__traversals_1_1_binary_tree.html#a0c33f2c1a3a3deb486a1c33ee5239499" target="_top" xlink:title="inOrderIterative() function that will perform the inorder traversal iteratively, and return the resul...">
<polygon fill="white" stroke="#666666" points="343.5,-512.5 226.25,-512.5 226.25,-470.75 343.5,-470.75 343.5,-512.5"/>
<text text-anchor="start" x="234.25" y="-499" font-family="Helvetica,sans-Serif" font-size="10.00">others::iterative_tree</text>
<text text-anchor="start" x="234.25" y="-487.75" font-family="Helvetica,sans-Serif" font-size="10.00">_traversals::BinaryTree</text>
<text text-anchor="middle" x="284.88" y="-476.5" font-family="Helvetica,sans-Serif" font-size="10.00">::inOrderIterative</text>
</a>
</g>
</g>
<!-- Node30&#45;&gt;Node31 -->
<g id="edge47_Node000030_Node000031" class="edge">
<title>Node30&#45;&gt;Node31</title>
<g id="a_edge47_Node000030_Node000031"><a xlink:title=" ">
<path fill="none" stroke="#63b8ff" d="M150.87,-501.3C166.95,-500.13 191.43,-498.35 215.02,-496.63"/>
<polygon fill="#63b8ff" stroke="#63b8ff" points="215.04,-500.07 224.76,-495.85 214.53,-493.09 215.04,-500.07"/>
</a>
</g>
</g>
<!-- Node31&#45;&gt;Node24 -->
<g id="edge48_Node000031_Node000024" class="edge">
<title>Node31&#45;&gt;Node24</title>
<g id="a_edge48_Node000031_Node000024"><a xlink:title=" ">
<path fill="none" stroke="#63b8ff" d="M343.63,-496.23C361.01,-497.62 379.7,-499.11 395.72,-500.38"/>
<polygon fill="#63b8ff" stroke="#63b8ff" points="395.09,-503.92 405.34,-501.23 395.65,-496.95 395.09,-503.92"/>
</a>
</g>
</g>
<!-- Node31&#45;&gt;Node26 -->
<g id="edge49_Node000031_Node000026" class="edge">
<title>Node31&#45;&gt;Node26</title>
<g id="a_edge49_Node000031_Node000026"><a xlink:title=" ">
<path fill="none" stroke="#63b8ff" d="M343.77,-510.93C355.58,-514.83 367.93,-518.88 379.5,-522.62 384.11,-524.12 388.94,-525.67 393.75,-527.2"/>
<polygon fill="#63b8ff" stroke="#63b8ff" points="392.58,-530.82 403.17,-530.51 394.7,-524.15 392.58,-530.82"/>
</a>
</g>
</g>
<!-- Node31&#45;&gt;Node27 -->
<g id="edge50_Node000031_Node000027" class="edge">
<title>Node31&#45;&gt;Node27</title>
<g id="a_edge50_Node000031_Node000027"><a xlink:title=" ">
<path fill="none" stroke="#63b8ff" d="M343.63,-482.03C361.28,-479.1 380.28,-475.94 396.47,-473.25"/>
<polygon fill="#63b8ff" stroke="#63b8ff" points="396.88,-476.57 406.17,-471.48 395.73,-469.66 396.88,-476.57"/>
</a>
</g>
</g>
</g>
</svg>
