<?xml version="1.0" encoding="UTF-8" standalone="no"?>
<!DOCTYPE svg PUBLIC "-//W3C//DTD SVG 1.1//EN"
 "http://www.w3.org/Graphics/SVG/1.1/DTD/svg11.dtd">
<!-- Generated by graphviz version 8.1.0 (20230707.0739)
 -->
<!-- Title: stack&lt; Type &gt; Pages: 1 -->
<svg width="130pt" height="265pt"
 viewBox="0.00 0.00 129.75 264.75" xmlns="http://www.w3.org/2000/svg" xmlns:xlink="http://www.w3.org/1999/xlink">
<g id="graph0" class="graph" transform="scale(1 1) rotate(0) translate(4 260.75)">
<title>stack&lt; Type &gt;</title>
<!-- Node1 -->
<g id="Node000001" class="node">
<title>Node1</title>
<g id="a_Node000001"><a xlink:title=" ">
<polygon fill="#999999" stroke="#666666" points="79,-19.25 0,-19.25 0,0 79,0 79,-19.25"/>
<text text-anchor="middle" x="39.5" y="-5.75" font-family="Helvetica,sans-Serif" font-size="10.00">stack&lt; Type &gt;</text>
</a>
</g>
</g>
<!-- Node2 -->
<g id="Node000002" class="node">
<title>Node2</title>
<g id="a_Node000002"><a xlink:href="../../d5/da1/structnode.html" target="_top" xlink:title=" ">
<polygon fill="white" stroke="#666666" points="77.5,-85.75 1.5,-85.75 1.5,-66.5 77.5,-66.5 77.5,-85.75"/>
<text text-anchor="middle" x="39.5" y="-72.25" font-family="Helvetica,sans-Serif" font-size="10.00">node&lt; Type &gt;</text>
</a>
</g>
</g>
<!-- Node2&#45;&gt;Node1 -->
<g id="edge1_Node000001_Node000002" class="edge">
<title>Node2&#45;&gt;Node1</title>
<g id="a_edge1_Node000001_Node000002"><a xlink:title=" ">
<path fill="none" stroke="#9a32cd" stroke-dasharray="5,2" d="M39.5,-55.4C39.5,-43.43 39.5,-28.73 39.5,-19.52"/>
<polygon fill="#9a32cd" stroke="#9a32cd" points="36,-55.16 39.5,-65.16 43,-55.16 36,-55.16"/>
</a>
</g>
<text text-anchor="middle" x="60.88" y="-39" font-family="Helvetica,sans-Serif" font-size="10.00" fill="grey"> stackTop</text>
</g>
<!-- Node2&#45;&gt;Node2 -->
<g id="edge4_Node000002_Node000002" class="edge">
<title>Node2&#45;&gt;Node2</title>
<g id="a_edge4_Node000002_Node000002"><a xlink:title=" ">
<path fill="none" stroke="#9a32cd" stroke-dasharray="5,2" d="M88.59,-81C92.84,-79.97 95.5,-78.34 95.5,-76.12 95.5,-72.39 87.97,-70.33 77.98,-69.95"/>
<polygon fill="#9a32cd" stroke="#9a32cd" points="88.48,-77.61 78.98,-82.3 89.32,-84.56 88.48,-77.61"/>
</a>
</g>
<text text-anchor="middle" x="106.38" y="-72.25" font-family="Helvetica,sans-Serif" font-size="10.00" fill="grey"> next</text>
</g>
<!-- Node3 -->
<g id="Node000003" class="node">
<title>Node3</title>
<g id="a_Node000003"><a xlink:href="../../d5/da1/structnode.html" target="_top" xlink:title=" ">
<polygon fill="white" stroke="#666666" points="76.75,-232.62 2.25,-232.62 2.25,-213.38 76.75,-213.38 76.75,-232.62"/>
<text text-anchor="middle" x="39.5" y="-219.12" font-family="Helvetica,sans-Serif" font-size="10.00">node&lt; Kind &gt;</text>
</a>
</g>
</g>
<!-- Node3&#45;&gt;Node2 -->
<g id="edge2_Node000002_Node000003" class="edge">
<title>Node3&#45;&gt;Node2</title>
<g id="a_edge2_Node000002_Node000003"><a xlink:title=" ">
<path fill="none" stroke="#9a32cd" stroke-dasharray="5,2" d="M39.5,-201.94C39.5,-170.08 39.5,-109.15 39.5,-86.18"/>
<polygon fill="#9a32cd" stroke="#9a32cd" points="36,-201.94 39.5,-211.94 43,-201.94 36,-201.94"/>
</a>
</g>
<text text-anchor="middle" x="53" y="-161.75" font-family="Helvetica,sans-Serif" font-size="10.00" fill="grey"> left</text>
<text text-anchor="middle" x="53" y="-150.5" font-family="Helvetica,sans-Serif" font-size="10.00" fill="grey">link</text>
<text text-anchor="middle" x="53" y="-139.25" font-family="Helvetica,sans-Serif" font-size="10.00" fill="grey">next</text>
<text text-anchor="middle" x="53" y="-128" font-family="Helvetica,sans-Serif" font-size="10.00" fill="grey">parent</text>
<text text-anchor="middle" x="53" y="-116.75" font-family="Helvetica,sans-Serif" font-size="10.00" fill="grey">prev</text>
<text text-anchor="middle" x="53" y="-105.5" font-family="Helvetica,sans-Serif" font-size="10.00" fill="grey">right</text>
</g>
<!-- Node3&#45;&gt;Node3 -->
<g id="edge3_Node000003_Node000003" class="edge">
<title>Node3&#45;&gt;Node3</title>
<g id="a_edge3_Node000003_Node000003"><a xlink:title=" ">
<path fill="none" stroke="#9a32cd" stroke-dasharray="5,2" d="M62.03,-237.26C78.39,-242 94.75,-237.24 94.75,-223 94.75,-205.8 70.9,-202.44 51.99,-212.92"/>
<polygon fill="#9a32cd" stroke="#9a32cd" points="63.56,-233.69 52.99,-233.08 60.88,-240.15 63.56,-233.69"/>
</a>
</g>
<text text-anchor="middle" x="108.25" y="-247.25" font-family="Helvetica,sans-Serif" font-size="10.00" fill="grey"> left</text>
<text text-anchor="middle" x="108.25" y="-236" font-family="Helvetica,sans-Serif" font-size="10.00" fill="grey">link</text>
<text text-anchor="middle" x="108.25" y="-224.75" font-family="Helvetica,sans-Serif" font-size="10.00" fill="grey">next</text>
<text text-anchor="middle" x="108.25" y="-213.5" font-family="Helvetica,sans-Serif" font-size="10.00" fill="grey">parent</text>
<text text-anchor="middle" x="108.25" y="-202.25" font-family="Helvetica,sans-Serif" font-size="10.00" fill="grey">prev</text>
<text text-anchor="middle" x="108.25" y="-191" font-family="Helvetica,sans-Serif" font-size="10.00" fill="grey">right</text>
</g>
</g>
</svg>
