<?xml version="1.0" encoding="UTF-8" standalone="no"?>
<!DOCTYPE svg PUBLIC "-//W3C//DTD SVG 1.1//EN"
 "http://www.w3.org/Graphics/SVG/1.1/DTD/svg11.dtd">
<!-- Generated by graphviz version 8.1.0 (20230707.0739)
 -->
<!-- Title: queue::deQueue Pages: 1 -->
<svg width="244pt" height="64pt"
 viewBox="0.00 0.00 244.00 64.25" xmlns="http://www.w3.org/2000/svg" xmlns:xlink="http://www.w3.org/1999/xlink">
<g id="graph0" class="graph" transform="scale(1 1) rotate(0) translate(4 60.25)">
<title>queue::deQueue</title>
<!-- Node1 -->
<g id="Node000001" class="node">
<title>Node1</title>
<g id="a_Node000001"><a xlink:title=" ">
<polygon fill="#999999" stroke="#666666" points="87.25,-37.25 0,-37.25 0,-18 87.25,-18 87.25,-37.25"/>
<text text-anchor="middle" x="43.62" y="-23.75" font-family="Helvetica,sans-Serif" font-size="10.00">queue::deQueue</text>
</a>
</g>
</g>
<!-- Node2 -->
<g id="Node000002" class="node">
<title>Node2</title>
<g id="a_Node000002"><a target="_blank" xlink:href="http://en.cppreference.com/w/cpp/io/manip/endl.html#" xlink:title=" ">
<polygon fill="white" stroke="#666666" points="206.38,-56.25 152.88,-56.25 152.88,-37 206.38,-37 206.38,-56.25"/>
<text text-anchor="middle" x="179.62" y="-42.75" font-family="Helvetica,sans-Serif" font-size="10.00">std::endl</text>
</a>
</g>
</g>
<!-- Node1&#45;&gt;Node2 -->
<g id="edge1_Node000001_Node000002" class="edge">
<title>Node1&#45;&gt;Node2</title>
<g id="a_edge1_Node000001_Node000002"><a xlink:title=" ">
<path fill="none" stroke="#63b8ff" d="M87.39,-33.69C104.98,-36.18 125.15,-39.04 142.05,-41.44"/>
<polygon fill="#63b8ff" stroke="#63b8ff" points="141.22,-45 151.61,-42.94 142.21,-38.07 141.22,-45"/>
</a>
</g>
</g>
<!-- Node3 -->
<g id="Node000003" class="node">
<title>Node3</title>
<g id="a_Node000003"><a xlink:href="../../db/da9/classqueue.html#ac2fff88dce4d7d2eb7134af382bd1b31" target="_top" xlink:title=" ">
<polygon fill="white" stroke="#666666" points="236,-19.25 123.25,-19.25 123.25,0 236,0 236,-19.25"/>
<text text-anchor="middle" x="179.62" y="-5.75" font-family="Helvetica,sans-Serif" font-size="10.00">queue::isEmptyQueue</text>
</a>
</g>
</g>
<!-- Node1&#45;&gt;Node3 -->
<g id="edge2_Node000001_Node000003" class="edge">
<title>Node1&#45;&gt;Node3</title>
<g id="a_edge2_Node000001_Node000003"><a xlink:title=" ">
<path fill="none" stroke="#63b8ff" d="M87.39,-21.88C95.36,-20.81 103.86,-19.67 112.35,-18.53"/>
<polygon fill="#63b8ff" stroke="#63b8ff" points="112.6,-21.89 122.04,-17.09 111.67,-14.95 112.6,-21.89"/>
</a>
</g>
</g>
</g>
</svg>
