<?xml version="1.0" encoding="UTF-8" standalone="no"?>
<!DOCTYPE svg PUBLIC "-//W3C//DTD SVG 1.1//EN"
 "http://www.w3.org/Graphics/SVG/1.1/DTD/svg11.dtd">
<!-- Generated by graphviz version 8.1.0 (20230707.0739)
 -->
<!-- Title: cll Pages: 1 -->
<svg width="128pt" height="142pt"
 viewBox="0.00 0.00 127.50 142.00" xmlns="http://www.w3.org/2000/svg" xmlns:xlink="http://www.w3.org/1999/xlink">
<g id="graph0" class="graph" transform="scale(1 1) rotate(0) translate(4 138)">
<title>cll</title>
<!-- Node1 -->
<g id="Node000001" class="node">
<title>Node1</title>
<g id="a_Node000001"><a xlink:title=" ">
<polygon fill="#999999" stroke="#666666" points="51.65,-19.25 22.85,-19.25 22.85,0 51.65,0 51.65,-19.25"/>
<text text-anchor="middle" x="37.25" y="-5.75" font-family="Helvetica,sans-Serif" font-size="10.00">cll</text>
</a>
</g>
</g>
<!-- Node2 -->
<g id="Node000002" class="node">
<title>Node2</title>
<g id="a_Node000002"><a xlink:href="../../d5/da1/structnode.html" target="_top" xlink:title=" ">
<polygon fill="white" stroke="#666666" points="74.5,-109.88 0,-109.88 0,-90.62 74.5,-90.62 74.5,-109.88"/>
<text text-anchor="middle" x="37.25" y="-96.38" font-family="Helvetica,sans-Serif" font-size="10.00">node&lt; Kind &gt;</text>
</a>
</g>
</g>
<!-- Node2&#45;&gt;Node1 -->
<g id="edge1_Node000001_Node000002" class="edge">
<title>Node2&#45;&gt;Node1</title>
<g id="a_edge1_Node000001_Node000002"><a xlink:title=" ">
<path fill="none" stroke="#9a32cd" stroke-dasharray="5,2" d="M37.25,-79.62C37.25,-60.95 37.25,-33.68 37.25,-19.67"/>
<polygon fill="#9a32cd" stroke="#9a32cd" points="33.75,-79.43 37.25,-89.43 40.75,-79.43 33.75,-79.43"/>
</a>
</g>
<text text-anchor="middle" x="49.25" y="-39" font-family="Helvetica,sans-Serif" font-size="10.00" fill="grey"> head</text>
</g>
<!-- Node2&#45;&gt;Node2 -->
<g id="edge2_Node000002_Node000002" class="edge">
<title>Node2&#45;&gt;Node2</title>
<g id="a_edge2_Node000002_Node000002"><a xlink:title=" ">
<path fill="none" stroke="#9a32cd" stroke-dasharray="5,2" d="M73.58,-110.98C84.24,-110.62 92.5,-107.04 92.5,-100.25 92.5,-91.29 78.11,-87.92 62.82,-90.16"/>
<polygon fill="#9a32cd" stroke="#9a32cd" points="74.02,-107.44 63.82,-110.34 73.6,-114.43 74.02,-107.44"/>
</a>
</g>
<text text-anchor="middle" x="106" y="-124.5" font-family="Helvetica,sans-Serif" font-size="10.00" fill="grey"> left</text>
<text text-anchor="middle" x="106" y="-113.25" font-family="Helvetica,sans-Serif" font-size="10.00" fill="grey">link</text>
<text text-anchor="middle" x="106" y="-102" font-family="Helvetica,sans-Serif" font-size="10.00" fill="grey">next</text>
<text text-anchor="middle" x="106" y="-90.75" font-family="Helvetica,sans-Serif" font-size="10.00" fill="grey">parent</text>
<text text-anchor="middle" x="106" y="-79.5" font-family="Helvetica,sans-Serif" font-size="10.00" fill="grey">prev</text>
<text text-anchor="middle" x="106" y="-68.25" font-family="Helvetica,sans-Serif" font-size="10.00" fill="grey">right</text>
</g>
</g>
</svg>
