<?xml version="1.0" encoding="UTF-8" standalone="no"?>
<!DOCTYPE svg PUBLIC "-//W3C//DTD SVG 1.1//EN"
 "http://www.w3.org/Graphics/SVG/1.1/DTD/svg11.dtd">
<!-- Generated by graphviz version 8.1.0 (20230707.0739)
 -->
<!-- Title: main Pages: 1 -->
<svg width="416pt" height="223pt"
 viewBox="0.00 0.00 415.50 222.88" xmlns="http://www.w3.org/2000/svg" xmlns:xlink="http://www.w3.org/1999/xlink">
<g id="graph0" class="graph" transform="scale(1 1) rotate(0) translate(4 218.88)">
<title>main</title>
<!-- Node1 -->
<g id="Node000001" class="node">
<title>Node1</title>
<g id="a_Node000001"><a xlink:title="Main function.">
<polygon fill="#999999" stroke="#666666" points="37,-122.88 0,-122.88 0,-103.62 37,-103.62 37,-122.88"/>
<text text-anchor="middle" x="18.5" y="-109.38" font-family="Helvetica,sans-Serif" font-size="10.00">main</text>
</a>
</g>
</g>
<!-- Node2 -->
<g id="Node000002" class="node">
<title>Node2</title>
<g id="a_Node000002"><a xlink:href="../../d6/d05/reverse__a__linked__list_8cpp.html#aa8dca7b867074164d5f45b0f3851269d" target="_top" xlink:title="Self&#45;test implementations.">
<polygon fill="white" stroke="#666666" points="105.5,-122.88 73,-122.88 73,-103.62 105.5,-103.62 105.5,-122.88"/>
<text text-anchor="middle" x="89.25" y="-109.38" font-family="Helvetica,sans-Serif" font-size="10.00">test</text>
</a>
</g>
</g>
<!-- Node1&#45;&gt;Node2 -->
<g id="edge1_Node000001_Node000002" class="edge">
<title>Node1&#45;&gt;Node2</title>
<g id="a_edge1_Node000001_Node000002"><a xlink:title=" ">
<path fill="none" stroke="#63b8ff" d="M37.2,-113.25C44.67,-113.25 53.52,-113.25 61.73,-113.25"/>
<polygon fill="#63b8ff" stroke="#63b8ff" points="61.71,-116.75 71.71,-113.25 61.71,-109.75 61.71,-116.75"/>
</a>
</g>
</g>
<!-- Node3 -->
<g id="Node000003" class="node">
<title>Node3</title>
<g id="a_Node000003"><a target="_blank" xlink:href="http://en.cppreference.com/w/cpp/io/manip/endl.html#" xlink:title=" ">
<polygon fill="white" stroke="#666666" points="225.75,-214.88 172.25,-214.88 172.25,-195.62 225.75,-195.62 225.75,-214.88"/>
<text text-anchor="middle" x="199" y="-201.38" font-family="Helvetica,sans-Serif" font-size="10.00">std::endl</text>
</a>
</g>
</g>
<!-- Node2&#45;&gt;Node3 -->
<g id="edge2_Node000002_Node000003" class="edge">
<title>Node2&#45;&gt;Node3</title>
<g id="a_edge2_Node000002_Node000003"><a xlink:title=" ">
<path fill="none" stroke="#63b8ff" d="M94.71,-123.28C102.18,-138.95 118.67,-169.2 141.5,-186.25 147.46,-190.7 154.53,-194.15 161.61,-196.81"/>
<polygon fill="#63b8ff" stroke="#63b8ff" points="160.28,-200.39 170.88,-200.17 162.46,-193.73 160.28,-200.39"/>
</a>
</g>
</g>
<!-- Node4 -->
<g id="Node000004" class="node">
<title>Node4</title>
<g id="a_Node000004"><a xlink:href="../../d1/def/classdata__structures_1_1linked__list_1_1list.html#a4649fc2c5d09dc58608cd9299db9946f" target="_top" xlink:title="Utility function that adds a new element at the end of the list.">
<polygon fill="white" stroke="#666666" points="256.5,-128.5 141.5,-128.5 141.5,-98 256.5,-98 256.5,-128.5"/>
<text text-anchor="start" x="149.5" y="-115" font-family="Helvetica,sans-Serif" font-size="10.00">data_structures::linked</text>
<text text-anchor="middle" x="199" y="-103.75" font-family="Helvetica,sans-Serif" font-size="10.00">_list::list::insert</text>
</a>
</g>
</g>
<!-- Node2&#45;&gt;Node4 -->
<g id="edge3_Node000002_Node000004" class="edge">
<title>Node2&#45;&gt;Node4</title>
<g id="a_edge3_Node000002_Node000004"><a xlink:title=" ">
<path fill="none" stroke="#63b8ff" d="M105.69,-113.25C112.55,-113.25 121.14,-113.25 130.31,-113.25"/>
<polygon fill="#63b8ff" stroke="#63b8ff" points="130.26,-116.75 140.26,-113.25 130.26,-109.75 130.26,-116.75"/>
</a>
</g>
</g>
<!-- Node7 -->
<g id="Node000007" class="node">
<title>Node7</title>
<g id="a_Node000007"><a xlink:href="../../d1/def/classdata__structures_1_1linked__list_1_1list.html#a8b20ca89a0346c8d4193936481528c70" target="_top" xlink:title="Utility function for reversing a list.">
<polygon fill="white" stroke="#666666" points="256.5,-79.5 141.5,-79.5 141.5,-49 256.5,-49 256.5,-79.5"/>
<text text-anchor="start" x="149.5" y="-66" font-family="Helvetica,sans-Serif" font-size="10.00">data_structures::linked</text>
<text text-anchor="middle" x="199" y="-54.75" font-family="Helvetica,sans-Serif" font-size="10.00">_list::list::reverseList</text>
</a>
</g>
</g>
<!-- Node2&#45;&gt;Node7 -->
<g id="edge6_Node000002_Node000007" class="edge">
<title>Node2&#45;&gt;Node7</title>
<g id="a_edge6_Node000002_Node000007"><a xlink:title=" ">
<path fill="none" stroke="#63b8ff" d="M105.91,-105.81C116.04,-101.03 129.52,-94.71 141.5,-89.25 145.08,-87.62 148.79,-85.95 152.52,-84.27"/>
<polygon fill="#63b8ff" stroke="#63b8ff" points="153.68,-87.14 161.38,-79.87 150.83,-80.75 153.68,-87.14"/>
</a>
</g>
</g>
<!-- Node8 -->
<g id="Node000008" class="node">
<title>Node8</title>
<g id="a_Node000008"><a xlink:href="../../d1/def/classdata__structures_1_1linked__list_1_1list.html#ab2d20da40d800897c31a649799d5e43d" target="_top" xlink:title="Utility function to find the top element of the list.">
<polygon fill="white" stroke="#666666" points="256.5,-177.5 141.5,-177.5 141.5,-147 256.5,-147 256.5,-177.5"/>
<text text-anchor="start" x="149.5" y="-164" font-family="Helvetica,sans-Serif" font-size="10.00">data_structures::linked</text>
<text text-anchor="middle" x="199" y="-152.75" font-family="Helvetica,sans-Serif" font-size="10.00">_list::list::top</text>
</a>
</g>
</g>
<!-- Node2&#45;&gt;Node8 -->
<g id="edge7_Node000002_Node000008" class="edge">
<title>Node2&#45;&gt;Node8</title>
<g id="a_edge7_Node000002_Node000008"><a xlink:title=" ">
<path fill="none" stroke="#63b8ff" d="M105.91,-120.69C116.04,-125.47 129.52,-131.79 141.5,-137.25 145.08,-138.88 148.79,-140.55 152.52,-142.23"/>
<polygon fill="#63b8ff" stroke="#63b8ff" points="150.83,-145.75 161.38,-146.63 153.68,-139.36 150.83,-145.75"/>
</a>
</g>
</g>
<!-- Node9 -->
<g id="Node000009" class="node">
<title>Node9</title>
<g id="a_Node000009"><a xlink:href="../../d1/def/classdata__structures_1_1linked__list_1_1list.html#af42071da0067130389cb12fc526ea4fe" target="_top" xlink:title="Utility function to find the i th element of the list.">
<polygon fill="white" stroke="#666666" points="256.5,-30.5 141.5,-30.5 141.5,0 256.5,0 256.5,-30.5"/>
<text text-anchor="start" x="149.5" y="-17" font-family="Helvetica,sans-Serif" font-size="10.00">data_structures::linked</text>
<text text-anchor="middle" x="199" y="-5.75" font-family="Helvetica,sans-Serif" font-size="10.00">_list::list::traverse</text>
</a>
</g>
</g>
<!-- Node2&#45;&gt;Node9 -->
<g id="edge10_Node000002_Node000009" class="edge">
<title>Node2&#45;&gt;Node9</title>
<g id="a_edge10_Node000002_Node000009"><a xlink:title=" ">
<path fill="none" stroke="#63b8ff" d="M95.03,-103.22C102.82,-87.81 119.6,-58.24 141.5,-40.25 143.09,-38.95 144.75,-37.7 146.47,-36.51"/>
<polygon fill="#63b8ff" stroke="#63b8ff" points="147.77,-39.2 154.47,-30.99 144.11,-33.24 147.77,-39.2"/>
</a>
</g>
</g>
<!-- Node5 -->
<g id="Node000005" class="node">
<title>Node5</title>
<g id="a_Node000005"><a xlink:href="../../d1/def/classdata__structures_1_1linked__list_1_1list.html#ae8424a4fce3d483f7c85d6f6a5c79a1a" target="_top" xlink:title="Utility function that checks if the list is empty.">
<polygon fill="white" stroke="#666666" points="407.5,-175.5 292.5,-175.5 292.5,-145 407.5,-145 407.5,-175.5"/>
<text text-anchor="start" x="300.5" y="-162" font-family="Helvetica,sans-Serif" font-size="10.00">data_structures::linked</text>
<text text-anchor="middle" x="350" y="-150.75" font-family="Helvetica,sans-Serif" font-size="10.00">_list::list::isEmpty</text>
</a>
</g>
</g>
<!-- Node4&#45;&gt;Node5 -->
<g id="edge4_Node000004_Node000005" class="edge">
<title>Node4&#45;&gt;Node5</title>
<g id="a_edge4_Node000004_Node000005"><a xlink:title=" ">
<path fill="none" stroke="#63b8ff" d="M249.61,-128.9C262.17,-132.86 275.8,-137.16 288.82,-141.27"/>
<polygon fill="#63b8ff" stroke="#63b8ff" points="287.5,-144.84 298.09,-144.51 289.61,-138.16 287.5,-144.84"/>
</a>
</g>
</g>
<!-- Node6 -->
<g id="Node000006" class="node">
<title>Node6</title>
<g id="a_Node000006"><a target="_blank" xlink:href="http://en.cppreference.com/w/cpp/error/exception/what.html#" xlink:title=" ">
<polygon fill="white" stroke="#666666" points="401.88,-125.88 298.12,-125.88 298.12,-106.62 401.88,-106.62 401.88,-125.88"/>
<text text-anchor="middle" x="350" y="-112.38" font-family="Helvetica,sans-Serif" font-size="10.00">std::bad_alloc::what</text>
</a>
</g>
</g>
<!-- Node4&#45;&gt;Node6 -->
<g id="edge5_Node000004_Node000006" class="edge">
<title>Node4&#45;&gt;Node6</title>
<g id="a_edge5_Node000004_Node000006"><a xlink:title=" ">
<path fill="none" stroke="#63b8ff" d="M256.76,-114.39C266.66,-114.59 277.01,-114.8 287.05,-115"/>
<polygon fill="#63b8ff" stroke="#63b8ff" points="286.71,-118.52 296.78,-115.22 286.85,-111.52 286.71,-118.52"/>
</a>
</g>
</g>
<!-- Node8&#45;&gt;Node5 -->
<g id="edge8_Node000008_Node000005" class="edge">
<title>Node8&#45;&gt;Node5</title>
<g id="a_edge8_Node000008_Node000005"><a xlink:title=" ">
<path fill="none" stroke="#63b8ff" d="M256.76,-161.49C264.88,-161.38 273.29,-161.27 281.59,-161.15"/>
<polygon fill="#63b8ff" stroke="#63b8ff" points="281.45,-164.64 291.4,-161.01 281.36,-157.64 281.45,-164.64"/>
</a>
</g>
</g>
<!-- Node8&#45;&gt;Node6 -->
<g id="edge9_Node000008_Node000006" class="edge">
<title>Node8&#45;&gt;Node6</title>
<g id="a_edge9_Node000008_Node000006"><a xlink:title=" ">
<path fill="none" stroke="#63b8ff" d="M250.86,-146.55C268.87,-140.99 288.94,-134.79 306.21,-129.46"/>
<polygon fill="#63b8ff" stroke="#63b8ff" points="307.04,-132.56 315.56,-126.26 304.98,-125.87 307.04,-132.56"/>
</a>
</g>
</g>
</g>
</svg>
