<?xml version="1.0" encoding="UTF-8" standalone="no"?>
<!DOCTYPE svg PUBLIC "-//W3C//DTD SVG 1.1//EN"
 "http://www.w3.org/Graphics/SVG/1.1/DTD/svg11.dtd">
<!-- Generated by graphviz version 8.1.0 (20230707.0739)
 -->
<!-- Title: test Pages: 1 -->
<svg width="295pt" height="119pt"
 viewBox="0.00 0.00 295.25 119.25" xmlns="http://www.w3.org/2000/svg" xmlns:xlink="http://www.w3.org/1999/xlink">

<svg id="main" version="1.1" xmlns="http://www.w3.org/2000/svg" xmlns:xlink="http://www.w3.org/1999/xlink" xml:space="preserve" onload="init(evt)">
<style type="text/css"><![CDATA[
.node, .edge {opacity: 0.7;}
.node.selected, .edge.selected {opacity: 1;}
.edge:hover path { stroke: red; }
.edge:hover polygon { stroke: red; fill: red; }
]]></style>
<script type="application/ecmascript" xlink:href="../../svg.min.js"/>
<svg id="graph" class="graph">
<g id="graph0" class="graph" transform="scale(1 1) rotate(0) translate(4 115.25)">
<title>test</title>
<!-- Node1 -->
<g id="Node000001" class="node">
<title>Node1</title>
<g id="a_Node000001"><a xlink:title=" ">
<polygon fill="#999999" stroke="#666666" points="32.5,-56.25 0,-56.25 0,-37 32.5,-37 32.5,-56.25"/>
<text text-anchor="middle" x="16.25" y="-42.75" font-family="Helvetica,sans-Serif" font-size="10.00">test</text>
</a>
</g>
</g>
<!-- Node2 -->
<g id="Node000002" class="node">
<title>Node2</title>
<g id="a_Node000002"><a xlink:href="../../d7/d89/double__factorial_8cpp.html#a0a3c417360400093891a9ccddaa4be26" target="_top" xlink:title=" ">
<polygon fill="white" stroke="#666666" points="195.12,-111.25 71.12,-111.25 71.12,-92 195.12,-92 195.12,-111.25"/>
<text text-anchor="middle" x="133.12" y="-97.75" font-family="Helvetica,sans-Serif" font-size="10.00">double_factorial_iterative</text>
</a>
</g>
</g>
<!-- Node1&#45;&gt;Node2 -->
<g id="edge1_Node000001_Node000002" class="edge">
<title>Node1&#45;&gt;Node2</title>
<g id="a_edge1_Node000001_Node000002"><a xlink:title=" ">
<path fill="none" stroke="#63b8ff" d="M28.71,-56.72C38.63,-64.99 53.68,-76.46 68.5,-83.62 71.65,-85.15 74.96,-86.57 78.33,-87.88"/>
<polygon fill="#63b8ff" stroke="#63b8ff" points="76.99,-91.47 87.59,-91.51 79.33,-84.87 76.99,-91.47"/>
</a>
</g>
</g>
<!-- Node3 -->
<g id="Node000003" class="node">
<title>Node3</title>
<g id="a_Node000003"><a xlink:href="../../d7/d89/double__factorial_8cpp.html#a68ba20fed2ce427f6469c7689437829d" target="_top" xlink:title=" ">
<polygon fill="white" stroke="#666666" points="197.75,-56.25 68.5,-56.25 68.5,-37 197.75,-37 197.75,-56.25"/>
<text text-anchor="middle" x="133.12" y="-42.75" font-family="Helvetica,sans-Serif" font-size="10.00">double_factorial_recursive</text>
</a>
</g>
</g>
<!-- Node1&#45;&gt;Node3 -->
<g id="edge2_Node000001_Node000003" class="edge">
<title>Node1&#45;&gt;Node3</title>
<g id="a_edge2_Node000001_Node000003"><a xlink:title=" ">
<path fill="none" stroke="#63b8ff" d="M32.74,-46.62C39.52,-46.62 48.01,-46.62 57.16,-46.62"/>
<polygon fill="#63b8ff" stroke="#63b8ff" points="57.14,-50.13 67.14,-46.62 57.14,-43.13 57.14,-50.13"/>
</a>
</g>
</g>
<!-- Node4 -->
<g id="Node000004" class="node">
<title>Node4</title>
<g id="a_Node000004"><a xlink:href="../../d6/d2c/caesar__cipher_8cpp.html#ae1a3968e7947464bee7714f6d43b7002" target="_top" xlink:title=" ">
<polygon fill="white" stroke="#666666" points="149.38,-19.25 116.88,-19.25 116.88,0 149.38,0 149.38,-19.25"/>
<text text-anchor="middle" x="133.12" y="-5.75" font-family="Helvetica,sans-Serif" font-size="10.00">test</text>
</a>
</g>
</g>
<!-- Node1&#45;&gt;Node4 -->
<g id="edge4_Node000001_Node000004" class="edge">
<title>Node1&#45;&gt;Node4</title>
<g id="a_edge4_Node000001_Node000004"><a xlink:title=" ">
<path fill="none" stroke="#63b8ff" d="M32.84,-40.48C42.94,-36.59 56.41,-31.57 68.5,-27.62 80.82,-23.6 94.65,-19.63 106.26,-16.44"/>
<polygon fill="#63b8ff" stroke="#63b8ff" points="106.85,-19.64 115.59,-13.65 105.03,-12.88 106.85,-19.64"/>
</a>
</g>
</g>
<!-- Node3&#45;&gt;Node3 -->
<g id="edge3_Node000003_Node000003" class="edge">
<title>Node3&#45;&gt;Node3</title>
<g id="a_edge3_Node000003_Node000003"><a xlink:title=" ">
<path fill="none" stroke="#63b8ff" d="M114.83,-56.54C106.48,-65.15 112.58,-74.25 133.12,-74.25 145,-74.25 152.05,-71.21 154.27,-66.98"/>
<polygon fill="#63b8ff" stroke="#63b8ff" points="157.43,-66.26 151.42,-57.54 150.68,-68.11 157.43,-66.26"/>
</a>
</g>
</g>
<!-- Node5 -->
<g id="Node000005" class="node">
<title>Node5</title>
<g id="a_Node000005"><a target="_blank" xlink:href="http://en.cppreference.com/w/cpp/io/manip/endl.html#" xlink:title=" ">
<polygon fill="white" stroke="#666666" points="287.25,-19.25 233.75,-19.25 233.75,0 287.25,0 287.25,-19.25"/>
<text text-anchor="middle" x="260.5" y="-5.75" font-family="Helvetica,sans-Serif" font-size="10.00">std::endl</text>
</a>
</g>
</g>
<!-- Node4&#45;&gt;Node5 -->
<g id="edge5_Node000004_Node000005" class="edge">
<title>Node4&#45;&gt;Node5</title>
<g id="a_edge5_Node000004_Node000005"><a xlink:title=" ">
<path fill="none" stroke="#63b8ff" d="M149.75,-9.62C167.88,-9.62 198.4,-9.62 222.66,-9.62"/>
<polygon fill="#63b8ff" stroke="#63b8ff" points="222.64,-13.13 232.64,-9.62 222.64,-6.13 222.64,-13.13"/>
</a>
</g>
</g>
</g>
</svg>
</svg>

<style type='text/css'>
<![CDATA[
[data-mouse-over-selected='false'] { opacity: 0.7; }
[data-mouse-over-selected='true']  { opacity: 1.0; }
]]>
</style>
<script type="application/ecmascript"><![CDATA[
document.addEventListener('DOMContentLoaded', (event) => {
  highlightEdges();
  highlightAdjacentNodes();
});
]]></script>
</svg>
