<?xml version="1.0" encoding="UTF-8" standalone="no"?>
<!DOCTYPE svg PUBLIC "-//W3C//DTD SVG 1.1//EN"
 "http://www.w3.org/Graphics/SVG/1.1/DTD/svg11.dtd">
<!-- Generated by graphviz version 8.1.0 (20230707.0739)
 -->
<!-- Title: math::triangle_prism_volume Pages: 1 -->
<svg width="281pt" height="51pt"
 viewBox="0.00 0.00 281.00 50.88" xmlns="http://www.w3.org/2000/svg" xmlns:xlink="http://www.w3.org/1999/xlink">
<g id="graph0" class="graph" transform="scale(1 1) rotate(0) translate(4 46.88)">
<title>math::triangle_prism_volume</title>
<!-- Node1 -->
<g id="Node000001" class="node">
<title>Node1</title>
<g id="a_Node000001"><a xlink:title="The volume of a triangular prism.">
<polygon fill="#999999" stroke="#666666" points="104.5,-30.5 0,-30.5 0,0 104.5,0 104.5,-30.5"/>
<text text-anchor="start" x="8" y="-17" font-family="Helvetica,sans-Serif" font-size="10.00">math::triangle_prism</text>
<text text-anchor="middle" x="52.25" y="-5.75" font-family="Helvetica,sans-Serif" font-size="10.00">_volume</text>
</a>
</g>
</g>
<!-- Node2 -->
<g id="Node000002" class="node">
<title>Node2</title>
<g id="a_Node000002"><a xlink:href="../../d8/dee/avltree_8cpp.html#ae4a66d8b0c2b0d626aea45977e358c83" target="_top" xlink:title=" ">
<polygon fill="white" stroke="#666666" points="182.75,-24.88 140.5,-24.88 140.5,-5.63 182.75,-5.63 182.75,-24.88"/>
<text text-anchor="middle" x="161.62" y="-11.38" font-family="Helvetica,sans-Serif" font-size="10.00">height</text>
</a>
</g>
</g>
<!-- Node1&#45;&gt;Node2 -->
<g id="edge1_Node000001_Node000002" class="edge">
<title>Node1&#45;&gt;Node2</title>
<g id="a_edge1_Node000001_Node000002"><a xlink:title=" ">
<path fill="none" stroke="#63b8ff" d="M104.74,-15.25C113.1,-15.25 121.53,-15.25 129.23,-15.25"/>
<polygon fill="#63b8ff" stroke="#63b8ff" points="129.23,-18.75 139.23,-15.25 129.23,-11.75 129.23,-18.75"/>
</a>
</g>
</g>
<!-- Node2&#45;&gt;Node2 -->
<g id="edge2_Node000002_Node000002" class="edge">
<title>Node2&#45;&gt;Node2</title>
<g id="a_edge2_Node000002_Node000002"><a xlink:title=" ">
<path fill="none" stroke="#63b8ff" d="M148.44,-25.16C142.42,-33.77 146.82,-42.88 161.62,-42.88 169.96,-42.88 174.99,-39.99 176.73,-35.94"/>
<polygon fill="#63b8ff" stroke="#63b8ff" points="180.01,-35.4 174.81,-26.16 173.12,-36.62 180.01,-35.4"/>
</a>
</g>
</g>
<!-- Node3 -->
<g id="Node000003" class="node">
<title>Node3</title>
<g id="a_Node000003"><a target="_blank" xlink:href="http://en.cppreference.com/w/cpp/algorithm/max.html#" xlink:title=" ">
<polygon fill="white" stroke="#666666" points="273,-24.88 218.75,-24.88 218.75,-5.63 273,-5.63 273,-24.88"/>
<text text-anchor="middle" x="245.88" y="-11.38" font-family="Helvetica,sans-Serif" font-size="10.00">std::max</text>
</a>
</g>
</g>
<!-- Node2&#45;&gt;Node3 -->
<g id="edge3_Node000002_Node000003" class="edge">
<title>Node2&#45;&gt;Node3</title>
<g id="a_edge3_Node000002_Node000003"><a xlink:title=" ">
<path fill="none" stroke="#63b8ff" d="M182.96,-15.25C190.37,-15.25 199,-15.25 207.42,-15.25"/>
<polygon fill="#63b8ff" stroke="#63b8ff" points="207.26,-18.75 217.26,-15.25 207.26,-11.75 207.26,-18.75"/>
</a>
</g>
</g>
</g>
</svg>
