<?xml version="1.0" encoding="UTF-8" standalone="no"?>
<!DOCTYPE svg PUBLIC "-//W3C//DTD SVG 1.1//EN"
 "http://www.w3.org/Graphics/SVG/1.1/DTD/svg11.dtd">
<!-- Generated by graphviz version 8.1.0 (20230707.0739)
 -->
<!-- Title: math::cylinder_volume Pages: 1 -->
<svg width="302pt" height="82pt"
 viewBox="0.00 0.00 302.00 82.25" xmlns="http://www.w3.org/2000/svg" xmlns:xlink="http://www.w3.org/1999/xlink">
<g id="graph0" class="graph" transform="scale(1 1) rotate(0) translate(4 78.25)">
<title>math::cylinder_volume</title>
<!-- Node1 -->
<g id="Node000001" class="node">
<title>Node1</title>
<g id="a_Node000001"><a xlink:title="The volume of a cylinder">
<polygon fill="#999999" stroke="#666666" points="114.25,-37.25 0,-37.25 0,-18 114.25,-18 114.25,-37.25"/>
<text text-anchor="middle" x="57.12" y="-23.75" font-family="Helvetica,sans-Serif" font-size="10.00">math::cylinder_volume</text>
</a>
</g>
</g>
<!-- Node2 -->
<g id="Node000002" class="node">
<title>Node2</title>
<g id="a_Node000002"><a xlink:href="../../d8/dee/avltree_8cpp.html#ae4a66d8b0c2b0d626aea45977e358c83" target="_top" xlink:title=" ">
<polygon fill="white" stroke="#666666" points="198.12,-56.25 155.88,-56.25 155.88,-37 198.12,-37 198.12,-56.25"/>
<text text-anchor="middle" x="177" y="-42.75" font-family="Helvetica,sans-Serif" font-size="10.00">height</text>
</a>
</g>
</g>
<!-- Node1&#45;&gt;Node2 -->
<g id="edge1_Node000001_Node000002" class="edge">
<title>Node1&#45;&gt;Node2</title>
<g id="a_edge1_Node000001_Node000002"><a xlink:title=" ">
<path fill="none" stroke="#63b8ff" d="M114.65,-36.74C125.06,-38.41 135.58,-40.11 144.9,-41.61"/>
<polygon fill="#63b8ff" stroke="#63b8ff" points="144.14,-45.2 154.57,-43.33 145.26,-38.29 144.14,-45.2"/>
</a>
</g>
</g>
<!-- Node4 -->
<g id="Node000004" class="node">
<title>Node4</title>
<g id="a_Node000004"><a target="_blank" xlink:href="http://en.cppreference.com/w/cpp/numeric/math/pow.html#" xlink:title=" ">
<polygon fill="white" stroke="#666666" points="203.75,-19.25 150.25,-19.25 150.25,0 203.75,0 203.75,-19.25"/>
<text text-anchor="middle" x="177" y="-5.75" font-family="Helvetica,sans-Serif" font-size="10.00">std::pow</text>
</a>
</g>
</g>
<!-- Node1&#45;&gt;Node4 -->
<g id="edge4_Node000001_Node000004" class="edge">
<title>Node1&#45;&gt;Node4</title>
<g id="a_edge4_Node000001_Node000004"><a xlink:title=" ">
<path fill="none" stroke="#63b8ff" d="M114.65,-18.99C122.9,-17.73 131.22,-16.46 138.96,-15.28"/>
<polygon fill="#63b8ff" stroke="#63b8ff" points="139.44,-18.6 148.79,-13.63 138.38,-11.68 139.44,-18.6"/>
</a>
</g>
</g>
<!-- Node2&#45;&gt;Node2 -->
<g id="edge2_Node000002_Node000002" class="edge">
<title>Node2&#45;&gt;Node2</title>
<g id="a_edge2_Node000002_Node000002"><a xlink:title=" ">
<path fill="none" stroke="#63b8ff" d="M162.93,-56.54C156.51,-65.15 161.2,-74.25 177,-74.25 185.89,-74.25 191.26,-71.37 193.12,-67.32"/>
<polygon fill="#63b8ff" stroke="#63b8ff" points="196.37,-66.71 191.07,-57.54 189.5,-68.02 196.37,-66.71"/>
</a>
</g>
</g>
<!-- Node3 -->
<g id="Node000003" class="node">
<title>Node3</title>
<g id="a_Node000003"><a target="_blank" xlink:href="http://en.cppreference.com/w/cpp/algorithm/max.html#" xlink:title=" ">
<polygon fill="white" stroke="#666666" points="294,-56.25 239.75,-56.25 239.75,-37 294,-37 294,-56.25"/>
<text text-anchor="middle" x="266.88" y="-42.75" font-family="Helvetica,sans-Serif" font-size="10.00">std::max</text>
</a>
</g>
</g>
<!-- Node2&#45;&gt;Node3 -->
<g id="edge3_Node000002_Node000003" class="edge">
<title>Node2&#45;&gt;Node3</title>
<g id="a_edge3_Node000002_Node000003"><a xlink:title=" ">
<path fill="none" stroke="#63b8ff" d="M198.38,-46.62C207.32,-46.62 218.1,-46.62 228.4,-46.62"/>
<polygon fill="#63b8ff" stroke="#63b8ff" points="228.27,-50.13 238.27,-46.62 228.27,-43.13 228.27,-50.13"/>
</a>
</g>
</g>
</g>
</svg>
