<?xml version="1.0" encoding="UTF-8" standalone="no"?>
<!DOCTYPE svg PUBLIC "-//W3C//DTD SVG 1.1//EN"
 "http://www.w3.org/Graphics/SVG/1.1/DTD/svg11.dtd">
<!-- Generated by graphviz version 8.1.0 (20230707.0739)
 -->
<!-- Title: math::triangle_area Pages: 1 -->
<svg width="276pt" height="45pt"
 viewBox="0.00 0.00 275.75 45.25" xmlns="http://www.w3.org/2000/svg" xmlns:xlink="http://www.w3.org/1999/xlink">
<g id="graph0" class="graph" transform="scale(1 1) rotate(0) translate(4 41.25)">
<title>math::triangle_area</title>
<!-- Node1 -->
<g id="Node000001" class="node">
<title>Node1</title>
<g id="a_Node000001"><a xlink:title="area of a triangle (b * h / 2)">
<polygon fill="#999999" stroke="#666666" points="99.25,-19.25 0,-19.25 0,0 99.25,0 99.25,-19.25"/>
<text text-anchor="middle" x="49.62" y="-5.75" font-family="Helvetica,sans-Serif" font-size="10.00">math::triangle_area</text>
</a>
</g>
</g>
<!-- Node2 -->
<g id="Node000002" class="node">
<title>Node2</title>
<g id="a_Node000002"><a xlink:href="../../d8/dee/avltree_8cpp.html#ae4a66d8b0c2b0d626aea45977e358c83" target="_top" xlink:title=" ">
<polygon fill="white" stroke="#666666" points="177.5,-19.25 135.25,-19.25 135.25,0 177.5,0 177.5,-19.25"/>
<text text-anchor="middle" x="156.38" y="-5.75" font-family="Helvetica,sans-Serif" font-size="10.00">height</text>
</a>
</g>
</g>
<!-- Node1&#45;&gt;Node2 -->
<g id="edge1_Node000001_Node000002" class="edge">
<title>Node1&#45;&gt;Node2</title>
<g id="a_edge1_Node000001_Node000002"><a xlink:title=" ">
<path fill="none" stroke="#63b8ff" d="M99.63,-9.62C107.9,-9.62 116.29,-9.62 123.96,-9.62"/>
<polygon fill="#63b8ff" stroke="#63b8ff" points="123.94,-13.13 133.94,-9.62 123.94,-6.13 123.94,-13.13"/>
</a>
</g>
</g>
<!-- Node2&#45;&gt;Node2 -->
<g id="edge2_Node000002_Node000002" class="edge">
<title>Node2&#45;&gt;Node2</title>
<g id="a_edge2_Node000002_Node000002"><a xlink:title=" ">
<path fill="none" stroke="#63b8ff" d="M143.19,-19.54C137.17,-28.15 141.57,-37.25 156.38,-37.25 164.71,-37.25 169.74,-34.37 171.48,-30.32"/>
<polygon fill="#63b8ff" stroke="#63b8ff" points="174.76,-29.77 169.56,-20.54 167.87,-31 174.76,-29.77"/>
</a>
</g>
</g>
<!-- Node3 -->
<g id="Node000003" class="node">
<title>Node3</title>
<g id="a_Node000003"><a target="_blank" xlink:href="http://en.cppreference.com/w/cpp/algorithm/max.html#" xlink:title=" ">
<polygon fill="white" stroke="#666666" points="267.75,-19.25 213.5,-19.25 213.5,0 267.75,0 267.75,-19.25"/>
<text text-anchor="middle" x="240.62" y="-5.75" font-family="Helvetica,sans-Serif" font-size="10.00">std::max</text>
</a>
</g>
</g>
<!-- Node2&#45;&gt;Node3 -->
<g id="edge3_Node000002_Node000003" class="edge">
<title>Node2&#45;&gt;Node3</title>
<g id="a_edge3_Node000002_Node000003"><a xlink:title=" ">
<path fill="none" stroke="#63b8ff" d="M177.71,-9.62C185.12,-9.62 193.75,-9.62 202.17,-9.62"/>
<polygon fill="#63b8ff" stroke="#63b8ff" points="202.01,-13.13 212.01,-9.62 202.01,-6.13 202.01,-13.13"/>
</a>
</g>
</g>
</g>
</svg>
