<?xml version="1.0" encoding="UTF-8" standalone="no"?>
<!DOCTYPE svg PUBLIC "-//W3C//DTD SVG 1.1//EN"
 "http://www.w3.org/Graphics/SVG/1.1/DTD/svg11.dtd">
<!-- Generated by graphviz version 8.1.0 (20230707.0739)
 -->
<!-- Title: main Pages: 1 -->
<svg width="514pt" height="382pt"
 viewBox="0.00 0.00 514.00 382.25" xmlns="http://www.w3.org/2000/svg" xmlns:xlink="http://www.w3.org/1999/xlink">
<g id="graph0" class="graph" transform="scale(1 1) rotate(0) translate(4 378.25)">
<title>main</title>
<!-- Node1 -->
<g id="Node000001" class="node">
<title>Node1</title>
<g id="a_Node000001"><a xlink:title=" ">
<polygon fill="#999999" stroke="#666666" points="37,-262.25 0,-262.25 0,-243 37,-243 37,-262.25"/>
<text text-anchor="middle" x="18.5" y="-248.75" font-family="Helvetica,sans-Serif" font-size="10.00">main</text>
</a>
</g>
</g>
<!-- Node2 -->
<g id="Node000002" class="node">
<title>Node2</title>
<g id="a_Node000002"><a target="_blank" xlink:href="http://en.cppreference.com/w/cpp/io/manip/endl.html#" xlink:title=" ">
<polygon fill="white" stroke="#666666" points="129.5,-355.25 76,-355.25 76,-336 129.5,-336 129.5,-355.25"/>
<text text-anchor="middle" x="102.75" y="-341.75" font-family="Helvetica,sans-Serif" font-size="10.00">std::endl</text>
</a>
</g>
</g>
<!-- Node1&#45;&gt;Node2 -->
<g id="edge1_Node000001_Node000002" class="edge">
<title>Node1&#45;&gt;Node2</title>
<g id="a_edge1_Node000001_Node000002"><a xlink:title=" ">
<path fill="none" stroke="#63b8ff" d="M24.87,-262.55C33.51,-277.86 51.69,-307.56 73,-327.62 73.58,-328.17 74.18,-328.71 74.79,-329.24"/>
<polygon fill="#63b8ff" stroke="#63b8ff" points="72.22,-332.43 82.33,-335.6 76.4,-326.82 72.22,-332.43"/>
</a>
</g>
</g>
<!-- Node3 -->
<g id="Node000003" class="node">
<title>Node3</title>
<g id="a_Node000003"><a target="_blank" xlink:href="http://en.cppreference.com/w/cpp/numeric/random/srand.html#" xlink:title=" ">
<polygon fill="white" stroke="#666666" points="132.5,-318.25 73,-318.25 73,-299 132.5,-299 132.5,-318.25"/>
<text text-anchor="middle" x="102.75" y="-304.75" font-family="Helvetica,sans-Serif" font-size="10.00">std::srand</text>
</a>
</g>
</g>
<!-- Node1&#45;&gt;Node3 -->
<g id="edge2_Node000001_Node000003" class="edge">
<title>Node1&#45;&gt;Node3</title>
<g id="a_edge2_Node000001_Node000003"><a xlink:title=" ">
<path fill="none" stroke="#63b8ff" d="M32.98,-262.53C43.71,-270.33 59.16,-281.39 73,-290.62 73.98,-291.28 74.98,-291.94 76,-292.6"/>
<polygon fill="#63b8ff" stroke="#63b8ff" points="73.91,-296.07 84.22,-298.51 77.69,-290.17 73.91,-296.07"/>
</a>
</g>
</g>
<!-- Node4 -->
<g id="Node000004" class="node">
<title>Node4</title>
<g id="a_Node000004"><a xlink:href="../../d3/dae/dsu__path__compression_8cpp.html#ae7880ce913f3058a35ff106d5be9e243" target="_top" xlink:title="Self&#45;test implementations, 1st test.">
<polygon fill="white" stroke="#666666" points="121.62,-281.25 83.88,-281.25 83.88,-262 121.62,-262 121.62,-281.25"/>
<text text-anchor="middle" x="102.75" y="-267.75" font-family="Helvetica,sans-Serif" font-size="10.00">test1</text>
</a>
</g>
</g>
<!-- Node1&#45;&gt;Node4 -->
<g id="edge3_Node000001_Node000004" class="edge">
<title>Node1&#45;&gt;Node4</title>
<g id="a_edge3_Node000001_Node000004"><a xlink:title=" ">
<path fill="none" stroke="#63b8ff" d="M37.35,-256.75C47.84,-259.17 61.34,-262.29 73.27,-265.05"/>
<polygon fill="#63b8ff" stroke="#63b8ff" points="72.12,-268.6 82.65,-267.44 73.7,-261.78 72.12,-268.6"/>
</a>
</g>
</g>
<!-- Node16 -->
<g id="Node000016" class="node">
<title>Node16</title>
<g id="a_Node000016"><a xlink:href="../../d3/dae/dsu__path__compression_8cpp.html#a45d94ead4cf4e1ff9f87c38bc99f59ae" target="_top" xlink:title="Self&#45;implementations, 2nd test.">
<polygon fill="white" stroke="#666666" points="121.62,-244.25 83.88,-244.25 83.88,-225 121.62,-225 121.62,-244.25"/>
<text text-anchor="middle" x="102.75" y="-230.75" font-family="Helvetica,sans-Serif" font-size="10.00">test2</text>
</a>
</g>
</g>
<!-- Node1&#45;&gt;Node16 -->
<g id="edge20_Node000001_Node000016" class="edge">
<title>Node1&#45;&gt;Node16</title>
<g id="a_edge20_Node000001_Node000016"><a xlink:title=" ">
<path fill="none" stroke="#63b8ff" d="M37.35,-248.72C47.84,-246.42 61.34,-243.47 73.27,-240.86"/>
<polygon fill="#63b8ff" stroke="#63b8ff" points="73.63,-244.14 82.65,-238.59 72.14,-237.3 73.63,-244.14"/>
</a>
</g>
</g>
<!-- Node17 -->
<g id="Node000017" class="node">
<title>Node17</title>
<g id="a_Node000017"><a xlink:href="../../dd/d0c/hamiltons__cycle_8cpp.html#a0cc94918b6831f308d4fe4fa27f08299" target="_top" xlink:title=" ">
<polygon fill="white" stroke="#666666" points="121.62,-207.25 83.88,-207.25 83.88,-188 121.62,-188 121.62,-207.25"/>
<text text-anchor="middle" x="102.75" y="-193.75" font-family="Helvetica,sans-Serif" font-size="10.00">test3</text>
</a>
</g>
</g>
<!-- Node1&#45;&gt;Node17 -->
<g id="edge24_Node000001_Node000017" class="edge">
<title>Node1&#45;&gt;Node17</title>
<g id="a_edge24_Node000001_Node000017"><a xlink:title=" ">
<path fill="none" stroke="#63b8ff" d="M33.46,-242.71C44.19,-235.16 59.42,-224.57 73,-215.62 74.13,-214.88 75.3,-214.12 76.48,-213.36"/>
<polygon fill="#63b8ff" stroke="#63b8ff" points="77.99,-215.91 84.55,-207.59 74.23,-210 77.99,-215.91"/>
</a>
</g>
</g>
<!-- Node21 -->
<g id="Node000021" class="node">
<title>Node21</title>
<g id="a_Node000021"><a target="_blank" xlink:href="http://en.cppreference.com/w/cpp/chrono/c/time.html#" xlink:title=" ">
<polygon fill="white" stroke="#666666" points="129.88,-170.25 75.62,-170.25 75.62,-151 129.88,-151 129.88,-170.25"/>
<text text-anchor="middle" x="102.75" y="-156.75" font-family="Helvetica,sans-Serif" font-size="10.00">std::time</text>
</a>
</g>
</g>
<!-- Node1&#45;&gt;Node21 -->
<g id="edge30_Node000001_Node000021" class="edge">
<title>Node1&#45;&gt;Node21</title>
<g id="a_edge30_Node000001_Node000021"><a xlink:title=" ">
<path fill="none" stroke="#63b8ff" d="M25.04,-242.59C33.78,-227.42 51.93,-198.34 73,-178.62 73.58,-178.08 74.18,-177.55 74.79,-177.02"/>
<polygon fill="#63b8ff" stroke="#63b8ff" points="76.4,-179.44 82.34,-170.67 72.23,-173.82 76.4,-179.44"/>
</a>
</g>
</g>
<!-- Node5 -->
<g id="Node000005" class="node">
<title>Node5</title>
<g id="a_Node000005"><a target="_blank" xlink:href="http://en.cppreference.com/w/cpp/container/vector/at.html#" xlink:title=" ">
<polygon fill="white" stroke="#666666" points="247.5,-318.25 170.75,-318.25 170.75,-299 247.5,-299 247.5,-318.25"/>
<text text-anchor="middle" x="209.12" y="-304.75" font-family="Helvetica,sans-Serif" font-size="10.00">std::vector::at</text>
</a>
</g>
</g>
<!-- Node4&#45;&gt;Node5 -->
<g id="edge4_Node000004_Node000005" class="edge">
<title>Node4&#45;&gt;Node5</title>
<g id="a_edge4_Node000004_Node000005"><a xlink:title=" ">
<path fill="none" stroke="#63b8ff" d="M121.93,-278.07C135.06,-282.72 153.27,-289.18 169.57,-294.96"/>
<polygon fill="#63b8ff" stroke="#63b8ff" points="168.35,-298.59 178.94,-298.63 170.68,-291.99 168.35,-298.59"/>
</a>
</g>
</g>
<!-- Node6 -->
<g id="Node000006" class="node">
<title>Node6</title>
<g id="a_Node000006"><a xlink:href="../../dd/d1f/classdsu.html#a0ce2672c570f4235eafddb0c9a58115a" target="_top" xlink:title="prints the minimum, maximum and size of the set to which i belongs to">
<polygon fill="white" stroke="#666666" points="234.75,-281.25 183.5,-281.25 183.5,-262 234.75,-262 234.75,-281.25"/>
<text text-anchor="middle" x="209.12" y="-267.75" font-family="Helvetica,sans-Serif" font-size="10.00">dsu::get</text>
</a>
</g>
</g>
<!-- Node4&#45;&gt;Node6 -->
<g id="edge5_Node000004_Node000006" class="edge">
<title>Node4&#45;&gt;Node6</title>
<g id="a_edge5_Node000004_Node000006"><a xlink:title=" ">
<path fill="none" stroke="#63b8ff" d="M121.93,-271.62C135.83,-271.62 155.42,-271.62 172.41,-271.62"/>
<polygon fill="#63b8ff" stroke="#63b8ff" points="172.12,-275.13 182.12,-271.62 172.12,-268.13 172.12,-275.13"/>
</a>
</g>
</g>
<!-- Node11 -->
<g id="Node000011" class="node">
<title>Node11</title>
<g id="a_Node000011"><a xlink:href="../../dd/d1f/classdsu.html#a6ac30c07abca2aaa3b291504c25c3559" target="_top" xlink:title="Method that combines two disjoint sets to which i and j belongs to and make a single set having a com...">
<polygon fill="white" stroke="#666666" points="248.25,-225.25 170,-225.25 170,-206 248.25,-206 248.25,-225.25"/>
<text text-anchor="middle" x="209.12" y="-211.75" font-family="Helvetica,sans-Serif" font-size="10.00">dsu::UnionSet</text>
</a>
</g>
</g>
<!-- Node4&#45;&gt;Node11 -->
<g id="edge13_Node000004_Node000011" class="edge">
<title>Node4&#45;&gt;Node11</title>
<g id="a_edge13_Node000004_Node000011"><a xlink:title=" ">
<path fill="none" stroke="#63b8ff" d="M121.93,-261.87C137.9,-253.3 161.39,-240.7 179.81,-230.81"/>
<polygon fill="#63b8ff" stroke="#63b8ff" points="181.29,-233.46 188.45,-225.64 177.98,-227.29 181.29,-233.46"/>
</a>
</g>
</g>
<!-- Node7 -->
<g id="Node000007" class="node">
<title>Node7</title>
<g id="a_Node000007"><a xlink:href="../../dd/d1f/classdsu.html#a696141b8b092466767f4bfe1c5e46cde" target="_top" xlink:title="A utility function that returns the max element of the set to which i belongs to.">
<polygon fill="white" stroke="#666666" points="381.25,-374.25 306,-374.25 306,-355 381.25,-355 381.25,-374.25"/>
<text text-anchor="middle" x="343.62" y="-360.75" font-family="Helvetica,sans-Serif" font-size="10.00">dsu::get_max</text>
</a>
</g>
</g>
<!-- Node6&#45;&gt;Node7 -->
<g id="edge6_Node000006_Node000007" class="edge">
<title>Node6&#45;&gt;Node7</title>
<g id="a_edge6_Node000006_Node000007"><a xlink:title=" ">
<path fill="none" stroke="#63b8ff" d="M234.93,-280.21C240.17,-282.73 245.42,-285.85 249.75,-289.62 272.34,-309.31 262.02,-328.33 285.75,-346.62 288.75,-348.94 292.06,-350.96 295.52,-352.73"/>
<polygon fill="#63b8ff" stroke="#63b8ff" points="294,-356.31 304.57,-357.05 296.77,-349.88 294,-356.31"/>
</a>
</g>
</g>
<!-- Node9 -->
<g id="Node000009" class="node">
<title>Node9</title>
<g id="a_Node000009"><a xlink:href="../../dd/d1f/classdsu.html#ac713a5b496d0405c82e2808a85e58415" target="_top" xlink:title="A utility function that returns the min element of the set to which i belongs to.">
<polygon fill="white" stroke="#666666" points="379.75,-337.25 307.5,-337.25 307.5,-318 379.75,-318 379.75,-337.25"/>
<text text-anchor="middle" x="343.62" y="-323.75" font-family="Helvetica,sans-Serif" font-size="10.00">dsu::get_min</text>
</a>
</g>
</g>
<!-- Node6&#45;&gt;Node9 -->
<g id="edge9_Node000006_Node000009" class="edge">
<title>Node6&#45;&gt;Node9</title>
<g id="a_edge9_Node000006_Node000009"><a xlink:title=" ">
<path fill="none" stroke="#63b8ff" d="M232.91,-281.59C238.46,-284.13 244.35,-286.91 249.75,-289.62 266.1,-297.86 268.94,-302.38 285.75,-309.62 289.34,-311.17 293.1,-312.65 296.92,-314.05"/>
<polygon fill="#63b8ff" stroke="#63b8ff" points="295.43,-317.59 306.03,-317.57 297.73,-310.98 295.43,-317.59"/>
</a>
</g>
</g>
<!-- Node10 -->
<g id="Node000010" class="node">
<title>Node10</title>
<g id="a_Node000010"><a xlink:href="../../dd/d1f/classdsu.html#a1c24228b0f2f49220133fb8c3566a55c" target="_top" xlink:title="A utility function that returns the size of the set to which i belongs to.">
<polygon fill="white" stroke="#666666" points="371.5,-300.25 315.75,-300.25 315.75,-281 371.5,-281 371.5,-300.25"/>
<text text-anchor="middle" x="343.62" y="-286.75" font-family="Helvetica,sans-Serif" font-size="10.00">dsu::size</text>
</a>
</g>
</g>
<!-- Node6&#45;&gt;Node10 -->
<g id="edge11_Node000006_Node000010" class="edge">
<title>Node6&#45;&gt;Node10</title>
<g id="a_edge11_Node000006_Node000010"><a xlink:title=" ">
<path fill="none" stroke="#63b8ff" d="M235.05,-275.2C254.67,-278.01 282.35,-281.98 304.72,-285.19"/>
<polygon fill="#63b8ff" stroke="#63b8ff" points="304.14,-288.79 314.53,-286.74 305.13,-281.86 304.14,-288.79"/>
</a>
</g>
</g>
<!-- Node8 -->
<g id="Node000008" class="node">
<title>Node8</title>
<g id="a_Node000008"><a xlink:href="../../dd/d1f/classdsu.html#a16851f78fe390fc1430905c83d6a2f1c" target="_top" xlink:title="Method to find the representative of the set to which i belongs to, T(n) = O(1)">
<polygon fill="white" stroke="#666666" points="506,-300.25 437.5,-300.25 437.5,-281 506,-281 506,-300.25"/>
<text text-anchor="middle" x="471.75" y="-286.75" font-family="Helvetica,sans-Serif" font-size="10.00">dsu::findSet</text>
</a>
</g>
</g>
<!-- Node7&#45;&gt;Node8 -->
<g id="edge7_Node000007_Node000008" class="edge">
<title>Node7&#45;&gt;Node8</title>
<g id="a_edge7_Node000007_Node000008"><a xlink:title=" ">
<path fill="none" stroke="#63b8ff" d="M381.56,-355.16C388.38,-352.79 395.3,-349.96 401.5,-346.62 420.71,-336.3 439.79,-320.34 453.03,-308.1"/>
<polygon fill="#63b8ff" stroke="#63b8ff" points="455,-311.11 459.84,-301.69 450.18,-306.03 455,-311.11"/>
</a>
</g>
</g>
<!-- Node8&#45;&gt;Node8 -->
<g id="edge8_Node000008_Node000008" class="edge">
<title>Node8&#45;&gt;Node8</title>
<g id="a_edge8_Node000008_Node000008"><a xlink:title=" ">
<path fill="none" stroke="#63b8ff" d="M451.69,-300.54C442.54,-309.15 449.23,-318.25 471.75,-318.25 484.77,-318.25 492.5,-315.21 494.93,-310.98"/>
<polygon fill="#63b8ff" stroke="#63b8ff" points="498.03,-310.11 491.81,-301.54 491.32,-312.12 498.03,-310.11"/>
</a>
</g>
</g>
<!-- Node9&#45;&gt;Node8 -->
<g id="edge10_Node000009_Node000008" class="edge">
<title>Node9&#45;&gt;Node8</title>
<g id="a_edge10_Node000009_Node000008"><a xlink:title=" ">
<path fill="none" stroke="#63b8ff" d="M379.09,-317.51C393.79,-313.2 411.11,-308.12 426.72,-303.54"/>
<polygon fill="#63b8ff" stroke="#63b8ff" points="427.59,-306.64 436.2,-300.47 425.62,-299.92 427.59,-306.64"/>
</a>
</g>
</g>
<!-- Node10&#45;&gt;Node8 -->
<g id="edge12_Node000010_Node000008" class="edge">
<title>Node10&#45;&gt;Node8</title>
<g id="a_edge12_Node000010_Node000008"><a xlink:title=" ">
<path fill="none" stroke="#63b8ff" d="M371.99,-290.62C387.83,-290.62 408.15,-290.62 426.24,-290.62"/>
<polygon fill="#63b8ff" stroke="#63b8ff" points="426.15,-294.13 436.15,-290.62 426.15,-287.13 426.15,-294.13"/>
</a>
</g>
</g>
<!-- Node11&#45;&gt;Node8 -->
<g id="edge14_Node000011_Node000008" class="edge">
<title>Node11&#45;&gt;Node8</title>
<g id="a_edge14_Node000011_Node000008"><a xlink:title=" ">
<path fill="none" stroke="#63b8ff" d="M248.71,-213.11C288.51,-211.95 351.62,-214.15 401.5,-234.62 422.15,-243.1 441.53,-259.83 454.51,-272.8"/>
<polygon fill="#63b8ff" stroke="#63b8ff" points="451.61,-274.88 461.06,-279.66 456.66,-270.03 451.61,-274.88"/>
</a>
</g>
</g>
<!-- Node12 -->
<g id="Node000012" class="node">
<title>Node12</title>
<g id="a_Node000012"><a xlink:href="../../dd/d1f/classdsu.html#a64d25c5986742f7c234ed449b2ff7303" target="_top" xlink:title="A utility function which check whether i and j belongs to same set or not.">
<polygon fill="white" stroke="#666666" points="379,-187.25 308.25,-187.25 308.25,-168 379,-168 379,-187.25"/>
<text text-anchor="middle" x="343.62" y="-173.75" font-family="Helvetica,sans-Serif" font-size="10.00">dsu::isSame</text>
</a>
</g>
</g>
<!-- Node11&#45;&gt;Node12 -->
<g id="edge15_Node000011_Node000012" class="edge">
<title>Node11&#45;&gt;Node12</title>
<g id="a_edge15_Node000011_Node000012"><a xlink:title=" ">
<path fill="none" stroke="#63b8ff" d="M245.28,-205.54C261.28,-200.95 280.41,-195.47 297.46,-190.58"/>
<polygon fill="#63b8ff" stroke="#63b8ff" points="298.11,-193.75 306.76,-187.62 296.18,-187.02 298.11,-193.75"/>
</a>
</g>
</g>
<!-- Node13 -->
<g id="Node000013" class="node">
<title>Node13</title>
<g id="a_Node000013"><a target="_blank" xlink:href="http://en.cppreference.com/w/cpp/algorithm/max.html#" xlink:title=" ">
<polygon fill="white" stroke="#666666" points="498.88,-103.25 444.62,-103.25 444.62,-84 498.88,-84 498.88,-103.25"/>
<text text-anchor="middle" x="471.75" y="-89.75" font-family="Helvetica,sans-Serif" font-size="10.00">std::max</text>
</a>
</g>
</g>
<!-- Node11&#45;&gt;Node13 -->
<g id="edge17_Node000011_Node000013" class="edge">
<title>Node11&#45;&gt;Node13</title>
<g id="a_edge17_Node000011_Node000013"><a xlink:title=" ">
<path fill="none" stroke="#63b8ff" d="M220.63,-205.91C234.57,-193.45 260.4,-171.87 285.75,-158.62 333.74,-133.55 350.54,-138.91 401.5,-120.62 412.73,-116.6 424.88,-111.96 435.82,-107.67"/>
<polygon fill="#63b8ff" stroke="#63b8ff" points="436.86,-110.63 444.87,-103.7 434.29,-104.12 436.86,-110.63"/>
</a>
</g>
</g>
<!-- Node14 -->
<g id="Node000014" class="node">
<title>Node14</title>
<g id="a_Node000014"><a target="_blank" xlink:href="http://en.cppreference.com/w/cpp/algorithm/min.html#" xlink:title=" ">
<polygon fill="white" stroke="#666666" points="369.25,-111.25 318,-111.25 318,-92 369.25,-92 369.25,-111.25"/>
<text text-anchor="middle" x="343.62" y="-97.75" font-family="Helvetica,sans-Serif" font-size="10.00">std::min</text>
</a>
</g>
</g>
<!-- Node11&#45;&gt;Node14 -->
<g id="edge18_Node000011_Node000014" class="edge">
<title>Node11&#45;&gt;Node14</title>
<g id="a_edge18_Node000011_Node000014"><a xlink:title=" ">
<path fill="none" stroke="#63b8ff" d="M216.21,-205.64C227.72,-187.48 254.38,-148.77 285.75,-125.62 292.33,-120.77 300.04,-116.68 307.63,-113.32"/>
<polygon fill="#63b8ff" stroke="#63b8ff" points="308.82,-116.21 316.77,-109.2 306.19,-109.72 308.82,-116.21"/>
</a>
</g>
</g>
<!-- Node15 -->
<g id="Node000015" class="node">
<title>Node15</title>
<g id="a_Node000015"><a target="_blank" xlink:href="http://en.cppreference.com/w/cpp/algorithm/swap.html#" xlink:title=" ">
<polygon fill="white" stroke="#666666" points="373,-263.25 314.25,-263.25 314.25,-244 373,-244 373,-263.25"/>
<text text-anchor="middle" x="343.62" y="-249.75" font-family="Helvetica,sans-Serif" font-size="10.00">std::swap</text>
</a>
</g>
</g>
<!-- Node11&#45;&gt;Node15 -->
<g id="edge19_Node000011_Node000015" class="edge">
<title>Node11&#45;&gt;Node15</title>
<g id="a_edge19_Node000011_Node000015"><a xlink:title=" ">
<path fill="none" stroke="#63b8ff" d="M245.28,-225.71C263.23,-230.86 285.11,-237.13 303.58,-242.43"/>
<polygon fill="#63b8ff" stroke="#63b8ff" points="302.42,-246.02 313,-245.42 304.35,-239.29 302.42,-246.02"/>
</a>
</g>
</g>
<!-- Node12&#45;&gt;Node8 -->
<g id="edge16_Node000012_Node000008" class="edge">
<title>Node12&#45;&gt;Node8</title>
<g id="a_edge16_Node000012_Node000008"><a xlink:title=" ">
<path fill="none" stroke="#63b8ff" d="M376.29,-187.65C384.96,-191.25 394.02,-195.88 401.5,-201.62 426.76,-221.01 447.88,-251.69 459.92,-271.48"/>
<polygon fill="#63b8ff" stroke="#63b8ff" points="457.27,-272.89 465.36,-279.73 463.3,-269.33 457.27,-272.89"/>
</a>
</g>
</g>
<!-- Node16&#45;&gt;Node5 -->
<g id="edge21_Node000016_Node000005" class="edge">
<title>Node16&#45;&gt;Node5</title>
<g id="a_edge21_Node000016_Node000005"><a xlink:title=" ">
<path fill="none" stroke="#63b8ff" d="M121.27,-244.6C125.1,-247.05 129.04,-249.79 132.5,-252.62 150.5,-267.36 149.56,-277.12 168.5,-290.62 169.81,-291.56 171.17,-292.46 172.57,-293.33"/>
<polygon fill="#63b8ff" stroke="#63b8ff" points="170.72,-296.85 181.17,-298.59 174.08,-290.71 170.72,-296.85"/>
</a>
</g>
</g>
<!-- Node16&#45;&gt;Node6 -->
<g id="edge22_Node000016_Node000006" class="edge">
<title>Node16&#45;&gt;Node6</title>
<g id="a_edge22_Node000016_Node000006"><a xlink:title=" ">
<path fill="none" stroke="#63b8ff" d="M121.93,-241.07C135.96,-246.04 155.79,-253.07 172.89,-259.14"/>
<polygon fill="#63b8ff" stroke="#63b8ff" points="171.52,-262.72 182.12,-262.76 173.86,-256.12 171.52,-262.72"/>
</a>
</g>
</g>
<!-- Node16&#45;&gt;Node11 -->
<g id="edge23_Node000016_Node000011" class="edge">
<title>Node16&#45;&gt;Node11</title>
<g id="a_edge23_Node000016_Node000011"><a xlink:title=" ">
<path fill="none" stroke="#63b8ff" d="M121.93,-231.32C132.35,-229.42 145.96,-226.94 159.29,-224.52"/>
<polygon fill="#63b8ff" stroke="#63b8ff" points="159.63,-227.83 168.84,-222.59 158.38,-220.94 159.63,-227.83"/>
</a>
</g>
</g>
<!-- Node18 -->
<g id="Node000018" class="node">
<title>Node18</title>
<g id="a_Node000018"><a xlink:href="../../dd/d0c/hamiltons__cycle_8cpp.html#abcf824e347eecfeeb69ea0280f34f3e4" target="_top" xlink:title=" ">
<polygon fill="white" stroke="#666666" points="249.75,-56.25 168.5,-56.25 168.5,-37 249.75,-37 249.75,-56.25"/>
<text text-anchor="middle" x="209.12" y="-42.75" font-family="Helvetica,sans-Serif" font-size="10.00">hamilton_cycle</text>
</a>
</g>
</g>
<!-- Node17&#45;&gt;Node18 -->
<g id="edge25_Node000017_Node000018" class="edge">
<title>Node17&#45;&gt;Node18</title>
<g id="a_edge25_Node000017_Node000018"><a xlink:title=" ">
<path fill="none" stroke="#63b8ff" d="M122.11,-188.04C125.81,-185.6 129.48,-182.77 132.5,-179.62 165.13,-145.58 188.88,-94.79 200.36,-66.85"/>
<polygon fill="#63b8ff" stroke="#63b8ff" points="203.95,-68.3 204.41,-57.71 197.45,-65.7 203.95,-68.3"/>
</a>
</g>
</g>
<!-- Node19 -->
<g id="Node000019" class="node">
<title>Node19</title>
<g id="a_Node000019"><a xlink:href="../../d8/dee/avltree_8cpp.html#ae4a66d8b0c2b0d626aea45977e358c83" target="_top" xlink:title=" ">
<polygon fill="white" stroke="#666666" points="364.75,-56.25 322.5,-56.25 322.5,-37 364.75,-37 364.75,-56.25"/>
<text text-anchor="middle" x="343.62" y="-42.75" font-family="Helvetica,sans-Serif" font-size="10.00">height</text>
</a>
</g>
</g>
<!-- Node18&#45;&gt;Node19 -->
<g id="edge26_Node000018_Node000019" class="edge">
<title>Node18&#45;&gt;Node19</title>
<g id="a_edge26_Node000018_Node000019"><a xlink:title=" ">
<path fill="none" stroke="#63b8ff" d="M250.24,-46.62C269.83,-46.62 293.04,-46.62 311.3,-46.62"/>
<polygon fill="#63b8ff" stroke="#63b8ff" points="311.23,-50.13 321.23,-46.62 311.23,-43.13 311.23,-50.13"/>
</a>
</g>
</g>
<!-- Node20 -->
<g id="Node000020" class="node">
<title>Node20</title>
<g id="a_Node000020"><a target="_blank" xlink:href="http://en.cppreference.com/w/cpp/container/vector/push_back.html#" xlink:title=" ">
<polygon fill="white" stroke="#666666" points="401.5,-19.25 285.75,-19.25 285.75,0 401.5,0 401.5,-19.25"/>
<text text-anchor="middle" x="343.62" y="-5.75" font-family="Helvetica,sans-Serif" font-size="10.00">std::vector::push_back</text>
</a>
</g>
</g>
<!-- Node18&#45;&gt;Node20 -->
<g id="edge29_Node000018_Node000020" class="edge">
<title>Node18&#45;&gt;Node20</title>
<g id="a_edge29_Node000018_Node000020"><a xlink:title=" ">
<path fill="none" stroke="#63b8ff" d="M246.33,-36.51C261.67,-32.23 279.73,-27.19 296.04,-22.63"/>
<polygon fill="#63b8ff" stroke="#63b8ff" points="296.77,-25.78 305.46,-19.72 294.89,-19.04 296.77,-25.78"/>
</a>
</g>
</g>
<!-- Node19&#45;&gt;Node13 -->
<g id="edge28_Node000019_Node000013" class="edge">
<title>Node19&#45;&gt;Node13</title>
<g id="a_edge28_Node000019_Node000013"><a xlink:title=" ">
<path fill="none" stroke="#63b8ff" d="M365.17,-54.28C383.85,-61.24 411.85,-71.68 434.32,-80.05"/>
<polygon fill="#63b8ff" stroke="#63b8ff" points="432.93,-83.64 443.52,-83.85 435.37,-77.08 432.93,-83.64"/>
</a>
</g>
</g>
<!-- Node19&#45;&gt;Node19 -->
<g id="edge27_Node000019_Node000019" class="edge">
<title>Node19&#45;&gt;Node19</title>
<g id="a_edge27_Node000019_Node000019"><a xlink:title=" ">
<path fill="none" stroke="#63b8ff" d="M323.57,-56.54C314.42,-65.15 321.1,-74.25 343.62,-74.25 356.65,-74.25 364.37,-71.21 366.81,-66.98"/>
<polygon fill="#63b8ff" stroke="#63b8ff" points="369.9,-66.11 363.68,-57.54 363.2,-68.12 369.9,-66.11"/>
</a>
</g>
</g>
</g>
</svg>
