<?xml version="1.0" encoding="UTF-8" standalone="no"?>
<!DOCTYPE svg PUBLIC "-//W3C//DTD SVG 1.1//EN"
 "http://www.w3.org/Graphics/SVG/1.1/DTD/svg11.dtd">
<!-- Generated by graphviz version 8.1.0 (20230707.0739)
 -->
<!-- Title: divide_and_conquer::karatsuba_algorithm::karatsuba_algorithm Pages: 1 -->
<svg width="383pt" height="180pt"
 viewBox="0.00 0.00 383.00 180.25" xmlns="http://www.w3.org/2000/svg" xmlns:xlink="http://www.w3.org/1999/xlink">
<g id="graph0" class="graph" transform="scale(1 1) rotate(0) translate(4 176.25)">
<title>divide_and_conquer::karatsuba_algorithm::karatsuba_algorithm</title>
<!-- Node1 -->
<g id="Node000001" class="node">
<title>Node1</title>
<g id="a_Node000001"><a xlink:title="The main function implements Karatsuba&#39;s algorithm for fast multiplication.">
<polygon fill="#999999" stroke="#666666" points="109.75,-92.5 0,-92.5 0,-50.75 109.75,-50.75 109.75,-92.5"/>
<text text-anchor="start" x="8" y="-79" font-family="Helvetica,sans-Serif" font-size="10.00">divide_and_conquer</text>
<text text-anchor="start" x="8" y="-67.75" font-family="Helvetica,sans-Serif" font-size="10.00">::karatsuba_algorithm</text>
<text text-anchor="middle" x="54.88" y="-56.5" font-family="Helvetica,sans-Serif" font-size="10.00">::karatsuba_algorithm</text>
</a>
</g>
</g>
<!-- Node2 -->
<g id="Node000002" class="node">
<title>Node2</title>
<g id="a_Node000002"><a xlink:href="../../da/dd3/karatsuba__algorithm__for__fast__multiplication_8cpp.html#a7d1dbae365c7746295d3322e6f7f80b6" target="_top" xlink:title="Helper function for the main function, that implements Karatsuba&#39;s algorithm for fast multiplication.">
<polygon fill="white" stroke="#666666" points="255.5,-117.5 145.75,-117.5 145.75,-75.75 255.5,-75.75 255.5,-117.5"/>
<text text-anchor="start" x="153.75" y="-104" font-family="Helvetica,sans-Serif" font-size="10.00">divide_and_conquer</text>
<text text-anchor="start" x="153.75" y="-92.75" font-family="Helvetica,sans-Serif" font-size="10.00">::karatsuba_algorithm</text>
<text text-anchor="middle" x="200.62" y="-81.5" font-family="Helvetica,sans-Serif" font-size="10.00">::addStrings</text>
</a>
</g>
</g>
<!-- Node1&#45;&gt;Node2 -->
<g id="edge1_Node000001_Node000002" class="edge">
<title>Node1&#45;&gt;Node2</title>
<g id="a_edge1_Node000001_Node000002"><a xlink:title=" ">
<path fill="none" stroke="#63b8ff" d="M110.22,-81.08C118.29,-82.48 126.68,-83.94 134.93,-85.37"/>
<polygon fill="#63b8ff" stroke="#63b8ff" points="134.23,-88.98 144.68,-87.24 135.43,-82.08 134.23,-88.98"/>
</a>
</g>
</g>
<!-- Node4 -->
<g id="Node000004" class="node">
<title>Node4</title>
<g id="a_Node000004"><a target="_blank" xlink:href="http://en.cppreference.com/w/cpp/algorithm/max.html#" xlink:title=" ">
<polygon fill="white" stroke="#666666" points="360.38,-172.25 306.12,-172.25 306.12,-153 360.38,-153 360.38,-172.25"/>
<text text-anchor="middle" x="333.25" y="-158.75" font-family="Helvetica,sans-Serif" font-size="10.00">std::max</text>
</a>
</g>
</g>
<!-- Node1&#45;&gt;Node4 -->
<g id="edge7_Node000001_Node000004" class="edge">
<title>Node1&#45;&gt;Node4</title>
<g id="a_edge7_Node000001_Node000004"><a xlink:title=" ">
<path fill="none" stroke="#63b8ff" d="M74.99,-92.92C91.79,-110.09 117.85,-133.18 145.75,-144.62 194.51,-164.62 256.25,-166.52 295.01,-165.21"/>
<polygon fill="#63b8ff" stroke="#63b8ff" points="294.94,-168.68 304.78,-164.75 294.64,-161.68 294.94,-168.68"/>
</a>
</g>
</g>
<!-- Node5 -->
<g id="Node000005" class="node">
<title>Node5</title>
<g id="a_Node000005"><a target="_blank" xlink:href="http://en.cppreference.com/w/cpp/string/basic_string/size.html#" xlink:title=" ">
<polygon fill="white" stroke="#666666" points="375,-59.25 291.5,-59.25 291.5,-40 375,-40 375,-59.25"/>
<text text-anchor="middle" x="333.25" y="-45.75" font-family="Helvetica,sans-Serif" font-size="10.00">std::string::size</text>
</a>
</g>
</g>
<!-- Node1&#45;&gt;Node5 -->
<g id="edge8_Node000001_Node000005" class="edge">
<title>Node1&#45;&gt;Node5</title>
<g id="a_edge8_Node000001_Node000005"><a xlink:title=" ">
<path fill="none" stroke="#63b8ff" d="M110.15,-67.3C159.44,-63.38 231.67,-57.63 280.24,-53.76"/>
<polygon fill="#63b8ff" stroke="#63b8ff" points="280.45,-57.18 290.14,-52.9 279.89,-50.2 280.45,-57.18"/>
</a>
</g>
</g>
<!-- Node7 -->
<g id="Node000007" class="node">
<title>Node7</title>
<g id="a_Node000007"><a target="_blank" xlink:href="http://en.cppreference.com/w/cpp/string/basic_string/substr.html#" xlink:title=" ">
<polygon fill="white" stroke="#666666" points="246.88,-19.25 154.38,-19.25 154.38,0 246.88,0 246.88,-19.25"/>
<text text-anchor="middle" x="200.62" y="-5.75" font-family="Helvetica,sans-Serif" font-size="10.00">std::string::substr</text>
</a>
</g>
</g>
<!-- Node1&#45;&gt;Node7 -->
<g id="edge9_Node000001_Node000007" class="edge">
<title>Node1&#45;&gt;Node7</title>
<g id="a_edge9_Node000001_Node000007"><a xlink:title=" ">
<path fill="none" stroke="#63b8ff" d="M105.35,-50.29C125.44,-41.62 148.13,-31.83 166.22,-24.03"/>
<polygon fill="#63b8ff" stroke="#63b8ff" points="167.48,-26.87 175.28,-19.69 164.71,-20.44 167.48,-26.87"/>
</a>
</g>
</g>
<!-- Node2&#45;&gt;Node2 -->
<g id="edge2_Node000002_Node000002" class="edge">
<title>Node2&#45;&gt;Node2</title>
<g id="a_edge2_Node000002_Node000002"><a xlink:title=" ">
<path fill="none" stroke="#63b8ff" d="M176.15,-117.82C173.82,-127.3 181.97,-135.5 200.62,-135.5 211.7,-135.5 219.07,-132.61 222.75,-128.28"/>
<polygon fill="#63b8ff" stroke="#63b8ff" points="226.32,-129.34 225.1,-118.82 219.49,-127.81 226.32,-129.34"/>
</a>
</g>
</g>
<!-- Node3 -->
<g id="Node000003" class="node">
<title>Node3</title>
<g id="a_Node000003"><a target="_blank" xlink:href="http://en.cppreference.com/w/cpp/string/basic_string/at.html#" xlink:title=" ">
<polygon fill="white" stroke="#666666" points="370.12,-134.25 296.38,-134.25 296.38,-115 370.12,-115 370.12,-134.25"/>
<text text-anchor="middle" x="333.25" y="-120.75" font-family="Helvetica,sans-Serif" font-size="10.00">std::string::at</text>
</a>
</g>
</g>
<!-- Node2&#45;&gt;Node3 -->
<g id="edge3_Node000002_Node000003" class="edge">
<title>Node2&#45;&gt;Node3</title>
<g id="a_edge3_Node000002_Node000003"><a xlink:title=" ">
<path fill="none" stroke="#63b8ff" d="M255.89,-108.26C265.77,-110.37 275.99,-112.57 285.63,-114.63"/>
<polygon fill="#63b8ff" stroke="#63b8ff" points="284.69,-118.23 295.21,-116.9 286.16,-111.38 284.69,-118.23"/>
</a>
</g>
</g>
<!-- Node2&#45;&gt;Node4 -->
<g id="edge4_Node000002_Node000004" class="edge">
<title>Node2&#45;&gt;Node4</title>
<g id="a_edge4_Node000002_Node000004"><a xlink:title=" ">
<path fill="none" stroke="#63b8ff" d="M241.24,-117.84C256.83,-126.05 274.93,-135.43 291.5,-143.62 294.32,-145.02 297.26,-146.45 300.22,-147.86"/>
<polygon fill="#63b8ff" stroke="#63b8ff" points="298.63,-151.45 309.17,-152.55 301.62,-145.12 298.63,-151.45"/>
</a>
</g>
</g>
<!-- Node2&#45;&gt;Node5 -->
<g id="edge5_Node000002_Node000005" class="edge">
<title>Node2&#45;&gt;Node5</title>
<g id="a_edge5_Node000002_Node000005"><a xlink:title=" ">
<path fill="none" stroke="#63b8ff" d="M255.89,-77.1C268.79,-72.46 282.29,-67.6 294.28,-63.29"/>
<polygon fill="#63b8ff" stroke="#63b8ff" points="295.16,-66.33 303.38,-59.65 292.79,-59.74 295.16,-66.33"/>
</a>
</g>
</g>
<!-- Node6 -->
<g id="Node000006" class="node">
<title>Node6</title>
<g id="a_Node000006"><a target="_blank" xlink:href="http://en.cppreference.com/w/cpp/string/basic_string/to_string.html#" xlink:title=" ">
<polygon fill="white" stroke="#666666" points="369.75,-97.25 296.75,-97.25 296.75,-78 369.75,-78 369.75,-97.25"/>
<text text-anchor="middle" x="333.25" y="-83.75" font-family="Helvetica,sans-Serif" font-size="10.00">std::to_string</text>
</a>
</g>
</g>
<!-- Node2&#45;&gt;Node6 -->
<g id="edge6_Node000002_Node000006" class="edge">
<title>Node2&#45;&gt;Node6</title>
<g id="a_edge6_Node000002_Node000006"><a xlink:title=" ">
<path fill="none" stroke="#63b8ff" d="M255.89,-92.89C265.87,-92.2 276.21,-91.49 285.93,-90.82"/>
<polygon fill="#63b8ff" stroke="#63b8ff" points="285.86,-94.26 295.59,-90.08 285.37,-87.28 285.86,-94.26"/>
</a>
</g>
</g>
</g>
</svg>
