<?xml version="1.0" encoding="UTF-8" standalone="no"?>
<!DOCTYPE svg PUBLIC "-//W3C//DTD SVG 1.1//EN"
 "http://www.w3.org/Graphics/SVG/1.1/DTD/svg11.dtd">
<!-- Generated by graphviz version 8.1.0 (20230707.0739)
 -->
<!-- Title: divide_and_conquer::karatsuba_algorithm::addStrings Pages: 1 -->
<svg width="237pt" height="138pt"
 viewBox="0.00 0.00 237.25 138.25" xmlns="http://www.w3.org/2000/svg" xmlns:xlink="http://www.w3.org/1999/xlink">

<svg id="main" version="1.1" xmlns="http://www.w3.org/2000/svg" xmlns:xlink="http://www.w3.org/1999/xlink" xml:space="preserve" onload="init(evt)">
<style type="text/css"><![CDATA[
.node, .edge {opacity: 0.7;}
.node.selected, .edge.selected {opacity: 1;}
.edge:hover path { stroke: red; }
.edge:hover polygon { stroke: red; fill: red; }
]]></style>
<script type="application/ecmascript" xlink:href="../../svg.min.js"/>
<svg id="graph" class="graph">
<g id="graph0" class="graph" transform="scale(1 1) rotate(0) translate(4 134.25)">
<title>divide_and_conquer::karatsuba_algorithm::addStrings</title>
<!-- Node1 -->
<g id="Node000001" class="node">
<title>Node1</title>
<g id="a_Node000001"><a xlink:title="Helper function for the main function, that implements Karatsuba&#39;s algorithm for fast multiplication.">
<polygon fill="#999999" stroke="#666666" points="109.75,-85.5 0,-85.5 0,-43.75 109.75,-43.75 109.75,-85.5"/>
<text text-anchor="start" x="8" y="-72" font-family="Helvetica,sans-Serif" font-size="10.00">divide_and_conquer</text>
<text text-anchor="start" x="8" y="-60.75" font-family="Helvetica,sans-Serif" font-size="10.00">::karatsuba_algorithm</text>
<text text-anchor="middle" x="54.88" y="-49.5" font-family="Helvetica,sans-Serif" font-size="10.00">::addStrings</text>
</a>
</g>
</g>
<!-- Node1&#45;&gt;Node1 -->
<g id="edge1_Node000001_Node000001" class="edge">
<title>Node1&#45;&gt;Node1</title>
<g id="a_edge1_Node000001_Node000001"><a xlink:title=" ">
<path fill="none" stroke="#63b8ff" d="M30.4,-85.82C28.07,-95.3 36.22,-103.5 54.88,-103.5 65.95,-103.5 73.32,-100.61 77,-96.28"/>
<polygon fill="#63b8ff" stroke="#63b8ff" points="80.57,-97.34 79.35,-86.82 73.74,-95.81 80.57,-97.34"/>
</a>
</g>
</g>
<!-- Node2 -->
<g id="Node000002" class="node">
<title>Node2</title>
<g id="a_Node000002"><a target="_blank" xlink:href="http://en.cppreference.com/w/cpp/string/basic_string/at.html#" xlink:title=" ">
<polygon fill="white" stroke="#666666" points="224.38,-130.25 150.62,-130.25 150.62,-111 224.38,-111 224.38,-130.25"/>
<text text-anchor="middle" x="187.5" y="-116.75" font-family="Helvetica,sans-Serif" font-size="10.00">std::string::at</text>
</a>
</g>
</g>
<!-- Node1&#45;&gt;Node2 -->
<g id="edge2_Node000001_Node000002" class="edge">
<title>Node1&#45;&gt;Node2</title>
<g id="a_edge2_Node000001_Node000002"><a xlink:title=" ">
<path fill="none" stroke="#63b8ff" d="M105.63,-85.96C121.53,-92.77 138.73,-100.15 153.17,-106.33"/>
<polygon fill="#63b8ff" stroke="#63b8ff" points="151.56,-109.88 162.13,-110.61 154.32,-103.45 151.56,-109.88"/>
</a>
</g>
</g>
<!-- Node3 -->
<g id="Node000003" class="node">
<title>Node3</title>
<g id="a_Node000003"><a target="_blank" xlink:href="http://en.cppreference.com/w/cpp/algorithm/max.html#" xlink:title=" ">
<polygon fill="white" stroke="#666666" points="214.62,-93.25 160.38,-93.25 160.38,-74 214.62,-74 214.62,-93.25"/>
<text text-anchor="middle" x="187.5" y="-79.75" font-family="Helvetica,sans-Serif" font-size="10.00">std::max</text>
</a>
</g>
</g>
<!-- Node1&#45;&gt;Node3 -->
<g id="edge3_Node000001_Node000003" class="edge">
<title>Node1&#45;&gt;Node3</title>
<g id="a_edge3_Node000001_Node000003"><a xlink:title=" ">
<path fill="none" stroke="#63b8ff" d="M110.14,-72.52C123.34,-74.44 137.16,-76.45 149.36,-78.22"/>
<polygon fill="#63b8ff" stroke="#63b8ff" points="148.65,-81.8 159.05,-79.78 149.65,-74.87 148.65,-81.8"/>
</a>
</g>
</g>
<!-- Node4 -->
<g id="Node000004" class="node">
<title>Node4</title>
<g id="a_Node000004"><a target="_blank" xlink:href="http://en.cppreference.com/w/cpp/string/basic_string/size.html#" xlink:title=" ">
<polygon fill="white" stroke="#666666" points="229.25,-56.25 145.75,-56.25 145.75,-37 229.25,-37 229.25,-56.25"/>
<text text-anchor="middle" x="187.5" y="-42.75" font-family="Helvetica,sans-Serif" font-size="10.00">std::string::size</text>
</a>
</g>
</g>
<!-- Node1&#45;&gt;Node4 -->
<g id="edge4_Node000001_Node000004" class="edge">
<title>Node1&#45;&gt;Node4</title>
<g id="a_edge4_Node000001_Node000004"><a xlink:title=" ">
<path fill="none" stroke="#63b8ff" d="M110.14,-57.15C118.23,-56.03 126.56,-54.88 134.61,-53.78"/>
<polygon fill="#63b8ff" stroke="#63b8ff" points="134.93,-57.13 144.35,-52.29 133.97,-50.19 134.93,-57.13"/>
</a>
</g>
</g>
<!-- Node5 -->
<g id="Node000005" class="node">
<title>Node5</title>
<g id="a_Node000005"><a target="_blank" xlink:href="http://en.cppreference.com/w/cpp/string/basic_string/to_string.html#" xlink:title=" ">
<polygon fill="white" stroke="#666666" points="224,-19.25 151,-19.25 151,0 224,0 224,-19.25"/>
<text text-anchor="middle" x="187.5" y="-5.75" font-family="Helvetica,sans-Serif" font-size="10.00">std::to_string</text>
</a>
</g>
</g>
<!-- Node1&#45;&gt;Node5 -->
<g id="edge5_Node000001_Node000005" class="edge">
<title>Node1&#45;&gt;Node5</title>
<g id="a_edge5_Node000001_Node000005"><a xlink:title=" ">
<path fill="none" stroke="#63b8ff" d="M106.38,-43.36C121.98,-36.79 138.76,-29.72 152.92,-23.76"/>
<polygon fill="#63b8ff" stroke="#63b8ff" points="153.86,-26.75 161.71,-19.64 151.14,-20.3 153.86,-26.75"/>
</a>
</g>
</g>
</g>
</svg>
</svg>

<style type='text/css'>
<![CDATA[
[data-mouse-over-selected='false'] { opacity: 0.7; }
[data-mouse-over-selected='true']  { opacity: 1.0; }
]]>
</style>
<script type="application/ecmascript"><![CDATA[
document.addEventListener('DOMContentLoaded', (event) => {
  highlightEdges();
  highlightAdjacentNodes();
});
]]></script>
</svg>
