<?xml version="1.0" encoding="UTF-8" standalone="no"?>
<!DOCTYPE svg PUBLIC "-//W3C//DTD SVG 1.1//EN"
 "http://www.w3.org/Graphics/SVG/1.1/DTD/svg11.dtd">
<!-- Generated by graphviz version 8.1.0 (20230707.0739)
 -->
<!-- Title: main Pages: 1 -->
<svg width="456pt" height="298pt"
 viewBox="0.00 0.00 455.50 298.25" xmlns="http://www.w3.org/2000/svg" xmlns:xlink="http://www.w3.org/1999/xlink">
<g id="graph0" class="graph" transform="scale(1 1) rotate(0) translate(4 294.25)">
<title>main</title>
<!-- Node1 -->
<g id="Node000001" class="node">
<title>Node1</title>
<g id="a_Node000001"><a xlink:title="Main function.">
<polygon fill="#999999" stroke="#666666" points="37,-148.25 0,-148.25 0,-129 37,-129 37,-148.25"/>
<text text-anchor="middle" x="18.5" y="-134.75" font-family="Helvetica,sans-Serif" font-size="10.00">main</text>
</a>
</g>
</g>
<!-- Node2 -->
<g id="Node000002" class="node">
<title>Node2</title>
<g id="a_Node000002"><a xlink:href="../../da/d39/volume_8cpp.html#aa8dca7b867074164d5f45b0f3851269d" target="_top" xlink:title="Self&#45;test implementations.">
<polygon fill="white" stroke="#666666" points="105.5,-148.25 73,-148.25 73,-129 105.5,-129 105.5,-148.25"/>
<text text-anchor="middle" x="89.25" y="-134.75" font-family="Helvetica,sans-Serif" font-size="10.00">test</text>
</a>
</g>
</g>
<!-- Node1&#45;&gt;Node2 -->
<g id="edge1_Node000001_Node000002" class="edge">
<title>Node1&#45;&gt;Node2</title>
<g id="a_edge1_Node000001_Node000002"><a xlink:title=" ">
<path fill="none" stroke="#63b8ff" d="M37.2,-138.62C44.67,-138.62 53.52,-138.62 61.73,-138.62"/>
<polygon fill="#63b8ff" stroke="#63b8ff" points="61.71,-142.13 71.71,-138.62 61.71,-135.13 61.71,-142.13"/>
</a>
</g>
</g>
<!-- Node3 -->
<g id="Node000003" class="node">
<title>Node3</title>
<g id="a_Node000003"><a xlink:href="../../dd/d47/namespacemath.html#a3fe35440c27758ecc2287e08217d63a7" target="_top" xlink:title="The volume of a cone">
<polygon fill="white" stroke="#666666" points="255.38,-167.25 153.88,-167.25 153.88,-148 255.38,-148 255.38,-167.25"/>
<text text-anchor="middle" x="204.62" y="-153.75" font-family="Helvetica,sans-Serif" font-size="10.00">math::cone_volume</text>
</a>
</g>
</g>
<!-- Node2&#45;&gt;Node3 -->
<g id="edge2_Node000002_Node000003" class="edge">
<title>Node2&#45;&gt;Node3</title>
<g id="a_edge2_Node000002_Node000003"><a xlink:title=" ">
<path fill="none" stroke="#63b8ff" d="M105.54,-141.19C115.41,-142.84 128.97,-145.11 142.86,-147.44"/>
<polygon fill="#63b8ff" stroke="#63b8ff" points="142.04,-151.02 152.49,-149.22 143.2,-144.12 142.04,-151.02"/>
</a>
</g>
</g>
<!-- Node7 -->
<g id="Node000007" class="node">
<title>Node7</title>
<g id="a_Node000007"><a xlink:href="../../dd/d47/namespacemath.html#ae413098478fa38acaac887b7654f0725" target="_top" xlink:title="The volume of a cube">
<polygon fill="white" stroke="#666666" points="255.38,-93.25 153.88,-93.25 153.88,-74 255.38,-74 255.38,-93.25"/>
<text text-anchor="middle" x="204.62" y="-79.75" font-family="Helvetica,sans-Serif" font-size="10.00">math::cube_volume</text>
</a>
</g>
</g>
<!-- Node2&#45;&gt;Node7 -->
<g id="edge7_Node000002_Node000007" class="edge">
<title>Node2&#45;&gt;Node7</title>
<g id="a_edge7_Node000002_Node000007"><a xlink:title=" ">
<path fill="none" stroke="#63b8ff" d="M101.72,-128.56C111.65,-120.3 126.7,-108.84 141.5,-101.62 144.63,-100.1 147.91,-98.68 151.26,-97.36"/>
<polygon fill="#63b8ff" stroke="#63b8ff" points="152.21,-100.38 160.45,-93.71 149.85,-93.79 152.21,-100.38"/>
</a>
</g>
</g>
<!-- Node8 -->
<g id="Node000008" class="node">
<title>Node8</title>
<g id="a_Node000008"><a xlink:href="../../dd/d47/namespacemath.html#abde24398be43538c62e4a496968e60ca" target="_top" xlink:title="The volume of a cylinder">
<polygon fill="white" stroke="#666666" points="261.75,-130.25 147.5,-130.25 147.5,-111 261.75,-111 261.75,-130.25"/>
<text text-anchor="middle" x="204.62" y="-116.75" font-family="Helvetica,sans-Serif" font-size="10.00">math::cylinder_volume</text>
</a>
</g>
</g>
<!-- Node2&#45;&gt;Node8 -->
<g id="edge9_Node000002_Node000008" class="edge">
<title>Node2&#45;&gt;Node8</title>
<g id="a_edge9_Node000002_Node000008"><a xlink:title=" ">
<path fill="none" stroke="#63b8ff" d="M105.54,-136.2C113.87,-134.87 124.82,-133.14 136.38,-131.3"/>
<polygon fill="#63b8ff" stroke="#63b8ff" points="136.78,-134.62 146.11,-129.6 135.68,-127.71 136.78,-134.62"/>
</a>
</g>
</g>
<!-- Node9 -->
<g id="Node000009" class="node">
<title>Node9</title>
<g id="a_Node000009"><a target="_blank" xlink:href="http://en.cppreference.com/w/cpp/io/manip/endl.html#" xlink:title=" ">
<polygon fill="white" stroke="#666666" points="231.38,-19.25 177.88,-19.25 177.88,0 231.38,0 231.38,-19.25"/>
<text text-anchor="middle" x="204.62" y="-5.75" font-family="Helvetica,sans-Serif" font-size="10.00">std::endl</text>
</a>
</g>
</g>
<!-- Node2&#45;&gt;Node9 -->
<g id="edge12_Node000002_Node000009" class="edge">
<title>Node2&#45;&gt;Node9</title>
<g id="a_edge12_Node000002_Node000009"><a xlink:title=" ">
<path fill="none" stroke="#63b8ff" d="M91.98,-128.66C96.27,-106.96 109.47,-55.16 141.5,-27.62 148.66,-21.47 157.82,-17.41 166.89,-14.75"/>
<polygon fill="#63b8ff" stroke="#63b8ff" points="167.48,-17.96 176.38,-12.21 165.84,-11.16 167.48,-17.96"/>
</a>
</g>
</g>
<!-- Node10 -->
<g id="Node000010" class="node">
<title>Node10</title>
<g id="a_Node000010"><a xlink:href="../../dd/d47/namespacemath.html#a94db02b3c9e55a69ac1696f30e2f761c" target="_top" xlink:title="The volume of a pyramid">
<polygon fill="white" stroke="#666666" points="262.12,-290.25 147.12,-290.25 147.12,-271 262.12,-271 262.12,-290.25"/>
<text text-anchor="middle" x="204.62" y="-276.75" font-family="Helvetica,sans-Serif" font-size="10.00">math::pyramid_volume</text>
</a>
</g>
</g>
<!-- Node2&#45;&gt;Node10 -->
<g id="edge13_Node000002_Node000010" class="edge">
<title>Node2&#45;&gt;Node10</title>
<g id="a_edge13_Node000002_Node000010"><a xlink:title=" ">
<path fill="none" stroke="#63b8ff" d="M91.45,-148.66C94.8,-172.18 106.45,-231.23 141.5,-262.62 142.38,-263.41 143.29,-264.16 144.23,-264.88"/>
<polygon fill="#63b8ff" stroke="#63b8ff" points="141.99,-268.23 152.33,-270.52 145.67,-262.28 141.99,-268.23"/>
</a>
</g>
</g>
<!-- Node11 -->
<g id="Node000011" class="node">
<title>Node11</title>
<g id="a_Node000011"><a xlink:href="../../dd/d47/namespacemath.html#a3fdc74c24697ec5bb5c3698c96117c12" target="_top" xlink:title="The volume of a rectangular prism.">
<polygon fill="white" stroke="#666666" points="267.75,-253.25 141.5,-253.25 141.5,-234 267.75,-234 267.75,-253.25"/>
<text text-anchor="middle" x="204.62" y="-239.75" font-family="Helvetica,sans-Serif" font-size="10.00">math::rect_prism_volume</text>
</a>
</g>
</g>
<!-- Node2&#45;&gt;Node11 -->
<g id="edge15_Node000002_Node000011" class="edge">
<title>Node2&#45;&gt;Node11</title>
<g id="a_edge15_Node000002_Node000011"><a xlink:title=" ">
<path fill="none" stroke="#63b8ff" d="M93.43,-148.48C99.71,-166.35 115.38,-204.14 141.5,-224.62 143.37,-226.1 145.36,-227.45 147.43,-228.7"/>
<polygon fill="#63b8ff" stroke="#63b8ff" points="145.44,-232.13 155.94,-233.55 148.62,-225.89 145.44,-232.13"/>
</a>
</g>
</g>
<!-- Node12 -->
<g id="Node000012" class="node">
<title>Node12</title>
<g id="a_Node000012"><a xlink:href="../../dd/d47/namespacemath.html#a34d66a77c19ce9b8b3a3d14352b34551" target="_top" xlink:title="The volume of a sphere">
<polygon fill="white" stroke="#666666" points="259.5,-56.25 149.75,-56.25 149.75,-37 259.5,-37 259.5,-56.25"/>
<text text-anchor="middle" x="204.62" y="-42.75" font-family="Helvetica,sans-Serif" font-size="10.00">math::sphere_volume</text>
</a>
</g>
</g>
<!-- Node2&#45;&gt;Node12 -->
<g id="edge17_Node000002_Node000012" class="edge">
<title>Node2&#45;&gt;Node12</title>
<g id="a_edge17_Node000002_Node000012"><a xlink:title=" ">
<path fill="none" stroke="#63b8ff" d="M94.47,-128.6C101.72,-112.63 118.03,-81.51 141.5,-64.62 143,-63.54 144.57,-62.53 146.19,-61.57"/>
<polygon fill="#63b8ff" stroke="#63b8ff" points="147.51,-64.32 154.9,-56.73 144.39,-58.06 147.51,-64.32"/>
</a>
</g>
</g>
<!-- Node13 -->
<g id="Node000013" class="node">
<title>Node13</title>
<g id="a_Node000013"><a xlink:href="../../dd/d47/namespacemath.html#a2d704a7b72a6b2db8b76c8581b577b2c" target="_top" xlink:title="The volume of a triangular prism.">
<polygon fill="white" stroke="#666666" points="256.88,-215.88 152.38,-215.88 152.38,-185.38 256.88,-185.38 256.88,-215.88"/>
<text text-anchor="start" x="160.38" y="-202.38" font-family="Helvetica,sans-Serif" font-size="10.00">math::triangle_prism</text>
<text text-anchor="middle" x="204.62" y="-191.12" font-family="Helvetica,sans-Serif" font-size="10.00">_volume</text>
</a>
</g>
</g>
<!-- Node2&#45;&gt;Node13 -->
<g id="edge19_Node000002_Node000013" class="edge">
<title>Node2&#45;&gt;Node13</title>
<g id="a_edge19_Node000002_Node000013"><a xlink:title=" ">
<path fill="none" stroke="#63b8ff" d="M101.85,-148.65C111.85,-156.94 126.95,-168.61 141.5,-176.62 143.89,-177.94 146.37,-179.22 148.9,-180.46"/>
<polygon fill="#63b8ff" stroke="#63b8ff" points="147.29,-184.03 157.84,-185 150.2,-177.66 147.29,-184.03"/>
</a>
</g>
</g>
<!-- Node4 -->
<g id="Node000004" class="node">
<title>Node4</title>
<g id="a_Node000004"><a xlink:href="../../d8/dee/avltree_8cpp.html#ae4a66d8b0c2b0d626aea45977e358c83" target="_top" xlink:title=" ">
<polygon fill="white" stroke="#666666" points="351.62,-210.25 309.38,-210.25 309.38,-191 351.62,-191 351.62,-210.25"/>
<text text-anchor="middle" x="330.5" y="-196.75" font-family="Helvetica,sans-Serif" font-size="10.00">height</text>
</a>
</g>
</g>
<!-- Node3&#45;&gt;Node4 -->
<g id="edge3_Node000003_Node000004" class="edge">
<title>Node3&#45;&gt;Node4</title>
<g id="a_edge3_Node000003_Node000004"><a xlink:title=" ">
<path fill="none" stroke="#63b8ff" d="M240.28,-167.73C249.27,-170.48 258.91,-173.56 267.75,-176.62 277.97,-180.17 289,-184.34 298.88,-188.21"/>
<polygon fill="#63b8ff" stroke="#63b8ff" points="297.47,-191.81 308.06,-192.24 300.05,-185.3 297.47,-191.81"/>
</a>
</g>
</g>
<!-- Node6 -->
<g id="Node000006" class="node">
<title>Node6</title>
<g id="a_Node000006"><a target="_blank" xlink:href="http://en.cppreference.com/w/cpp/numeric/math/pow.html#" xlink:title=" ">
<polygon fill="white" stroke="#666666" points="357.25,-112.25 303.75,-112.25 303.75,-93 357.25,-93 357.25,-112.25"/>
<text text-anchor="middle" x="330.5" y="-98.75" font-family="Helvetica,sans-Serif" font-size="10.00">std::pow</text>
</a>
</g>
</g>
<!-- Node3&#45;&gt;Node6 -->
<g id="edge6_Node000003_Node000006" class="edge">
<title>Node3&#45;&gt;Node6</title>
<g id="a_edge6_Node000003_Node000006"><a xlink:title=" ">
<path fill="none" stroke="#63b8ff" d="M245.93,-147.59C253.31,-145.3 260.85,-142.63 267.75,-139.62 281.04,-133.83 294.97,-125.69 306.22,-118.52"/>
<polygon fill="#63b8ff" stroke="#63b8ff" points="307.9,-120.96 314.35,-112.55 304.06,-115.1 307.9,-120.96"/>
</a>
</g>
</g>
<!-- Node4&#45;&gt;Node4 -->
<g id="edge4_Node000004_Node000004" class="edge">
<title>Node4&#45;&gt;Node4</title>
<g id="a_edge4_Node000004_Node000004"><a xlink:title=" ">
<path fill="none" stroke="#63b8ff" d="M316.43,-210.54C310.01,-219.15 314.7,-228.25 330.5,-228.25 339.39,-228.25 344.76,-225.37 346.62,-221.32"/>
<polygon fill="#63b8ff" stroke="#63b8ff" points="349.87,-220.71 344.57,-211.54 343,-222.02 349.87,-220.71"/>
</a>
</g>
</g>
<!-- Node5 -->
<g id="Node000005" class="node">
<title>Node5</title>
<g id="a_Node000005"><a target="_blank" xlink:href="http://en.cppreference.com/w/cpp/algorithm/max.html#" xlink:title=" ">
<polygon fill="white" stroke="#666666" points="447.5,-210.25 393.25,-210.25 393.25,-191 447.5,-191 447.5,-210.25"/>
<text text-anchor="middle" x="420.38" y="-196.75" font-family="Helvetica,sans-Serif" font-size="10.00">std::max</text>
</a>
</g>
</g>
<!-- Node4&#45;&gt;Node5 -->
<g id="edge5_Node000004_Node000005" class="edge">
<title>Node4&#45;&gt;Node5</title>
<g id="a_edge5_Node000004_Node000005"><a xlink:title=" ">
<path fill="none" stroke="#63b8ff" d="M351.88,-200.62C360.82,-200.62 371.6,-200.62 381.9,-200.62"/>
<polygon fill="#63b8ff" stroke="#63b8ff" points="381.77,-204.13 391.77,-200.62 381.77,-197.13 381.77,-204.13"/>
</a>
</g>
</g>
<!-- Node7&#45;&gt;Node6 -->
<g id="edge8_Node000007_Node000006" class="edge">
<title>Node7&#45;&gt;Node6</title>
<g id="a_edge8_Node000007_Node000006"><a xlink:title=" ">
<path fill="none" stroke="#63b8ff" d="M255.65,-91.3C268.07,-93.2 281.15,-95.21 292.79,-96.99"/>
<polygon fill="#63b8ff" stroke="#63b8ff" points="292.03,-100.57 302.45,-98.63 293.1,-93.65 292.03,-100.57"/>
</a>
</g>
</g>
<!-- Node8&#45;&gt;Node4 -->
<g id="edge10_Node000008_Node000004" class="edge">
<title>Node8&#45;&gt;Node4</title>
<g id="a_edge10_Node000008_Node000004"><a xlink:title=" ">
<path fill="none" stroke="#63b8ff" d="M250.55,-130.67C256.54,-132.85 262.44,-135.48 267.75,-138.62 286.84,-149.93 304.24,-168.51 315.67,-182.39"/>
<polygon fill="#63b8ff" stroke="#63b8ff" points="313.31,-184.05 322.28,-189.7 318.8,-179.7 313.31,-184.05"/>
</a>
</g>
</g>
<!-- Node8&#45;&gt;Node6 -->
<g id="edge11_Node000008_Node000006" class="edge">
<title>Node8&#45;&gt;Node6</title>
<g id="a_edge11_Node000008_Node000006"><a xlink:title=" ">
<path fill="none" stroke="#63b8ff" d="M262.13,-112.42C272.49,-110.91 283.06,-109.37 292.66,-107.98"/>
<polygon fill="#63b8ff" stroke="#63b8ff" points="293.02,-111.32 302.42,-106.42 292.02,-104.39 293.02,-111.32"/>
</a>
</g>
</g>
<!-- Node10&#45;&gt;Node4 -->
<g id="edge14_Node000010_Node000004" class="edge">
<title>Node10&#45;&gt;Node4</title>
<g id="a_edge14_Node000010_Node000004"><a xlink:title=" ">
<path fill="none" stroke="#63b8ff" d="M250.55,-270.58C256.54,-268.4 262.44,-265.77 267.75,-262.62 286.84,-251.32 304.24,-232.74 315.67,-218.86"/>
<polygon fill="#63b8ff" stroke="#63b8ff" points="318.8,-221.55 322.28,-211.55 313.31,-217.2 318.8,-221.55"/>
</a>
</g>
</g>
<!-- Node11&#45;&gt;Node4 -->
<g id="edge16_Node000011_Node000004" class="edge">
<title>Node11&#45;&gt;Node4</title>
<g id="a_edge16_Node000011_Node000004"><a xlink:title=" ">
<path fill="none" stroke="#63b8ff" d="M240.28,-233.52C249.27,-230.77 258.91,-227.69 267.75,-224.62 277.97,-221.08 289,-216.91 298.88,-213.04"/>
<polygon fill="#63b8ff" stroke="#63b8ff" points="300.05,-215.95 308.06,-209.01 297.47,-209.44 300.05,-215.95"/>
</a>
</g>
</g>
<!-- Node12&#45;&gt;Node6 -->
<g id="edge18_Node000012_Node000006" class="edge">
<title>Node12&#45;&gt;Node6</title>
<g id="a_edge18_Node000012_Node000006"><a xlink:title=" ">
<path fill="none" stroke="#63b8ff" d="M246.29,-56.69C253.56,-58.97 260.97,-61.62 267.75,-64.62 281.42,-70.68 295.69,-79.29 307.07,-86.79"/>
<polygon fill="#63b8ff" stroke="#63b8ff" points="304.63,-90.04 314.87,-92.74 308.55,-84.24 304.63,-90.04"/>
</a>
</g>
</g>
<!-- Node13&#45;&gt;Node4 -->
<g id="edge20_Node000013_Node000004" class="edge">
<title>Node13&#45;&gt;Node4</title>
<g id="a_edge20_Node000013_Node000004"><a xlink:title=" ">
<path fill="none" stroke="#63b8ff" d="M257.08,-200.62C271.03,-200.62 285.7,-200.62 298.17,-200.62"/>
<polygon fill="#63b8ff" stroke="#63b8ff" points="297.91,-204.13 307.91,-200.62 297.91,-197.13 297.91,-204.13"/>
</a>
</g>
</g>
</g>
</svg>
