<?xml version="1.0" encoding="UTF-8" standalone="no"?>
<!DOCTYPE svg PUBLIC "-//W3C//DTD SVG 1.1//EN"
 "http://www.w3.org/Graphics/SVG/1.1/DTD/svg11.dtd">
<!-- Generated by graphviz version 8.1.0 (20230707.0739)
 -->
<!-- Title: test Pages: 1 -->
<svg width="383pt" height="298pt"
 viewBox="0.00 0.00 382.50 298.25" xmlns="http://www.w3.org/2000/svg" xmlns:xlink="http://www.w3.org/1999/xlink">
<g id="graph0" class="graph" transform="scale(1 1) rotate(0) translate(4 294.25)">
<title>test</title>
<!-- Node1 -->
<g id="Node000001" class="node">
<title>Node1</title>
<g id="a_Node000001"><a xlink:title="Self&#45;test implementations.">
<polygon fill="#999999" stroke="#666666" points="32.5,-148.25 0,-148.25 0,-129 32.5,-129 32.5,-148.25"/>
<text text-anchor="middle" x="16.25" y="-134.75" font-family="Helvetica,sans-Serif" font-size="10.00">test</text>
</a>
</g>
</g>
<!-- Node2 -->
<g id="Node000002" class="node">
<title>Node2</title>
<g id="a_Node000002"><a xlink:href="../../dd/d47/namespacemath.html#a3fe35440c27758ecc2287e08217d63a7" target="_top" xlink:title="The volume of a cone">
<polygon fill="white" stroke="#666666" points="182.38,-167.25 80.88,-167.25 80.88,-148 182.38,-148 182.38,-167.25"/>
<text text-anchor="middle" x="131.62" y="-153.75" font-family="Helvetica,sans-Serif" font-size="10.00">math::cone_volume</text>
</a>
</g>
</g>
<!-- Node1&#45;&gt;Node2 -->
<g id="edge1_Node000001_Node000002" class="edge">
<title>Node1&#45;&gt;Node2</title>
<g id="a_edge1_Node000001_Node000002"><a xlink:title=" ">
<path fill="none" stroke="#63b8ff" d="M32.54,-141.19C42.41,-142.84 55.97,-145.11 69.86,-147.44"/>
<polygon fill="#63b8ff" stroke="#63b8ff" points="69.04,-151.02 79.49,-149.22 70.2,-144.12 69.04,-151.02"/>
</a>
</g>
</g>
<!-- Node6 -->
<g id="Node000006" class="node">
<title>Node6</title>
<g id="a_Node000006"><a xlink:href="../../dd/d47/namespacemath.html#ae413098478fa38acaac887b7654f0725" target="_top" xlink:title="The volume of a cube">
<polygon fill="white" stroke="#666666" points="182.38,-93.25 80.88,-93.25 80.88,-74 182.38,-74 182.38,-93.25"/>
<text text-anchor="middle" x="131.62" y="-79.75" font-family="Helvetica,sans-Serif" font-size="10.00">math::cube_volume</text>
</a>
</g>
</g>
<!-- Node1&#45;&gt;Node6 -->
<g id="edge6_Node000001_Node000006" class="edge">
<title>Node1&#45;&gt;Node6</title>
<g id="a_edge6_Node000001_Node000006"><a xlink:title=" ">
<path fill="none" stroke="#63b8ff" d="M28.72,-128.56C38.65,-120.3 53.7,-108.84 68.5,-101.62 71.63,-100.1 74.91,-98.68 78.26,-97.36"/>
<polygon fill="#63b8ff" stroke="#63b8ff" points="79.21,-100.38 87.45,-93.71 76.85,-93.79 79.21,-100.38"/>
</a>
</g>
</g>
<!-- Node7 -->
<g id="Node000007" class="node">
<title>Node7</title>
<g id="a_Node000007"><a xlink:href="../../dd/d47/namespacemath.html#abde24398be43538c62e4a496968e60ca" target="_top" xlink:title="The volume of a cylinder">
<polygon fill="white" stroke="#666666" points="188.75,-130.25 74.5,-130.25 74.5,-111 188.75,-111 188.75,-130.25"/>
<text text-anchor="middle" x="131.62" y="-116.75" font-family="Helvetica,sans-Serif" font-size="10.00">math::cylinder_volume</text>
</a>
</g>
</g>
<!-- Node1&#45;&gt;Node7 -->
<g id="edge8_Node000001_Node000007" class="edge">
<title>Node1&#45;&gt;Node7</title>
<g id="a_edge8_Node000001_Node000007"><a xlink:title=" ">
<path fill="none" stroke="#63b8ff" d="M32.54,-136.2C40.87,-134.87 51.82,-133.14 63.38,-131.3"/>
<polygon fill="#63b8ff" stroke="#63b8ff" points="63.78,-134.62 73.11,-129.6 62.68,-127.71 63.78,-134.62"/>
</a>
</g>
</g>
<!-- Node8 -->
<g id="Node000008" class="node">
<title>Node8</title>
<g id="a_Node000008"><a target="_blank" xlink:href="http://en.cppreference.com/w/cpp/io/manip/endl.html#" xlink:title=" ">
<polygon fill="white" stroke="#666666" points="158.38,-19.25 104.88,-19.25 104.88,0 158.38,0 158.38,-19.25"/>
<text text-anchor="middle" x="131.62" y="-5.75" font-family="Helvetica,sans-Serif" font-size="10.00">std::endl</text>
</a>
</g>
</g>
<!-- Node1&#45;&gt;Node8 -->
<g id="edge11_Node000001_Node000008" class="edge">
<title>Node1&#45;&gt;Node8</title>
<g id="a_edge11_Node000001_Node000008"><a xlink:title=" ">
<path fill="none" stroke="#63b8ff" d="M18.98,-128.66C23.27,-106.96 36.47,-55.16 68.5,-27.62 75.66,-21.47 84.82,-17.41 93.89,-14.75"/>
<polygon fill="#63b8ff" stroke="#63b8ff" points="94.48,-17.96 103.38,-12.21 92.84,-11.16 94.48,-17.96"/>
</a>
</g>
</g>
<!-- Node9 -->
<g id="Node000009" class="node">
<title>Node9</title>
<g id="a_Node000009"><a xlink:href="../../dd/d47/namespacemath.html#a94db02b3c9e55a69ac1696f30e2f761c" target="_top" xlink:title="The volume of a pyramid">
<polygon fill="white" stroke="#666666" points="189.12,-290.25 74.12,-290.25 74.12,-271 189.12,-271 189.12,-290.25"/>
<text text-anchor="middle" x="131.62" y="-276.75" font-family="Helvetica,sans-Serif" font-size="10.00">math::pyramid_volume</text>
</a>
</g>
</g>
<!-- Node1&#45;&gt;Node9 -->
<g id="edge12_Node000001_Node000009" class="edge">
<title>Node1&#45;&gt;Node9</title>
<g id="a_edge12_Node000001_Node000009"><a xlink:title=" ">
<path fill="none" stroke="#63b8ff" d="M18.45,-148.66C21.8,-172.18 33.45,-231.23 68.5,-262.62 69.38,-263.41 70.29,-264.16 71.23,-264.88"/>
<polygon fill="#63b8ff" stroke="#63b8ff" points="68.99,-268.23 79.33,-270.52 72.67,-262.28 68.99,-268.23"/>
</a>
</g>
</g>
<!-- Node10 -->
<g id="Node000010" class="node">
<title>Node10</title>
<g id="a_Node000010"><a xlink:href="../../dd/d47/namespacemath.html#a3fdc74c24697ec5bb5c3698c96117c12" target="_top" xlink:title="The volume of a rectangular prism.">
<polygon fill="white" stroke="#666666" points="194.75,-253.25 68.5,-253.25 68.5,-234 194.75,-234 194.75,-253.25"/>
<text text-anchor="middle" x="131.62" y="-239.75" font-family="Helvetica,sans-Serif" font-size="10.00">math::rect_prism_volume</text>
</a>
</g>
</g>
<!-- Node1&#45;&gt;Node10 -->
<g id="edge14_Node000001_Node000010" class="edge">
<title>Node1&#45;&gt;Node10</title>
<g id="a_edge14_Node000001_Node000010"><a xlink:title=" ">
<path fill="none" stroke="#63b8ff" d="M20.43,-148.48C26.71,-166.35 42.38,-204.14 68.5,-224.62 70.37,-226.1 72.36,-227.45 74.43,-228.7"/>
<polygon fill="#63b8ff" stroke="#63b8ff" points="72.44,-232.13 82.94,-233.55 75.62,-225.89 72.44,-232.13"/>
</a>
</g>
</g>
<!-- Node11 -->
<g id="Node000011" class="node">
<title>Node11</title>
<g id="a_Node000011"><a xlink:href="../../dd/d47/namespacemath.html#a34d66a77c19ce9b8b3a3d14352b34551" target="_top" xlink:title="The volume of a sphere">
<polygon fill="white" stroke="#666666" points="186.5,-56.25 76.75,-56.25 76.75,-37 186.5,-37 186.5,-56.25"/>
<text text-anchor="middle" x="131.62" y="-42.75" font-family="Helvetica,sans-Serif" font-size="10.00">math::sphere_volume</text>
</a>
</g>
</g>
<!-- Node1&#45;&gt;Node11 -->
<g id="edge16_Node000001_Node000011" class="edge">
<title>Node1&#45;&gt;Node11</title>
<g id="a_edge16_Node000001_Node000011"><a xlink:title=" ">
<path fill="none" stroke="#63b8ff" d="M21.47,-128.6C28.72,-112.63 45.03,-81.51 68.5,-64.62 70,-63.54 71.57,-62.53 73.19,-61.57"/>
<polygon fill="#63b8ff" stroke="#63b8ff" points="74.51,-64.32 81.9,-56.73 71.39,-58.06 74.51,-64.32"/>
</a>
</g>
</g>
<!-- Node12 -->
<g id="Node000012" class="node">
<title>Node12</title>
<g id="a_Node000012"><a xlink:href="../../dd/d47/namespacemath.html#a2d704a7b72a6b2db8b76c8581b577b2c" target="_top" xlink:title="The volume of a triangular prism.">
<polygon fill="white" stroke="#666666" points="183.88,-215.88 79.38,-215.88 79.38,-185.38 183.88,-185.38 183.88,-215.88"/>
<text text-anchor="start" x="87.38" y="-202.38" font-family="Helvetica,sans-Serif" font-size="10.00">math::triangle_prism</text>
<text text-anchor="middle" x="131.62" y="-191.12" font-family="Helvetica,sans-Serif" font-size="10.00">_volume</text>
</a>
</g>
</g>
<!-- Node1&#45;&gt;Node12 -->
<g id="edge18_Node000001_Node000012" class="edge">
<title>Node1&#45;&gt;Node12</title>
<g id="a_edge18_Node000001_Node000012"><a xlink:title=" ">
<path fill="none" stroke="#63b8ff" d="M28.85,-148.65C38.85,-156.94 53.95,-168.61 68.5,-176.62 70.89,-177.94 73.37,-179.22 75.9,-180.46"/>
<polygon fill="#63b8ff" stroke="#63b8ff" points="74.29,-184.03 84.84,-185 77.2,-177.66 74.29,-184.03"/>
</a>
</g>
</g>
<!-- Node3 -->
<g id="Node000003" class="node">
<title>Node3</title>
<g id="a_Node000003"><a xlink:href="../../d8/dee/avltree_8cpp.html#ae4a66d8b0c2b0d626aea45977e358c83" target="_top" xlink:title=" ">
<polygon fill="white" stroke="#666666" points="278.62,-210.25 236.38,-210.25 236.38,-191 278.62,-191 278.62,-210.25"/>
<text text-anchor="middle" x="257.5" y="-196.75" font-family="Helvetica,sans-Serif" font-size="10.00">height</text>
</a>
</g>
</g>
<!-- Node2&#45;&gt;Node3 -->
<g id="edge2_Node000002_Node000003" class="edge">
<title>Node2&#45;&gt;Node3</title>
<g id="a_edge2_Node000002_Node000003"><a xlink:title=" ">
<path fill="none" stroke="#63b8ff" d="M167.28,-167.73C176.27,-170.48 185.91,-173.56 194.75,-176.62 204.97,-180.17 216,-184.34 225.88,-188.21"/>
<polygon fill="#63b8ff" stroke="#63b8ff" points="224.47,-191.81 235.06,-192.24 227.05,-185.3 224.47,-191.81"/>
</a>
</g>
</g>
<!-- Node5 -->
<g id="Node000005" class="node">
<title>Node5</title>
<g id="a_Node000005"><a target="_blank" xlink:href="http://en.cppreference.com/w/cpp/numeric/math/pow.html#" xlink:title=" ">
<polygon fill="white" stroke="#666666" points="284.25,-112.25 230.75,-112.25 230.75,-93 284.25,-93 284.25,-112.25"/>
<text text-anchor="middle" x="257.5" y="-98.75" font-family="Helvetica,sans-Serif" font-size="10.00">std::pow</text>
</a>
</g>
</g>
<!-- Node2&#45;&gt;Node5 -->
<g id="edge5_Node000002_Node000005" class="edge">
<title>Node2&#45;&gt;Node5</title>
<g id="a_edge5_Node000002_Node000005"><a xlink:title=" ">
<path fill="none" stroke="#63b8ff" d="M172.93,-147.59C180.31,-145.3 187.85,-142.63 194.75,-139.62 208.04,-133.83 221.97,-125.69 233.22,-118.52"/>
<polygon fill="#63b8ff" stroke="#63b8ff" points="234.9,-120.96 241.35,-112.55 231.06,-115.1 234.9,-120.96"/>
</a>
</g>
</g>
<!-- Node3&#45;&gt;Node3 -->
<g id="edge3_Node000003_Node000003" class="edge">
<title>Node3&#45;&gt;Node3</title>
<g id="a_edge3_Node000003_Node000003"><a xlink:title=" ">
<path fill="none" stroke="#63b8ff" d="M243.43,-210.54C237.01,-219.15 241.7,-228.25 257.5,-228.25 266.39,-228.25 271.76,-225.37 273.62,-221.32"/>
<polygon fill="#63b8ff" stroke="#63b8ff" points="276.87,-220.71 271.57,-211.54 270,-222.02 276.87,-220.71"/>
</a>
</g>
</g>
<!-- Node4 -->
<g id="Node000004" class="node">
<title>Node4</title>
<g id="a_Node000004"><a target="_blank" xlink:href="http://en.cppreference.com/w/cpp/algorithm/max.html#" xlink:title=" ">
<polygon fill="white" stroke="#666666" points="374.5,-210.25 320.25,-210.25 320.25,-191 374.5,-191 374.5,-210.25"/>
<text text-anchor="middle" x="347.38" y="-196.75" font-family="Helvetica,sans-Serif" font-size="10.00">std::max</text>
</a>
</g>
</g>
<!-- Node3&#45;&gt;Node4 -->
<g id="edge4_Node000003_Node000004" class="edge">
<title>Node3&#45;&gt;Node4</title>
<g id="a_edge4_Node000003_Node000004"><a xlink:title=" ">
<path fill="none" stroke="#63b8ff" d="M278.88,-200.62C287.82,-200.62 298.6,-200.62 308.9,-200.62"/>
<polygon fill="#63b8ff" stroke="#63b8ff" points="308.77,-204.13 318.77,-200.62 308.77,-197.13 308.77,-204.13"/>
</a>
</g>
</g>
<!-- Node6&#45;&gt;Node5 -->
<g id="edge7_Node000006_Node000005" class="edge">
<title>Node6&#45;&gt;Node5</title>
<g id="a_edge7_Node000006_Node000005"><a xlink:title=" ">
<path fill="none" stroke="#63b8ff" d="M182.65,-91.3C195.07,-93.2 208.15,-95.21 219.79,-96.99"/>
<polygon fill="#63b8ff" stroke="#63b8ff" points="219.03,-100.57 229.45,-98.63 220.1,-93.65 219.03,-100.57"/>
</a>
</g>
</g>
<!-- Node7&#45;&gt;Node3 -->
<g id="edge9_Node000007_Node000003" class="edge">
<title>Node7&#45;&gt;Node3</title>
<g id="a_edge9_Node000007_Node000003"><a xlink:title=" ">
<path fill="none" stroke="#63b8ff" d="M177.55,-130.67C183.54,-132.85 189.44,-135.48 194.75,-138.62 213.84,-149.93 231.24,-168.51 242.67,-182.39"/>
<polygon fill="#63b8ff" stroke="#63b8ff" points="240.31,-184.05 249.28,-189.7 245.8,-179.7 240.31,-184.05"/>
</a>
</g>
</g>
<!-- Node7&#45;&gt;Node5 -->
<g id="edge10_Node000007_Node000005" class="edge">
<title>Node7&#45;&gt;Node5</title>
<g id="a_edge10_Node000007_Node000005"><a xlink:title=" ">
<path fill="none" stroke="#63b8ff" d="M189.13,-112.42C199.49,-110.91 210.06,-109.37 219.66,-107.98"/>
<polygon fill="#63b8ff" stroke="#63b8ff" points="220.02,-111.32 229.42,-106.42 219.02,-104.39 220.02,-111.32"/>
</a>
</g>
</g>
<!-- Node9&#45;&gt;Node3 -->
<g id="edge13_Node000009_Node000003" class="edge">
<title>Node9&#45;&gt;Node3</title>
<g id="a_edge13_Node000009_Node000003"><a xlink:title=" ">
<path fill="none" stroke="#63b8ff" d="M177.55,-270.58C183.54,-268.4 189.44,-265.77 194.75,-262.62 213.84,-251.32 231.24,-232.74 242.67,-218.86"/>
<polygon fill="#63b8ff" stroke="#63b8ff" points="245.8,-221.55 249.28,-211.55 240.31,-217.2 245.8,-221.55"/>
</a>
</g>
</g>
<!-- Node10&#45;&gt;Node3 -->
<g id="edge15_Node000010_Node000003" class="edge">
<title>Node10&#45;&gt;Node3</title>
<g id="a_edge15_Node000010_Node000003"><a xlink:title=" ">
<path fill="none" stroke="#63b8ff" d="M167.28,-233.52C176.27,-230.77 185.91,-227.69 194.75,-224.62 204.97,-221.08 216,-216.91 225.88,-213.04"/>
<polygon fill="#63b8ff" stroke="#63b8ff" points="227.05,-215.95 235.06,-209.01 224.47,-209.44 227.05,-215.95"/>
</a>
</g>
</g>
<!-- Node11&#45;&gt;Node5 -->
<g id="edge17_Node000011_Node000005" class="edge">
<title>Node11&#45;&gt;Node5</title>
<g id="a_edge17_Node000011_Node000005"><a xlink:title=" ">
<path fill="none" stroke="#63b8ff" d="M173.29,-56.69C180.56,-58.97 187.97,-61.62 194.75,-64.62 208.42,-70.68 222.69,-79.29 234.07,-86.79"/>
<polygon fill="#63b8ff" stroke="#63b8ff" points="231.63,-90.04 241.87,-92.74 235.55,-84.24 231.63,-90.04"/>
</a>
</g>
</g>
<!-- Node12&#45;&gt;Node3 -->
<g id="edge19_Node000012_Node000003" class="edge">
<title>Node12&#45;&gt;Node3</title>
<g id="a_edge19_Node000012_Node000003"><a xlink:title=" ">
<path fill="none" stroke="#63b8ff" d="M184.08,-200.62C198.03,-200.62 212.7,-200.62 225.17,-200.62"/>
<polygon fill="#63b8ff" stroke="#63b8ff" points="224.91,-204.13 234.91,-200.62 224.91,-197.13 224.91,-204.13"/>
</a>
</g>
</g>
</g>
</svg>
