<?xml version="1.0" encoding="UTF-8" standalone="no"?>
<!DOCTYPE svg PUBLIC "-//W3C//DTD SVG 1.1//EN"
 "http://www.w3.org/Graphics/SVG/1.1/DTD/svg11.dtd">
<!-- Generated by graphviz version 8.1.0 (20230707.0739)
 -->
<!-- Title: main Pages: 1 -->
<svg width="223pt" height="177pt"
 viewBox="0.00 0.00 222.50 177.25" xmlns="http://www.w3.org/2000/svg" xmlns:xlink="http://www.w3.org/1999/xlink">

<svg id="main" version="1.1" xmlns="http://www.w3.org/2000/svg" xmlns:xlink="http://www.w3.org/1999/xlink" xml:space="preserve" onload="init(evt)">
<style type="text/css"><![CDATA[
.node, .edge {opacity: 0.7;}
.node.selected, .edge.selected {opacity: 1;}
.edge:hover path { stroke: red; }
.edge:hover polygon { stroke: red; fill: red; }
]]></style>
<script type="application/ecmascript" xlink:href="../../svg.min.js"/>
<svg id="graph" class="graph">
<g id="graph0" class="graph" transform="scale(1 1) rotate(0) translate(4 173.25)">
<title>main</title>
<!-- Node1 -->
<g id="Node000001" class="node">
<title>Node1</title>
<g id="a_Node000001"><a xlink:title="Main function.">
<polygon fill="#999999" stroke="#666666" points="37,-94.25 0,-94.25 0,-75 37,-75 37,-94.25"/>
<text text-anchor="middle" x="18.5" y="-80.75" font-family="Helvetica,sans-Serif" font-size="10.00">main</text>
</a>
</g>
</g>
<!-- Node2 -->
<g id="Node000002" class="node">
<title>Node2</title>
<g id="a_Node000002"><a target="_blank" xlink:href="http://en.cppreference.com/w/cpp/string/byte/atof.html#" xlink:title=" ">
<polygon fill="white" stroke="#666666" points="125,-169.25 73,-169.25 73,-150 125,-150 125,-169.25"/>
<text text-anchor="middle" x="99" y="-155.75" font-family="Helvetica,sans-Serif" font-size="10.00">std::atof</text>
</a>
</g>
</g>
<!-- Node1&#45;&gt;Node2 -->
<g id="edge1_Node000001_Node000002" class="edge">
<title>Node1&#45;&gt;Node2</title>
<g id="a_edge1_Node000001_Node000002"><a xlink:title=" ">
<path fill="none" stroke="#63b8ff" d="M27.69,-94.45C37.76,-106.26 55.66,-126.4 73,-141.62 73.49,-142.06 73.99,-142.48 74.5,-142.91"/>
<polygon fill="#63b8ff" stroke="#63b8ff" points="72.06,-146.23 82.09,-149.61 76.36,-140.71 72.06,-146.23"/>
</a>
</g>
</g>
<!-- Node3 -->
<g id="Node000003" class="node">
<title>Node3</title>
<g id="a_Node000003"><a target="_blank" xlink:href="http://en.cppreference.com/w/cpp/string/byte/atoi.html#" xlink:title=" ">
<polygon fill="white" stroke="#666666" points="124.62,-132.25 73.38,-132.25 73.38,-113 124.62,-113 124.62,-132.25"/>
<text text-anchor="middle" x="99" y="-118.75" font-family="Helvetica,sans-Serif" font-size="10.00">std::atoi</text>
</a>
</g>
</g>
<!-- Node1&#45;&gt;Node3 -->
<g id="edge2_Node000001_Node000003" class="edge">
<title>Node1&#45;&gt;Node3</title>
<g id="a_edge2_Node000001_Node000003"><a xlink:title=" ">
<path fill="none" stroke="#63b8ff" d="M37.31,-93.25C46.2,-97.55 57.21,-102.88 67.39,-107.81"/>
<polygon fill="#63b8ff" stroke="#63b8ff" points="65.67,-111.35 76.2,-112.56 68.72,-105.05 65.67,-111.35"/>
</a>
</g>
</g>
<!-- Node4 -->
<g id="Node000004" class="node">
<title>Node4</title>
<g id="a_Node000004"><a target="_blank" xlink:href="http://en.cppreference.com/w/cpp/io/manip/endl.html#" xlink:title=" ">
<polygon fill="white" stroke="#666666" points="214.5,-56.25 161,-56.25 161,-37 214.5,-37 214.5,-56.25"/>
<text text-anchor="middle" x="187.75" y="-42.75" font-family="Helvetica,sans-Serif" font-size="10.00">std::endl</text>
</a>
</g>
</g>
<!-- Node1&#45;&gt;Node4 -->
<g id="edge3_Node000001_Node000004" class="edge">
<title>Node1&#45;&gt;Node4</title>
<g id="a_edge3_Node000001_Node000004"><a xlink:title=" ">
<path fill="none" stroke="#63b8ff" d="M37.18,-82.11C58.25,-78.95 94.44,-73.05 125,-65.62 133.18,-63.64 141.88,-61.18 150.08,-58.7"/>
<polygon fill="#63b8ff" stroke="#63b8ff" points="150.99,-61.77 159.5,-55.47 148.91,-55.09 150.99,-61.77"/>
</a>
</g>
</g>
<!-- Node5 -->
<g id="Node000005" class="node">
<title>Node5</title>
<g id="a_Node000005"><a xlink:href="../../d1/df3/hash__search_8cpp.html#a566eaf0ffafd50bc61e644561fd27001" target="_top" xlink:title=" ">
<polygon fill="white" stroke="#666666" points="113.4,-56.25 84.6,-56.25 84.6,-37 113.4,-37 113.4,-56.25"/>
<text text-anchor="middle" x="99" y="-42.75" font-family="Helvetica,sans-Serif" font-size="10.00">h</text>
</a>
</g>
</g>
<!-- Node1&#45;&gt;Node5 -->
<g id="edge4_Node000001_Node000005" class="edge">
<title>Node1&#45;&gt;Node5</title>
<g id="a_edge4_Node000001_Node000005"><a xlink:title=" ">
<path fill="none" stroke="#63b8ff" d="M37.31,-76C48.37,-70.65 62.7,-63.71 74.66,-57.93"/>
<polygon fill="#63b8ff" stroke="#63b8ff" points="75.94,-60.71 83.41,-53.2 72.89,-54.41 75.94,-60.71"/>
</a>
</g>
</g>
<!-- Node6 -->
<g id="Node000006" class="node">
<title>Node6</title>
<g id="a_Node000006"><a xlink:href="../../d6/d2c/caesar__cipher_8cpp.html#ae1a3968e7947464bee7714f6d43b7002" target="_top" xlink:title=" ">
<polygon fill="white" stroke="#666666" points="115.25,-19.25 82.75,-19.25 82.75,0 115.25,0 115.25,-19.25"/>
<text text-anchor="middle" x="99" y="-5.75" font-family="Helvetica,sans-Serif" font-size="10.00">test</text>
</a>
</g>
</g>
<!-- Node1&#45;&gt;Node6 -->
<g id="edge5_Node000001_Node000006" class="edge">
<title>Node1&#45;&gt;Node6</title>
<g id="a_edge5_Node000001_Node000006"><a xlink:title=" ">
<path fill="none" stroke="#63b8ff" d="M27.69,-74.8C37.76,-62.99 55.66,-42.85 73,-27.62 73.49,-27.19 73.99,-26.77 74.5,-26.34"/>
<polygon fill="#63b8ff" stroke="#63b8ff" points="76.36,-28.54 82.09,-19.64 72.06,-23.02 76.36,-28.54"/>
</a>
</g>
</g>
<!-- Node6&#45;&gt;Node4 -->
<g id="edge6_Node000006_Node000004" class="edge">
<title>Node6&#45;&gt;Node4</title>
<g id="a_edge6_Node000006_Node000004"><a xlink:title=" ">
<path fill="none" stroke="#63b8ff" d="M115.51,-16.24C125.97,-20.7 140.18,-26.76 153.15,-32.3"/>
<polygon fill="#63b8ff" stroke="#63b8ff" points="151.63,-35.88 162.2,-36.58 154.38,-29.44 151.63,-35.88"/>
</a>
</g>
</g>
</g>
</svg>
</svg>

<style type='text/css'>
<![CDATA[
[data-mouse-over-selected='false'] { opacity: 0.7; }
[data-mouse-over-selected='true']  { opacity: 1.0; }
]]>
</style>
<script type="application/ecmascript"><![CDATA[
document.addEventListener('DOMContentLoaded', (event) => {
  highlightEdges();
  highlightAdjacentNodes();
});
]]></script>
</svg>
