<?xml version="1.0" encoding="UTF-8" standalone="no"?>
<!DOCTYPE svg PUBLIC "-//W3C//DTD SVG 1.1//EN"
 "http://www.w3.org/Graphics/SVG/1.1/DTD/svg11.dtd">
<!-- Generated by graphviz version 8.1.0 (20230707.0739)
 -->
<!-- Title: others::iterative_tree_traversals::BinaryTree::preOrderIterative Pages: 1 -->
<svg width="372pt" height="119pt"
 viewBox="0.00 0.00 371.75 119.25" xmlns="http://www.w3.org/2000/svg" xmlns:xlink="http://www.w3.org/1999/xlink">
<g id="graph0" class="graph" transform="scale(1 1) rotate(0) translate(4 115.25)">
<title>others::iterative_tree_traversals::BinaryTree::preOrderIterative</title>
<!-- Node1 -->
<g id="Node000001" class="node">
<title>Node1</title>
<g id="a_Node000001"><a xlink:title="preOrderIterative() function that will perform the preorder traversal iteratively,...">
<polygon fill="#999999" stroke="#666666" points="117.25,-67.5 0,-67.5 0,-25.75 117.25,-25.75 117.25,-67.5"/>
<text text-anchor="start" x="8" y="-54" font-family="Helvetica,sans-Serif" font-size="10.00">others::iterative_tree</text>
<text text-anchor="start" x="8" y="-42.75" font-family="Helvetica,sans-Serif" font-size="10.00">_traversals::BinaryTree</text>
<text text-anchor="middle" x="58.62" y="-31.5" font-family="Helvetica,sans-Serif" font-size="10.00">::preOrderIterative</text>
</a>
</g>
</g>
<!-- Node2 -->
<g id="Node000002" class="node">
<title>Node2</title>
<g id="a_Node000002"><a xlink:href="../../d1/dc2/classstack.html#a6cd4b95d5de00d41b2491392338384dc" target="_top" xlink:title=" ">
<polygon fill="white" stroke="#666666" points="217.62,-93.25 155.88,-93.25 155.88,-74 217.62,-74 217.62,-93.25"/>
<text text-anchor="middle" x="186.75" y="-79.75" font-family="Helvetica,sans-Serif" font-size="10.00">stack::pop</text>
</a>
</g>
</g>
<!-- Node1&#45;&gt;Node2 -->
<g id="edge1_Node000001_Node000002" class="edge">
<title>Node1&#45;&gt;Node2</title>
<g id="a_edge1_Node000001_Node000002"><a xlink:title=" ">
<path fill="none" stroke="#63b8ff" d="M117.52,-63.61C126.82,-66.34 136.27,-69.11 145.06,-71.69"/>
<polygon fill="#63b8ff" stroke="#63b8ff" points="143.81,-75.26 154.39,-74.72 145.78,-68.54 143.81,-75.26"/>
</a>
</g>
</g>
<!-- Node5 -->
<g id="Node000005" class="node">
<title>Node5</title>
<g id="a_Node000005"><a xlink:href="../../d1/dc2/classstack.html#a5705c3926dcf5fd3f9c964467a50b81d" target="_top" xlink:title=" ">
<polygon fill="white" stroke="#666666" points="220.25,-56.25 153.25,-56.25 153.25,-37 220.25,-37 220.25,-56.25"/>
<text text-anchor="middle" x="186.75" y="-42.75" font-family="Helvetica,sans-Serif" font-size="10.00">stack::push</text>
</a>
</g>
</g>
<!-- Node1&#45;&gt;Node5 -->
<g id="edge4_Node000001_Node000005" class="edge">
<title>Node1&#45;&gt;Node5</title>
<g id="a_edge4_Node000001_Node000005"><a xlink:title=" ">
<path fill="none" stroke="#63b8ff" d="M117.52,-46.62C125.79,-46.62 134.19,-46.62 142.13,-46.62"/>
<polygon fill="#63b8ff" stroke="#63b8ff" points="141.99,-50.13 151.99,-46.62 141.99,-43.13 141.99,-50.13"/>
</a>
</g>
</g>
<!-- Node6 -->
<g id="Node000006" class="node">
<title>Node6</title>
<g id="a_Node000006"><a xlink:href="../../d1/dc2/classstack.html#a21c0bb6ce7dcfe445cc12031977ea344" target="_top" xlink:title=" ">
<polygon fill="white" stroke="#666666" points="216.5,-19.25 157,-19.25 157,0 216.5,0 216.5,-19.25"/>
<text text-anchor="middle" x="186.75" y="-5.75" font-family="Helvetica,sans-Serif" font-size="10.00">stack::top</text>
</a>
</g>
</g>
<!-- Node1&#45;&gt;Node6 -->
<g id="edge5_Node000001_Node000006" class="edge">
<title>Node1&#45;&gt;Node6</title>
<g id="a_edge5_Node000001_Node000006"><a xlink:title=" ">
<path fill="none" stroke="#63b8ff" d="M117.52,-29.64C127.29,-26.77 137.24,-23.86 146.4,-21.17"/>
<polygon fill="#63b8ff" stroke="#63b8ff" points="147.12,-24.31 155.73,-18.14 145.15,-17.59 147.12,-24.31"/>
</a>
</g>
</g>
<!-- Node3 -->
<g id="Node000003" class="node">
<title>Node3</title>
<g id="a_Node000003"><a target="_blank" xlink:href="http://en.cppreference.com/w/cpp/io/manip/endl.html#" xlink:title=" ">
<polygon fill="white" stroke="#666666" points="336.75,-111.25 283.25,-111.25 283.25,-92 336.75,-92 336.75,-111.25"/>
<text text-anchor="middle" x="310" y="-97.75" font-family="Helvetica,sans-Serif" font-size="10.00">std::endl</text>
</a>
</g>
</g>
<!-- Node2&#45;&gt;Node3 -->
<g id="edge2_Node000002_Node000003" class="edge">
<title>Node2&#45;&gt;Node3</title>
<g id="a_edge2_Node000002_Node000003"><a xlink:title=" ">
<path fill="none" stroke="#63b8ff" d="M218.03,-88.12C234.37,-90.55 254.68,-93.56 271.96,-96.13"/>
<polygon fill="#63b8ff" stroke="#63b8ff" points="271.39,-99.73 281.8,-97.74 272.42,-92.8 271.39,-99.73"/>
</a>
</g>
</g>
<!-- Node4 -->
<g id="Node000004" class="node">
<title>Node4</title>
<g id="a_Node000004"><a xlink:href="../../d1/dc2/classstack.html#a066e4505155b009913c47b2648b1067a" target="_top" xlink:title=" ">
<polygon fill="white" stroke="#666666" points="363.75,-74.25 256.25,-74.25 256.25,-55 363.75,-55 363.75,-74.25"/>
<text text-anchor="middle" x="310" y="-60.75" font-family="Helvetica,sans-Serif" font-size="10.00">stack::isEmptyStack</text>
</a>
</g>
</g>
<!-- Node2&#45;&gt;Node4 -->
<g id="edge3_Node000002_Node000004" class="edge">
<title>Node2&#45;&gt;Node4</title>
<g id="a_edge3_Node000002_Node000004"><a xlink:title=" ">
<path fill="none" stroke="#63b8ff" d="M218.03,-78.88C226.39,-77.57 235.79,-76.1 245.28,-74.61"/>
<polygon fill="#63b8ff" stroke="#63b8ff" points="245.66,-77.94 255,-72.93 244.58,-71.02 245.66,-77.94"/>
</a>
</g>
</g>
</g>
</svg>
