<?xml version="1.0" encoding="UTF-8" standalone="no"?>
<!DOCTYPE svg PUBLIC "-//W3C//DTD SVG 1.1//EN"
 "http://www.w3.org/Graphics/SVG/1.1/DTD/svg11.dtd">
<!-- Generated by graphviz version 8.1.0 (20230707.0739)
 -->
<!-- Title: main Pages: 1 -->
<svg width="478pt" height="101pt"
 viewBox="0.00 0.00 478.00 101.25" xmlns="http://www.w3.org/2000/svg" xmlns:xlink="http://www.w3.org/1999/xlink">
<g id="graph0" class="graph" transform="scale(1 1) rotate(0) translate(4 97.25)">
<title>main</title>
<!-- Node1 -->
<g id="Node000001" class="node">
<title>Node1</title>
<g id="a_Node000001"><a xlink:title=" ">
<polygon fill="#999999" stroke="#666666" points="37,-56.25 0,-56.25 0,-37 37,-37 37,-56.25"/>
<text text-anchor="middle" x="18.5" y="-42.75" font-family="Helvetica,sans-Serif" font-size="10.00">main</text>
</a>
</g>
</g>
<!-- Node2 -->
<g id="Node000002" class="node">
<title>Node2</title>
<g id="a_Node000002"><a xlink:href="../../dd/d0c/hamiltons__cycle_8cpp.html#ae7880ce913f3058a35ff106d5be9e243" target="_top" xlink:title=" ">
<polygon fill="white" stroke="#666666" points="110.75,-93.25 73,-93.25 73,-74 110.75,-74 110.75,-93.25"/>
<text text-anchor="middle" x="91.88" y="-79.75" font-family="Helvetica,sans-Serif" font-size="10.00">test1</text>
</a>
</g>
</g>
<!-- Node1&#45;&gt;Node2 -->
<g id="edge1_Node000001_Node000002" class="edge">
<title>Node1&#45;&gt;Node2</title>
<g id="a_edge1_Node000001_Node000002"><a xlink:title=" ">
<path fill="none" stroke="#63b8ff" d="M37.14,-55.77C45.06,-59.88 54.59,-64.81 63.41,-69.39"/>
<polygon fill="#63b8ff" stroke="#63b8ff" points="61.45,-72.83 71.94,-74.33 64.67,-66.62 61.45,-72.83"/>
</a>
</g>
</g>
<!-- Node7 -->
<g id="Node000007" class="node">
<title>Node7</title>
<g id="a_Node000007"><a xlink:href="../../dd/d0c/hamiltons__cycle_8cpp.html#a45d94ead4cf4e1ff9f87c38bc99f59ae" target="_top" xlink:title=" ">
<polygon fill="white" stroke="#666666" points="110.75,-56.25 73,-56.25 73,-37 110.75,-37 110.75,-56.25"/>
<text text-anchor="middle" x="91.88" y="-42.75" font-family="Helvetica,sans-Serif" font-size="10.00">test2</text>
</a>
</g>
</g>
<!-- Node1&#45;&gt;Node7 -->
<g id="edge7_Node000001_Node000007" class="edge">
<title>Node1&#45;&gt;Node7</title>
<g id="a_edge7_Node000001_Node000007"><a xlink:title=" ">
<path fill="none" stroke="#63b8ff" d="M37.14,-46.62C44.64,-46.62 53.57,-46.62 61.98,-46.62"/>
<polygon fill="#63b8ff" stroke="#63b8ff" points="61.94,-50.13 71.94,-46.62 61.94,-43.13 61.94,-50.13"/>
</a>
</g>
</g>
<!-- Node8 -->
<g id="Node000008" class="node">
<title>Node8</title>
<g id="a_Node000008"><a xlink:href="../../dd/d0c/hamiltons__cycle_8cpp.html#a0cc94918b6831f308d4fe4fa27f08299" target="_top" xlink:title=" ">
<polygon fill="white" stroke="#666666" points="110.75,-19.25 73,-19.25 73,0 110.75,0 110.75,-19.25"/>
<text text-anchor="middle" x="91.88" y="-5.75" font-family="Helvetica,sans-Serif" font-size="10.00">test3</text>
</a>
</g>
</g>
<!-- Node1&#45;&gt;Node8 -->
<g id="edge9_Node000001_Node000008" class="edge">
<title>Node1&#45;&gt;Node8</title>
<g id="a_edge9_Node000001_Node000008"><a xlink:title=" ">
<path fill="none" stroke="#63b8ff" d="M37.14,-37.48C45.06,-33.37 54.59,-28.44 63.41,-23.86"/>
<polygon fill="#63b8ff" stroke="#63b8ff" points="64.67,-26.63 71.94,-18.92 61.45,-20.42 64.67,-26.63"/>
</a>
</g>
</g>
<!-- Node3 -->
<g id="Node000003" class="node">
<title>Node3</title>
<g id="a_Node000003"><a xlink:href="../../dd/d0c/hamiltons__cycle_8cpp.html#abcf824e347eecfeeb69ea0280f34f3e4" target="_top" xlink:title=" ">
<polygon fill="white" stroke="#666666" points="228,-56.25 146.75,-56.25 146.75,-37 228,-37 228,-56.25"/>
<text text-anchor="middle" x="187.38" y="-42.75" font-family="Helvetica,sans-Serif" font-size="10.00">hamilton_cycle</text>
</a>
</g>
</g>
<!-- Node2&#45;&gt;Node3 -->
<g id="edge2_Node000002_Node000003" class="edge">
<title>Node2&#45;&gt;Node3</title>
<g id="a_edge2_Node000002_Node000003"><a xlink:title=" ">
<path fill="none" stroke="#63b8ff" d="M110.9,-76.49C122.24,-72.01 137.25,-66.07 150.89,-60.67"/>
<polygon fill="#63b8ff" stroke="#63b8ff" points="151.97,-63.61 159.98,-56.67 149.39,-57.1 151.97,-63.61"/>
</a>
</g>
</g>
<!-- Node4 -->
<g id="Node000004" class="node">
<title>Node4</title>
<g id="a_Node000004"><a xlink:href="../../d8/dee/avltree_8cpp.html#ae4a66d8b0c2b0d626aea45977e358c83" target="_top" xlink:title=" ">
<polygon fill="white" stroke="#666666" points="343,-75.25 300.75,-75.25 300.75,-56 343,-56 343,-75.25"/>
<text text-anchor="middle" x="321.88" y="-61.75" font-family="Helvetica,sans-Serif" font-size="10.00">height</text>
</a>
</g>
</g>
<!-- Node3&#45;&gt;Node4 -->
<g id="edge3_Node000003_Node000004" class="edge">
<title>Node3&#45;&gt;Node4</title>
<g id="a_edge3_Node000003_Node000004"><a xlink:title=" ">
<path fill="none" stroke="#63b8ff" d="M228.49,-52.38C248.17,-55.2 271.51,-58.55 289.81,-61.17"/>
<polygon fill="#63b8ff" stroke="#63b8ff" points="289.08,-64.74 299.48,-62.7 290.07,-57.82 289.08,-64.74"/>
</a>
</g>
</g>
<!-- Node6 -->
<g id="Node000006" class="node">
<title>Node6</title>
<g id="a_Node000006"><a target="_blank" xlink:href="http://en.cppreference.com/w/cpp/container/vector/push_back.html#" xlink:title=" ">
<polygon fill="white" stroke="#666666" points="379.75,-38.25 264,-38.25 264,-19 379.75,-19 379.75,-38.25"/>
<text text-anchor="middle" x="321.88" y="-24.75" font-family="Helvetica,sans-Serif" font-size="10.00">std::vector::push_back</text>
</a>
</g>
</g>
<!-- Node3&#45;&gt;Node6 -->
<g id="edge6_Node000003_Node000006" class="edge">
<title>Node3&#45;&gt;Node6</title>
<g id="a_edge6_Node000003_Node000006"><a xlink:title=" ">
<path fill="none" stroke="#63b8ff" d="M228.49,-41.18C236.31,-40.11 244.71,-38.97 253.14,-37.83"/>
<polygon fill="#63b8ff" stroke="#63b8ff" points="253.35,-41.19 262.79,-36.38 252.41,-34.26 253.35,-41.19"/>
</a>
</g>
</g>
<!-- Node4&#45;&gt;Node4 -->
<g id="edge4_Node000004_Node000004" class="edge">
<title>Node4&#45;&gt;Node4</title>
<g id="a_edge4_Node000004_Node000004"><a xlink:title=" ">
<path fill="none" stroke="#63b8ff" d="M302.93,-75.54C294.29,-84.15 300.61,-93.25 321.88,-93.25 334.17,-93.25 341.47,-90.21 343.77,-85.98"/>
<polygon fill="#63b8ff" stroke="#63b8ff" points="346.91,-85.21 340.82,-76.54 340.17,-87.11 346.91,-85.21"/>
</a>
</g>
</g>
<!-- Node5 -->
<g id="Node000005" class="node">
<title>Node5</title>
<g id="a_Node000005"><a target="_blank" xlink:href="http://en.cppreference.com/w/cpp/algorithm/max.html#" xlink:title=" ">
<polygon fill="white" stroke="#666666" points="470,-75.25 415.75,-75.25 415.75,-56 470,-56 470,-75.25"/>
<text text-anchor="middle" x="442.88" y="-61.75" font-family="Helvetica,sans-Serif" font-size="10.00">std::max</text>
</a>
</g>
</g>
<!-- Node4&#45;&gt;Node5 -->
<g id="edge5_Node000004_Node000005" class="edge">
<title>Node4&#45;&gt;Node5</title>
<g id="a_edge5_Node000004_Node000005"><a xlink:title=" ">
<path fill="none" stroke="#63b8ff" d="M343.33,-65.62C360.15,-65.62 384.43,-65.62 404.67,-65.62"/>
<polygon fill="#63b8ff" stroke="#63b8ff" points="404.44,-69.13 414.44,-65.62 404.43,-62.13 404.44,-69.13"/>
</a>
</g>
</g>
<!-- Node7&#45;&gt;Node3 -->
<g id="edge8_Node000007_Node000003" class="edge">
<title>Node7&#45;&gt;Node3</title>
<g id="a_edge8_Node000007_Node000003"><a xlink:title=" ">
<path fill="none" stroke="#63b8ff" d="M110.9,-46.62C118.07,-46.62 126.71,-46.62 135.54,-46.62"/>
<polygon fill="#63b8ff" stroke="#63b8ff" points="135.33,-50.13 145.33,-46.62 135.33,-43.13 135.33,-50.13"/>
</a>
</g>
</g>
<!-- Node8&#45;&gt;Node3 -->
<g id="edge10_Node000008_Node000003" class="edge">
<title>Node8&#45;&gt;Node3</title>
<g id="a_edge10_Node000008_Node000003"><a xlink:title=" ">
<path fill="none" stroke="#63b8ff" d="M110.9,-16.76C122.24,-21.24 137.25,-27.18 150.89,-32.58"/>
<polygon fill="#63b8ff" stroke="#63b8ff" points="149.39,-36.15 159.98,-36.58 151.97,-29.64 149.39,-36.15"/>
</a>
</g>
</g>
</g>
</svg>
